<svg id="_0520_data_analyzing" data-name="0520_data_analyzing" xmlns="http://www.w3.org/2000/svg" viewBox="0 0 500 500" data-imageid="report-analysis-6-23" imageName="Report Analysis 6" class="illustrations_image" style="width: 133px;"><defs><style>.cls-1_report-analysis-6-23{fill:#68e1fd;}.cls-2_report-analysis-6-23{fill:#093f68;}.cls-3_report-analysis-6-23{fill:#fff;}.cls-4_report-analysis-6-23{fill:#dfeaef;}.cls-5_report-analysis-6-23{fill:#f56132;}.cls-6_report-analysis-6-23{fill:#ffbc0e;}.cls-7_report-analysis-6-23{fill:#70cc40;}</style></defs><g id="paper_report-analysis-6-23"><g id="paper-2_report-analysis-6-23" data-name="paper"><path class="cls-1_report-analysis-6-23 targetColor" d="M116.41,86.14h17a22.67,22.67,0,0,1,22.67,22.67v30.33a0,0,0,0,1,0,0H72.83a0,0,0,0,1,0,0v-9.42A43.58,43.58,0,0,1,116.41,86.14Z" style="fill: rgb(104, 225, 253);"/><path class="cls-2_report-analysis-6-23" d="M156.1,141H72.83A1.84,1.84,0,0,1,71,139.14V127.77a43.47,43.47,0,0,1,86.94,0v11.37A1.83,1.83,0,0,1,156.1,141ZM74.66,137.3h79.6v-9.53a39.8,39.8,0,0,0-79.6,0Z"/><path class="cls-3_report-analysis-6-23" d="M356.75,129V413H197.61a41.59,41.59,0,0,1-41.51-38.85V127.69a41.64,41.64,0,0,0-41.64-41.56H313.89A42.87,42.87,0,0,1,356.75,129Z"/><path class="cls-2_report-analysis-6-23" d="M356.75,414.8H197.61a43.51,43.51,0,0,1-43.35-40.57V127.69A39.86,39.86,0,0,0,114.46,88a1.84,1.84,0,1,1,0-3.67H313.89A44.75,44.75,0,0,1,358.59,129V413A1.84,1.84,0,0,1,356.75,414.8ZM131.93,88a43.54,43.54,0,0,1,26,39.72V374.11a39.81,39.81,0,0,0,39.68,37H354.92V129a41.08,41.08,0,0,0-41-41Z"/><path class="cls-1_report-analysis-6-23 targetColor" d="M427.17,360v11.37A41.6,41.6,0,0,1,385.54,413H197.61a41.63,41.63,0,0,0,41.64-41.62V360Z" style="fill: rgb(104, 225, 253);"/><path class="cls-2_report-analysis-6-23" d="M385.54,414.8H197.61a1.84,1.84,0,0,1,0-3.67,39.85,39.85,0,0,0,39.81-39.79V360a1.83,1.83,0,0,1,1.83-1.84H427.17A1.84,1.84,0,0,1,429,360v11.37a43.45,43.45,0,0,1-43.47,43.46ZM215.1,411.13H385.54a39.78,39.78,0,0,0,39.8-39.79v-9.53H241.09v9.53A43.52,43.52,0,0,1,215.1,411.13Z"/><path class="cls-4_report-analysis-6-23" d="M268.14,130.59H214.91a1.84,1.84,0,0,1,0-3.67h53.23a1.84,1.84,0,1,1,0,3.67Z"/><path class="cls-4_report-analysis-6-23" d="M231.54,152.9H182.08a1.84,1.84,0,0,1,0-3.67h49.46a1.84,1.84,0,0,1,0,3.67Z"/><path class="cls-4_report-analysis-6-23" d="M336.18,335.54H273.07a1.84,1.84,0,1,1,0-3.68h63.11a1.84,1.84,0,0,1,0,3.68Z"/><path class="cls-4_report-analysis-6-23" d="M255.64,335.54H242.28a1.84,1.84,0,0,1,0-3.68h13.36a1.84,1.84,0,1,1,0,3.68Z"/></g><path class="cls-4_report-analysis-6-23" d="M197.61,130.59H182.08a1.84,1.84,0,0,1,0-3.67h15.53a1.84,1.84,0,1,1,0,3.67Z"/></g><g id="magnifying-glass_report-analysis-6-23"><path class="cls-1_report-analysis-6-23 targetColor" d="M166.32,233.91h12.75a6.25,6.25,0,0,1,6.25,6.25v167a0,0,0,0,1,0,0H160.07a0,0,0,0,1,0,0v-167A6.25,6.25,0,0,1,166.32,233.91Z" transform="translate(69.42 669.72) rotate(-135.21)" style="fill: rgb(104, 225, 253);"/><path class="cls-2_report-analysis-6-23" d="M120.56,388a13.31,13.31,0,0,1-9.39-3.86l-1.62-1.62h0a13.31,13.31,0,0,1-.07-18.84l114-114.83a1.85,1.85,0,0,1,1.3-.54h0a1.86,1.86,0,0,1,1.3.53L244,266.66a1.82,1.82,0,0,1,0,2.59L130,384.09A13.28,13.28,0,0,1,120.56,388Zm-8.43-8.09,1.63,1.62a9.57,9.57,0,0,0,6.8,2.8h0a9.56,9.56,0,0,0,6.81-2.85L240.1,268l-15.32-15.21L112.09,366.29a9.63,9.63,0,0,0,0,13.64Z"/><circle class="cls-1_report-analysis-6-23 targetColor" cx="256.37" cy="236.43" r="71.89" style="fill: rgb(104, 225, 253);"/><path class="cls-2_report-analysis-6-23" d="M256.36,310.16a73.73,73.73,0,0,1-.26-147.45h.28a73.73,73.73,0,0,1,.26,147.45Zm0-143.78h-.26a70.06,70.06,0,0,0,.25,140.11h.26a70.06,70.06,0,0,0-.25-140.11Z"/><circle class="cls-3_report-analysis-6-23" cx="256.37" cy="236.43" r="50.65"/><path class="cls-2_report-analysis-6-23" d="M256.36,288.89a52.46,52.46,0,0,1-37.24-89.43h0a52.48,52.48,0,1,1,37.24,89.43Zm-34.63-86.84a48.81,48.81,0,1,0,69-.26,48.46,48.46,0,0,0-69,.26Z"/></g><g id="graph_report-analysis-6-23"><path class="cls-2_report-analysis-6-23" d="M399.78,251.61H209.58a1.84,1.84,0,0,1,0-3.68h190.2a1.84,1.84,0,0,1,0,3.68Z"/><rect class="cls-5_report-analysis-6-23" x="231.54" y="221.51" width="34.85" height="28.26"/><path class="cls-2_report-analysis-6-23" d="M266.39,251.61H231.54a1.84,1.84,0,0,1-1.84-1.84V221.5a1.83,1.83,0,0,1,1.84-1.83h34.85a1.84,1.84,0,0,1,1.84,1.83v28.27A1.84,1.84,0,0,1,266.39,251.61Zm-33-3.68h31.18V223.34H233.37Z"/><rect class="cls-6_report-analysis-6-23" x="285.49" y="196.18" width="34.85" height="53.59"/><path class="cls-2_report-analysis-6-23" d="M320.35,251.61H285.49a1.84,1.84,0,0,1-1.84-1.84V196.18a1.84,1.84,0,0,1,1.84-1.83h34.86a1.83,1.83,0,0,1,1.83,1.83v53.59A1.83,1.83,0,0,1,320.35,251.61Zm-33-3.68h31.18V198H287.33Z"/><rect class="cls-7_report-analysis-6-23" x="339.45" y="162.68" width="34.85" height="87.09"/><path class="cls-2_report-analysis-6-23" d="M374.3,251.61H339.45a1.84,1.84,0,0,1-1.84-1.84V162.68a1.84,1.84,0,0,1,1.84-1.84H374.3a1.84,1.84,0,0,1,1.84,1.84v87.09A1.84,1.84,0,0,1,374.3,251.61Zm-33-3.68h31.18V164.52H341.29Z"/><path class="cls-2_report-analysis-6-23" d="M235.61,208.06a1.83,1.83,0,0,1-1.08-3.32l99.24-71.6H323.28a1.84,1.84,0,0,1,0-3.67h16.17a1.83,1.83,0,0,1,1.07,3.32L236.68,207.71A1.78,1.78,0,0,1,235.61,208.06Z"/><path class="cls-2_report-analysis-6-23" d="M336,147.8a1.48,1.48,0,0,1-.41-.05,1.84,1.84,0,0,1-1.38-2.2l3.42-14.66a1.84,1.84,0,1,1,3.58.83l-3.42,14.66A1.84,1.84,0,0,1,336,147.8Z"/></g></svg>