<svg id="_0512_chart_3" xmlns="http://www.w3.org/2000/svg" viewBox="0 0 500 500" data-imageid="chart-3-40" imageName="Chart 3" class="illustrations_image" style="width: 188px;"><defs><style>.cls-1_chart-3-40,.cls-2_chart-3-40{fill:#fff;}.cls-3_chart-3-40{fill:#a5a5a5;}.cls-4_chart-3-40{fill:#e6e6e6;}.cls-5_chart-3-40{fill:#000001;opacity:.09;}.cls-2_chart-3-40{opacity:.15;}.cls-6_chart-3-40{fill:#24285b;}.cls-7_chart-3-40{fill:#ffd200;}.cls-8_chart-3-40{fill:#68e1fd;}</style></defs><g id="pie_chart_chart-3-40"><circle class="cls-4_chart-3-40" cx="137.66" cy="159.55" r="94.65"/><path class="cls-4_chart-3-40" d="m137.66,64.9v94.65l84.68-42.3s-20.05-50.35-84.68-52.35Z"/><path class="cls-3_chart-3-40" d="m137.66,159.55l94.2,9.24s4.1-23.21-9.52-51.55l-84.68,42.3Z"/><path class="cls-3_chart-3-40" d="m137.66,159.55l86.43,38.63s7.52-13.17,7.77-29.38l-94.2-9.24Z"/><path class="cls-3_chart-3-40" d="m137.66,159.55l73.71,59.37s9.18-11.14,12.72-20.74l-86.43-38.63Z"/></g><g id="chart_chart-3-40"><rect class="cls-6_chart-3-40" x="21.21" y="438.66" width="457.59" height="27.66" rx="9.4" ry="9.4"/><rect class="cls-7_chart-3-40" x="236.08" y="358.07" width="55.76" height="80.59"/><rect class="cls-7_chart-3-40" x="160.99" y="394.06" width="55.76" height="44.61"/><rect class="cls-7_chart-3-40" x="84.84" y="416.36" width="55.76" height="22.3"/><rect class="cls-7_chart-3-40" x="309.61" y="304.89" width="55.76" height="133.78"/><rect class="cls-7_chart-3-40" x="380.01" y="245.44" width="55.76" height="193.22"/></g><g id="growth_chart-3-40"><path class="cls-8_chart-3-40 targetColor" d="m84.33,342.96s139.27-15.71,212.26-124.06l34.7,27.28s-110.21,116.92-246.96,96.78Z" style="fill: rgb(104, 225, 253);"/><polygon class="cls-8_chart-3-40 targetColor" points="277.34 209.53 341.81 263.41 355.33 186.56 277.34 209.53" style="fill: rgb(104, 225, 253);"/></g><g id="info_chart-3-40"><circle class="cls-5_chart-3-40" cx="184" cy="108.33" r="8.11"/><path class="cls-6_chart-3-40" d="m184.76,109.3c-.27,0-.54-.09-.76-.28-.5-.42-.56-1.16-.14-1.66l43.76-51.63c.22-.26.55-.42.9-.42h56.44c.65,0,1.18.53,1.18,1.18s-.53,1.18-1.18,1.18h-55.89l-43.41,51.22c-.23.27-.56.42-.9.42Z"/><rect class="cls-6_chart-3-40" x="272.35" y="33.68" width="100.26" height="45.63"/><polygon class="cls-8_chart-3-40 targetColor" points="342.97 65.02 363.08 65.02 353.03 46.11 342.97 65.02" style="fill: rgb(104, 225, 253);"/><rect class="cls-1_chart-3-40" x="293.37" y="46.89" width="39.62" height="6" rx="2.04" ry="2.04"/><rect class="cls-2_chart-3-40" x="293.37" y="58.3" width="39.62" height="6" rx="2.04" ry="2.04"/></g></svg>