<svg id="_0160_data_arranging" xmlns="http://www.w3.org/2000/svg" viewBox="0 0 500 500" data-imageid="data-center-1-52" imageName="Data Center 1" class="illustrations_image" style="width: 188px;"><defs><style>.cls-1_data-center-1-52{fill:#fff;}.cls-2_data-center-1-52{fill:#f4a28c;}.cls-3_data-center-1-52{opacity:.58;}.cls-3_data-center-1-52,.cls-4_data-center-1-52,.cls-5_data-center-1-52,.cls-6_data-center-1-52,.cls-7_data-center-1-52,.cls-8_data-center-1-52{fill:none;}.cls-9_data-center-1-52{fill:#e6e6e6;}.cls-4_data-center-1-52{opacity:.03;}.cls-5_data-center-1-52{opacity:.07;}.cls-6_data-center-1-52{opacity:.73;}.cls-7_data-center-1-52{opacity:.08;}.cls-8_data-center-1-52{opacity:.12;}.cls-10_data-center-1-52{fill:#24285b;}.cls-11_data-center-1-52{fill:#000001;}.cls-12_data-center-1-52{fill:#ffd200;}.cls-13_data-center-1-52{fill:#68e1fd;}</style></defs><g id="sd_data-center-1-52" class="cls-4_data-center-1-52"><ellipse class="cls-11_data-center-1-52" cx="250" cy="458.46" rx="227.88" ry="21.27"/></g><g id="plant_data-center-1-52"><g class="cls-3_data-center-1-52"><path class="cls-13_data-center-1-52 targetColor" d="m420.08,437.13s-16.69-4.56-20.32-20.09c0,0,25.85-5.23,26.59,21.46l-6.27-1.37Z" style="fill: rgb(104, 225, 253);"/></g><g class="cls-6_data-center-1-52"><path class="cls-13_data-center-1-52 targetColor" d="m422.12,435.47s-11.66-18.43-1.4-35.66c0,0,19.66,12.48,10.92,35.7l-9.53-.04Z" style="fill: rgb(104, 225, 253);"/></g><path class="cls-13_data-center-1-52 targetColor" d="m425.13,435.49s6.16-19.46,24.78-23.15c0,0,3.49,12.64-12.06,23.2l-12.72-.05Z" style="fill: rgb(104, 225, 253);"/><polygon class="cls-10_data-center-1-52" points="413.03 435.05 416.41 458.19 437.71 458.28 440.85 435.17 413.03 435.05"/></g><g id="server_data-center-1-52"><rect class="cls-10_data-center-1-52" x="200.87" y="153.7" width="183.28" height="304.88"/><g class="cls-5_data-center-1-52"><rect class="cls-1_data-center-1-52" x="215.98" y="244.51" width="152.71" height="48.76" rx="12.31" ry="12.31"/></g><circle class="cls-13_data-center-1-52 targetColor" cx="340.84" cy="268.95" r="13.04" style="fill: rgb(104, 225, 253);"/><rect class="cls-1_data-center-1-52" x="231.62" y="262.75" width="76.87" height="12.39"/><g class="cls-5_data-center-1-52"><rect class="cls-1_data-center-1-52" x="215.98" y="173.49" width="152.71" height="48.76" rx="12.31" ry="12.31"/></g><circle class="cls-13_data-center-1-52 targetColor" cx="340.84" cy="197.93" r="13.04" style="fill: rgb(104, 225, 253);"/><rect class="cls-1_data-center-1-52" x="231.62" y="191.73" width="76.87" height="12.39"/><g class="cls-5_data-center-1-52"><rect class="cls-1_data-center-1-52" x="215.98" y="318.62" width="152.71" height="48.76" rx="12.31" ry="12.31"/></g><circle class="cls-13_data-center-1-52 targetColor" cx="340.84" cy="343.05" r="13.04" style="fill: rgb(104, 225, 253);"/><rect class="cls-1_data-center-1-52" x="231.62" y="336.86" width="76.87" height="12.39"/><g class="cls-5_data-center-1-52"><rect class="cls-1_data-center-1-52" x="215.98" y="392.72" width="152.71" height="48.76" rx="12.31" ry="12.31"/></g><circle class="cls-13_data-center-1-52 targetColor" cx="340.84" cy="417.16" r="13.04" style="fill: rgb(104, 225, 253);"/><rect class="cls-1_data-center-1-52" x="231.62" y="410.97" width="76.87" height="12.39"/></g><g id="person_data-center-1-52"><path class="cls-2_data-center-1-52" d="m111.03,316.12l-16.57,52.92c-4.52,14.44-14.86,26.33-28.52,32.83l-24.32,11.56.98,7.18,36.36-7.84c17.25-5.11,31.56-17.24,39.42-33.43l25.68-52.88-33.02-10.34Z"/><rect class="cls-10_data-center-1-52" x="234.98" y="48.73" width="183.28" height="70.46" transform="translate(-9.29 54.1) rotate(-9.34)"/><rect class="cls-13_data-center-1-52 targetColor" x="264.74" y="28.98" width="109.03" height="20.35" transform="translate(-2.12 52.31) rotate(-9.34)" style="fill: rgb(104, 225, 253);"/><g class="cls-5_data-center-1-52"><rect class="cls-1_data-center-1-52" x="250.09" y="59.61" width="152.71" height="48.76" rx="12.31" ry="12.31" transform="translate(-9.3 54.07) rotate(-9.34)"/></g><circle class="cls-13_data-center-1-52 targetColor" cx="374.32" cy="76.17" r="13.04" style="fill: rgb(104, 225, 253);"/><rect class="cls-1_data-center-1-52" x="266.04" y="81.46" width="76.87" height="12.39" transform="translate(-10.19 50.56) rotate(-9.34)"/><polygon class="cls-2_data-center-1-52" points="165.86 331.04 173.65 444.39 166.42 446.91 137.64 340.86 165.86 331.04"/><path class="cls-13_data-center-1-52 targetColor" d="m175.13,446.34s1.57,6.72,6.62,8.8c5.06,2.08,2.5,9.41-5.11,4.95-2.91-1.7-5.12-3.33-6.74-4.7-1.93-1.63-4.33-2.46-6.82-2.91-.78-.14-1.49-.67-1.84-1.97-1.01-3.71,7.4-7.21,7.4-7.21l6.49,3.05Z" style="fill: rgb(104, 225, 253);"/><path class="cls-13_data-center-1-52 targetColor" d="m42.59,420.6s-5.13,3.92-4.97,9.03c.17,5.12-7.07,5.75-6.19-2.47.34-3.13.88-5.65,1.42-7.56.65-2.28.44-4.64-.13-6.94-.18-.72,0-1.53.97-2.33,2.78-2.29,9,3.55,9,3.55l-.11,6.71Z" style="fill: rgb(104, 225, 253);"/><polygon class="cls-2_data-center-1-52" points="122.49 166.73 125.19 177.64 116.35 182.32 114.79 163.65 122.49 166.73"/><path class="cls-2_data-center-1-52" d="m112.72,153.15c2.16-4.27,8.11-4.71,11.09-.96,3.28,4.11,7.11,10.53,1.96,13.45-7.88,4.47-13.98-5.54-13.98-5.54,0,0-.71-3.71.92-6.95Z"/><rect class="cls-12_data-center-1-52" x="27.84" y="210.68" width="64.1" height="45.29" transform="translate(-87.19 424.1) rotate(-127.97)"/><path class="cls-2_data-center-1-52" d="m76.42,200.93s-38.08,59.49-30.45,68.27c24.18,27.81,77.87-34.83,77.87-34.83l-47.42-33.43Z"/><path class="cls-13_data-center-1-52 targetColor" d="m162.51,192.05c-22.24-16.32-52.74-16.89-75.54-1.36-9.96,6.78-17.63,16.91-14.12,31.57,8.24,34.4,34.59,57.07,35.41,87.32l62.39-4.19v-38.94c0-7.44,3.02-14.6,8.5-19.64,5.44-5.01,10.85-13.19,7.15-24.41-3.29-9.97-11.81-21.57-23.79-30.36Z" style="fill: rgb(104, 225, 253);"/><path class="cls-2_data-center-1-52" d="m117.67,160.11s-1.79-1.75-2.84.45c-1.05,2.21,2.25,3.57,3.35,2.51,1.1-1.07-.51-2.96-.51-2.96Z"/><g class="cls-7_data-center-1-52"><path class="cls-11_data-center-1-52" d="m131.62,208.26s-13.48,25.76,2.17,50.88c15.65,25.12-14.01,49.68-14.01,49.68l50.87-3.42v-22.2l-39.03-74.93Z"/></g><path class="cls-10_data-center-1-52" d="m105.64,192.84c1.21-4.66,6.76-13.13-1.07-28.39-1.66-3.23-2.96-10.8.15-16.04,7.44-12.54,19.4-8.25,17.99-1.22-1.41,7.03-2.41,10.37-2.41,10.37,0,0,22.65,16.25,19.35,28.22-2.94,10.64-39.04,26.48-34.01,7.07Z"/><polygon class="cls-10_data-center-1-52" points="105.52 293.66 170.65 293.66 181.02 383.79 84.41 379.43 105.52 293.66"/><path class="cls-2_data-center-1-52" d="m134.21,226.58c-6.45-7.88-5.29-19.56,2.68-25.9,3.06-2.43,6.96-5.08,11.93-7.93,24.85-14.22,66.13-45.66,83.5-89.01,0,0,4.08-15.86,16.17-15.29,12.09.57,7.93,15.58-4.12,15.44,0,0-9.84,94.09-82.13,129.09-9.64,4.67-21.26,1.89-28.04-6.41h0Z"/><polygon class="cls-9_data-center-1-52" points="88.84 69.53 88.84 103.87 111.02 103.87 115.87 117.54 121.61 103.87 143.79 103.87 143.79 69.53 88.84 69.53"/><g class="cls-8_data-center-1-52"><path class="cls-11_data-center-1-52" d="m113.54,94.37s-.05,0-.07,0c-.5-.02-.97-.26-1.28-.66l-5.8-7.47c-.58-.75-.45-1.83.3-2.41.75-.58,1.83-.44,2.41.3l4.56,5.87,11.25-12.15c.64-.7,1.73-.74,2.43-.09.7.64.74,1.73.09,2.43l-12.62,13.64c-.33.35-.78.55-1.26.55Z"/></g></g></svg>