<svg id="_0562_online_report" xmlns="http://www.w3.org/2000/svg" viewBox="0 0 500 500" data-imageid="financial-statement-12" imageName="Financial Statement" class="illustrations_image" style="width: 188px;"><defs><style>.cls-1_financial-statement-12,.cls-2_financial-statement-12,.cls-3_financial-statement-12{fill:#fff;}.cls-4_financial-statement-12{fill:#f4a28c;}.cls-2_financial-statement-12{opacity:.5;}.cls-5_financial-statement-12,.cls-6_financial-statement-12{fill:#e6e6e6;}.cls-6_financial-statement-12{opacity:.3;}.cls-7_financial-statement-12{fill:#ce8172;opacity:.31;}.cls-8_financial-statement-12{opacity:.58;}.cls-8_financial-statement-12,.cls-9_financial-statement-12,.cls-10_financial-statement-12{fill:#68e1fd;}.cls-11_financial-statement-12{fill:none;opacity:.12;}.cls-3_financial-statement-12{opacity:.46;}.cls-12_financial-statement-12{fill:#24285b;}.cls-13_financial-statement-12{opacity:.08;}.cls-13_financial-statement-12,.cls-14_financial-statement-12,.cls-15_financial-statement-12{fill:#000001;}.cls-9_financial-statement-12{opacity:.73;}.cls-15_financial-statement-12{opacity:.1;}.cls-16_financial-statement-12{fill:#ffd200;}</style></defs><path id="bg_financial-statement-12" class="cls-6_financial-statement-12" d="m119.02,43.83c-50.84,14.92-91.27,51.21-98.45,119.13-6.05,57.23.18,158.57,85.22,176.59,165.49,35.06,289.11,35.27,351.29-51.92,38.42-53.87,37.77-217.18-54.93-241.72-65.57-17.35-174.18-34.06-283.13-2.09Z"/><g id="reports_financial-statement-12"><path class="cls-10_financial-statement-12 targetColor" d="m436.53,115.57v353.73H152.99c-14.11,0-25.55-11.44-25.55-25.55V117.99c0-6.83-2.77-13.02-7.27-17.53-4.48-4.48-10.67-7.25-17.5-7.25h311.51c12.35,0,22.36,10.01,22.36,22.36Z" style="fill: rgb(104, 225, 253);"/><path class="cls-12_financial-statement-12" d="m127.44,117.99v271.32h-49.58V117.99c0-13.67,11.11-24.78,24.8-24.78,6.83,0,13.02,2.77,17.5,7.25,4.5,4.5,7.27,10.69,7.27,17.53Z"/><path class="cls-12_financial-statement-12" d="m127.44,117.99v271.32h-49.58V117.99c0-13.67,11.11-24.78,24.8-24.78,6.83,0,13.02,2.77,17.5,7.25,4.5,4.5,7.27,10.69,7.27,17.53Z"/><path class="cls-10_financial-statement-12 targetColor" d="m178.56,435.16v12.96c0,7.8-11.67,20.04-23.23,21.07v.1h297.52c18.86.01,34.15-15.28,34.15-34.14h0s-308.44,0-308.44,0Z" style="fill: rgb(104, 225, 253);"/><path class="cls-2_financial-statement-12" d="m178.56,435.16v12.96c0,7.8-11.67,20.04-23.23,21.07v.1h297.52c18.86.01,34.15-15.28,34.15-34.14h0s-308.44,0-308.44,0Z"/><g class="cls-11_financial-statement-12"><rect class="cls-14_financial-statement-12" x="169.35" y="340.71" width="37.46" height="65.71"/><rect class="cls-14_financial-statement-12" x="230.41" y="316.68" width="37.46" height="89.74"/><rect class="cls-14_financial-statement-12" x="291.48" y="278.17" width="37.46" height="128.25"/><rect class="cls-14_financial-statement-12" x="352.54" y="243.14" width="37.46" height="163.28"/></g><rect class="cls-3_financial-statement-12" x="205.69" y="256" width="59.93" height="10.09"/><rect class="cls-3_financial-statement-12" x="205.69" y="282.59" width="59.93" height="10.09"/><rect class="cls-15_financial-statement-12" x="169.35" y="256" width="17.67" height="10.09"/><rect class="cls-16_financial-statement-12" x="169.35" y="282.59" width="17.67" height="10.09"/><path class="cls-3_financial-statement-12" d="m246.67,179.09c0,23.72-19.23,42.93-42.93,42.93-8.83,0-17.04-2.67-23.86-7.24-11.5-7.71-19.06-20.81-19.06-35.69,0-23.7,19.23-42.93,42.93-42.93,20.7,0,37.98,14.68,42.01,34.19h.01c.22,1.15.42,2.33.58,3.48.22,1.71.32,3.47.32,5.25Z"/><path class="cls-16_financial-statement-12" d="m203.74,136.17v42.93l42.03-8.74s-5.86-34.47-42.03-34.18Z"/><path class="cls-15_financial-statement-12" d="m246.67,179.09c0,23.72-19.23,42.93-42.93,42.93-8.83,0-17.04-2.67-23.86-7.24l23.86-35.69,42.03-8.74c.22,1.16.42,2.33.58,3.48.22,1.71.32,3.47.32,5.25Z"/><rect class="cls-3_financial-statement-12" x="264.98" y="137.32" width="147.69" height="10.08" transform="translate(677.65 284.71) rotate(-180)"/><rect class="cls-3_financial-statement-12" x="264.98" y="159.34" width="147.69" height="10.08" transform="translate(677.65 328.77) rotate(-180)"/><rect class="cls-3_financial-statement-12" x="264.98" y="181.37" width="147.69" height="10.08" transform="translate(677.65 372.82) rotate(-180)"/><rect class="cls-3_financial-statement-12" x="264.98" y="203.4" width="84.81" height="10.08" transform="translate(614.78 416.88) rotate(-180)"/></g><g id="person_financial-statement-12"><path class="cls-10_financial-statement-12 targetColor" d="m116.57,313.79s10.86,22.62.93,50.32c-9.94,27.69,11.7,41.68-30.24,45.39-41.94,3.71,29.31-95.71,29.31-95.71Z" style="fill: rgb(104, 225, 253);"/><path class="cls-3_financial-statement-12" d="m116.57,313.79s10.86,22.62.93,50.32c-9.94,27.69,11.7,41.68-30.24,45.39-41.94,3.71,29.31-95.71,29.31-95.71Z"/><path class="cls-4_financial-statement-12" d="m88.15,255.08s3.33,6.21,4.09,10.96c.31,1.93-1.03,3.77-2.96,4.05-2.4.35-5.75.12-7.94-2.99l-4.36-4.82s-2.63-3.12-.11-7.31c2.52-4.19,9.44-3.77,11.28.11Z"/><polygon class="cls-4_financial-statement-12" points="80.22 263.17 74.69 285.59 87.26 287.75 86.26 271.01 80.22 263.17"/><path class="cls-4_financial-statement-12" d="m90.04,259.1l2.87,1.72c.71.42.74,1.44.05,1.9l-2.28,1.53-.65-5.15Z"/><path class="cls-7_financial-statement-12" d="m86.33,270.12s-4.61-.99-6.15-2.44c0,0,.44,10.5,6.59,11.87l-.44-9.43Z"/><path class="cls-4_financial-statement-12" d="m82.72,262.85s-1.12-2.47-2.91-1.47c-1.79,1-.2,4.58,2.49,3.82l.41-2.35Z"/><path class="cls-16_financial-statement-12" d="m73.51,261.71c.71.92,1.75,1.47,3.2,1.36,2.01-.14,2.89-1.67,4.18-2.93,1.29-1.26,2.85-2.06,3.66-3.83l2.39-1.98c2.3-1.91,2.38-5.43.14-7.41-1.26-1.12-2.84-1.97-4.67-1.88-3.78.19-7.47,4.02-9.14,7.13-1.19,2.22-1.61,7.14.24,9.55Z"/><path class="cls-4_financial-statement-12" d="m78.16,261.06s-3.78-1.22-4.42,1.71,3.56,4.17,5.72,1.99c0,0-1.37-1.49-1.3-3.7Z"/><rect class="cls-5_financial-statement-12" x="26.69" y="411.48" width="81.64" height="58.34" transform="translate(135.01 881.3) rotate(-180)"/><polygon class="cls-13_financial-statement-12" points="86.77 469.82 90.7 418.46 107.08 420.95 111.95 440.65 108.33 469.82 86.77 469.82"/><path class="cls-10_financial-statement-12 targetColor" d="m88.83,463.08s1.75,4.86,6.14,5.23,5.55,4.67,1.59,5.79c-3.95,1.12-14.14-3.96-14.14-3.96l.29-6.34,6.12-.72Z" style="fill: rgb(104, 225, 253);"/><path class="cls-10_financial-statement-12 targetColor" d="m88.33,287.5l-12.57-2.17s-41.81.06-49.13,14.38c-7.32,14.32-5.78,67.62,18.4,111.37l49.52,1.43s-2.75-32.13,6.48-49.63c9.23-17.5,37.91-54.68-12.7-75.38Z" style="fill: rgb(104, 225, 253);"/><path class="cls-12_financial-statement-12" d="m45.03,411.08l24.22-3.65c14.98-2.26,28.07,10.22,26.52,25.3l-3.16,30.77h-11.88s1.03-28.81,1.03-28.81c.25-6.87-5.84-12.27-12.62-11.17-10.31,1.66-23.08.94-24.1-12.43Z"/><path class="cls-10_financial-statement-12 targetColor" d="m113.48,463.08s1.75,4.86,6.14,5.23c4.39.37,5.55,4.67,1.59,5.79-3.95,1.12-14.14-3.96-14.14-3.96l.29-6.34,6.12-.72Z" style="fill: rgb(104, 225, 253);"/><path class="cls-13_financial-statement-12" d="m49.28,304.85s13.73,12.03,10.97,25.32c-.45,2.15-.91,4.74-1.37,7.59-3.64,22.3,2.92,45.07,17.8,62.08l8.65,9.89-40.29,1.35-3.45-6.75-18.81-31.26,26.51-68.22Z"/><path class="cls-12_financial-statement-12" d="m69.68,411.08l24.22-3.65c14.98-2.26,28.07,10.22,26.52,25.3l-3.16,30.77h-11.88s1.03-28.81,1.03-28.81c.25-6.87-5.84-12.27-12.62-11.17-10.31,1.66-23.08.94-24.1-12.43Z"/><path class="cls-10_financial-statement-12 targetColor" d="m25.93,301.03c-9.17,12.91-17.33,41.42-10.24,81.59,2.16,12.23,12.46,21.36,24.85,22.15l37.84,2.39v-12.34s-28.75-4.16-28.75-4.16c-6.69-.97-10.93-7.66-8.97-14.13,5.06-16.67,12.91-46.89,10.88-68.42-1.23-13.08-17.99-17.79-25.6-7.08Z" style="fill: rgb(104, 225, 253);"/><path class="cls-3_financial-statement-12" d="m25.93,301.03c-9.17,12.91-17.33,41.42-10.24,81.59,2.16,12.23,12.46,21.36,24.85,22.15l37.84,2.39v-12.34s-28.75-4.16-28.75-4.16c-6.69-.97-10.93-7.66-8.97-14.13,5.06-16.67,12.91-46.89,10.88-68.42-1.23-13.08-17.99-17.79-25.6-7.08Z"/><path class="cls-4_financial-statement-12" d="m78.37,397.81s15.36-.39,13.17,7.62c-2.19,8.01-13.17,1.73-13.17,1.73v-9.35Z"/><polygon class="cls-16_financial-statement-12" points="129.46 410.04 135.66 375 91.7 375 87.88 404.87 67.73 405.15 67.73 410.04 129.46 410.04"/><circle class="cls-1_financial-statement-12" cx="111.95" cy="391.8" r="4.4"/><path class="cls-10_financial-statement-12 targetColor" d="m64.97,285.85s-5.3-5.59,9.06-6.2,28.73,1.13,25.33,13.34c-3.4,12.21-34.39-7.14-34.39-7.14Z" style="fill: rgb(104, 225, 253);"/><path class="cls-3_financial-statement-12" d="m64.97,285.85s-5.3-5.59,9.06-6.2,28.73,1.13,25.33,13.34c-3.4,12.21-34.39-7.14-34.39-7.14Z"/></g><g id="connection_financial-statement-12"><rect class="cls-15_financial-statement-12" x="334.56" y="243.14" width="101.54" height="124.4"/><rect class="cls-12_financial-statement-12" x="344.72" y="246.07" width="138.67" height="107.49"/><rect class="cls-16_financial-statement-12" x="344.72" y="231.82" width="138.67" height="14.25"/><path class="cls-3_financial-statement-12" d="m455.35,298.1c0-8.48-2.53-16.55-7.32-23.47l.04-.03-1.21-1.58c-7.89-10.31-19.84-16.22-32.81-16.22-2.84,0-5.62.28-8.33.83-1.55.31-3.07.72-4.56,1.2-.37.12-.74.25-1.11.38-7.36,2.64-13.88,7.36-18.82,13.81l-1.21,1.58.04.03c-4.79,6.91-7.31,14.98-7.31,23.47s2.53,16.56,7.31,23.47l-.04.03,1.21,1.58c7.89,10.31,19.85,16.22,32.82,16.22,2.43,0,4.83-.21,7.17-.61.78-.14,1.55-.29,2.32-.47,1.15-.27,2.28-.59,3.4-.95.64-.21,1.28-.44,1.91-.68.25-.09.5-.19.74-.29,1.6-.65,3.15-1.39,4.65-2.23.1-.06.2-.11.3-.17,3.01-1.72,5.81-3.84,8.34-6.31.01-.01.02-.02.03-.03.45-.44.89-.89,1.32-1.36.92-.99,1.8-2.03,2.63-3.11l1.21-1.58-.04-.03c4.79-6.91,7.32-14.98,7.32-23.47Zm-12.87,24.38c-.41.48-.83.94-1.25,1.39-.05.05-.1.11-.15.16-.42.44-.84.86-1.28,1.27-.06.06-.13.12-.19.18-.43.41-.87.8-1.32,1.18-.07.06-.14.12-.21.18-.45.38-.91.75-1.37,1.1-.07.05-.14.11-.21.16-.47.35-.95.7-1.44,1.03-.06.04-.13.09-.19.13-.5.34-1.01.66-1.52.97-.05.03-.1.06-.15.09-.53.32-1.08.63-1.63.92-.02.01-.04.02-.06.03-.56.3-1.13.58-1.71.84-.02,0-.04.02-.06.03-.56.26-1.14.5-1.72.74-.05.02-.11.04-.16.06-.56.22-1.12.43-1.69.62-.07.03-.15.05-.22.08-.03,0-.06.02-.09.03,3.41-3.64,6.23-8.83,8.17-15.08,3.16,1.06,6.02,2.36,8.47,3.86,0,.01-.02.02-.03.03Zm-40.54,11.08c-.57-.19-1.13-.4-1.69-.62-.05-.02-.11-.04-.16-.07-.58-.23-1.15-.47-1.71-.73-.02,0-.04-.02-.06-.03-.58-.27-1.15-.55-1.71-.84-.02,0-.04-.02-.05-.03-.55-.29-1.09-.6-1.63-.92-.05-.03-.1-.06-.14-.08-.52-.31-1.02-.64-1.52-.97-.06-.04-.13-.08-.19-.13-.49-.33-.97-.68-1.44-1.03-.07-.05-.14-.1-.21-.16-.47-.36-.93-.73-1.38-1.11-.07-.06-.14-.11-.2-.17-.45-.38-.89-.78-1.33-1.19-.06-.06-.12-.11-.18-.17-.44-.42-.87-.84-1.29-1.28-.05-.05-.09-.1-.14-.15-.43-.45-.85-.92-1.26-1.4,0,0-.02-.02-.02-.03,2.45-1.5,5.31-2.8,8.48-3.86,1.94,6.25,4.76,11.44,8.17,15.07-.03,0-.06-.02-.09-.03-.07-.02-.15-.05-.22-.08Zm-16.31-59.84c.41-.48.83-.94,1.25-1.39.05-.05.1-.11.15-.16.42-.44.85-.86,1.28-1.28.06-.06.12-.12.19-.18.43-.41.87-.8,1.32-1.18.07-.06.14-.12.21-.18.45-.38.91-.75,1.38-1.1.07-.05.14-.11.21-.16.47-.36.95-.7,1.44-1.03.06-.04.13-.09.19-.13.5-.34,1.01-.66,1.52-.97.05-.03.1-.06.15-.09.53-.32,1.08-.63,1.63-.92.02-.01.04-.02.06-.03.56-.3,1.13-.58,1.7-.84.02,0,.04-.02.06-.03.56-.26,1.13-.5,1.71-.73.05-.02.11-.05.16-.07.56-.22,1.12-.43,1.69-.62.07-.03.15-.05.22-.08.03,0,.06-.02.09-.03-3.41,3.64-6.23,8.83-8.17,15.07-3.16-1.06-6.03-2.36-8.48-3.86,0-.01.02-.02.03-.03Zm40.55-11.08c.57.19,1.13.4,1.69.62.05.02.11.04.16.07.58.23,1.15.47,1.71.74.02,0,.04.02.06.03.57.27,1.14.55,1.7.84.02.01.04.02.06.03.55.29,1.09.6,1.62.92.05.03.1.06.15.09.51.31,1.02.63,1.52.97.07.04.13.09.2.13.49.33.97.68,1.44,1.03.07.05.14.11.21.16.47.36.92.72,1.37,1.1.07.06.14.12.21.18.45.38.89.78,1.32,1.18.06.06.13.12.19.18.43.41.86.84,1.28,1.27.05.05.1.11.15.16.43.45.85.91,1.25,1.39,0,.01.02.02.03.03-2.45,1.5-5.31,2.8-8.47,3.86-1.94-6.25-4.76-11.44-8.17-15.08.03,0,.06.02.09.03.07.02.15.05.22.08Zm10.76,33.53c-.13-5.3-.79-10.3-1.89-14.86,3.66-1.21,6.99-2.73,9.81-4.5,3.98,5.74,6.24,12.37,6.59,19.36h-14.51Zm-20.96-35.33c5.97,1.24,11.22,8.16,14.29,17.86-4.51,1.15-9.31,1.8-14.29,1.93v-19.79Zm-3.85,0v19.79c-4.98-.13-9.77-.78-14.29-1.93,3.07-9.71,8.32-16.62,14.29-17.86Zm-15.32,21.57c4.84,1.24,9.98,1.93,15.32,2.07v11.68h-17.11c.13-4.86.77-9.51,1.79-13.75Zm15.32,17.6v11.68c-5.33.13-10.47.83-15.32,2.07-1.03-4.24-1.66-8.89-1.79-13.75h17.11Zm0,15.53v19.79c-5.97-1.24-11.22-8.16-14.29-17.86,4.51-1.15,9.31-1.8,14.29-1.93Zm3.85,0c4.98.13,9.77.78,14.29,1.93-3.07,9.71-8.32,16.62-14.29,17.86v-19.79Zm15.32-1.78c-4.84-1.24-9.98-1.94-15.32-2.07v-11.68h17.11c-.13,4.86-.77,9.51-1.79,13.75Zm-15.32-17.6v-11.68c5.33-.13,10.47-.83,15.32-2.07,1.03,4.24,1.66,8.89,1.79,13.75h-17.11Zm-22.92-14.86c-1.1,4.56-1.76,9.56-1.88,14.86h-14.51c.35-6.99,2.6-13.62,6.58-19.36,2.82,1.77,6.15,3.29,9.81,4.5Zm-1.88,18.71c.13,5.3.79,10.3,1.88,14.86-3.66,1.21-6.99,2.73-9.81,4.5-3.98-5.74-6.23-12.37-6.58-19.36h14.51Zm43.88,14.86c1.1-4.56,1.76-9.56,1.88-14.86h14.51c-.35,6.99-2.6,13.62-6.59,19.36-2.82-1.77-6.15-3.29-9.81-4.5Z"/><path class="cls-8_financial-statement-12 targetColor" d="m457.16,216.55s-12.04-3.29-14.66-14.49c0,0,18.65-3.77,19.19,15.48l-4.53-.99Z" style="fill: rgb(104, 225, 253);"/><path class="cls-9_financial-statement-12 targetColor" d="m458.64,215.36s-8.41-13.3-1.01-25.73c0,0,14.18,9.01,7.88,25.76l-6.87-.03Z" style="fill: rgb(104, 225, 253);"/><path class="cls-10_financial-statement-12 targetColor" d="m460.81,215.37s4.44-14.04,17.88-16.7c0,0,2.52,9.12-8.7,16.74l-9.18-.04Z" style="fill: rgb(104, 225, 253);"/><polygon class="cls-12_financial-statement-12" points="452.08 215.05 454.51 231.75 469.89 231.82 472.15 215.14 452.08 215.05"/></g></svg>