<svg version="1.1" id="Layer_1" xmlns="http://www.w3.org/2000/svg" xmlns:xlink="http://www.w3.org/1999/xlink" x="0px" y="0px" viewBox="0 0 500 500" style="width: 188px;" xml:space="preserve" data-imageid="target-audience-13" imageName="Target Audience" class="illustrations_image">
<style type="text/css">
	.st0_target-audience-13{fill:#FF9F9F;}
	.st1_target-audience-13{fill:url(#SVGID_1_);}
	.st2_target-audience-13{fill:url(#SVGID_00000174581345669757643690000007753912410324700818_);}
	.st3_target-audience-13{fill:url(#SVGID_00000111886922252125103130000009464436328960164268_);}
	.st4_target-audience-13{fill:#F24C4C;}
	.st5_target-audience-13{fill:#FFFFFF;}
	.st6_target-audience-13{fill:#124577;}
	.st7_target-audience-13{fill:#68E1FD;}
	.st8_target-audience-13{fill:#42210B;}
	.st9_target-audience-13{fill:#27D9D3;}
	.st10_target-audience-13{fill:#EF7F6C;}
	.st11_target-audience-13{opacity:0.1;fill:#124577;enable-background:new    ;}
	.st12_target-audience-13{opacity:0.44;fill:#124577;enable-background:new    ;}
	.st13_target-audience-13{fill:#EDB033;}
	.st14_target-audience-13{fill:#F7931E;}
	.st15_target-audience-13{opacity:0.3;fill:#124577;enable-background:new    ;}
	.st16_target-audience-13{opacity:0.2;fill:#124577;enable-background:new    ;}
	.st17_target-audience-13{opacity:0.27;}
</style>
<g id="background_target-audience-13">
	<path class="st0_target-audience-13" d="M246.5,389.6L29.2,261.2c-6.9-3.9-12.9-10.3-6.1-14.4l218.1-125.7c3.3-2,8.2-3.4,11.6-1.4L480.8,252&#xA;&#9;&#9;c6.9,4,8.2,15.2,1.2,19.2L275.1,389.4C266.3,394.5,255.4,394.6,246.5,389.6z"/>
	
		<linearGradient id="SVGID_1_-target-audience-13" gradientUnits="userSpaceOnUse" x1="360.392" y1="258.2175" x2="296.132" y2="205.9175" gradientTransform="matrix(1 0 0 -1 0 502)">
		<stop offset="0" style="stop-color:#124577"/>
		<stop offset="1" style="stop-color:#FF9F9F;stop-opacity:0"/>
	</linearGradient>
	<path class="st1_target-audience-13" d="M279.5,244.8l-22.9,23c0,0,64.6,49.3,76.7,54.4l42.1-25.8"/>
	
		<linearGradient id="SVGID_00000158026813888156008060000002336937182463527089_-target-audience-13" gradientUnits="userSpaceOnUse" x1="124.2909" y1="272.519" x2="75.2709" y2="232.6189" gradientTransform="matrix(1 0 0 -1 0 502)">
		<stop offset="0" style="stop-color:#124577"/>
		<stop offset="1" style="stop-color:#FF9F9F;stop-opacity:0"/>
	</linearGradient>
	<path style="fill:url(#SVGID_00000158026813888156008060000002336937182463527089_);" d="M95.3,241.9l-38.9,19.8&#xA;&#9;&#9;c0,0,12.2,12.8,24.3,17.9l42.1-25.8"/>
	
		<linearGradient id="SVGID_00000075162437487367912700000013048089510507133335_-target-audience-13" gradientUnits="userSpaceOnUse" x1="292.8857" y1="203.9607" x2="243.8657" y2="164.0607" gradientTransform="matrix(1 0 0 -1 0 502)">
		<stop offset="0" style="stop-color:#124577"/>
		<stop offset="1" style="stop-color:#FF9F9F;stop-opacity:0"/>
	</linearGradient>
	<path style="fill:url(#SVGID_00000075162437487367912700000013048089510507133335_);" d="M259.4,311.6L225,330.2&#xA;&#9;&#9;c0,0,12.2,12.8,24.3,17.9l42.1-25.8"/>
</g>
<g id="like_target-audience-13">
	<path class="st4_target-audience-13" d="M290.7,216.2l-28.4-16.4c-2.1-1.2-4.7-0.5-5.9,1.6c-0.4,0.7-0.6,1.4-0.6,2.2V222c0,1.5,0.8,2.9,2.1,3.7&#xA;&#9;&#9;l28.4,16.8c2,1.2,4.7,0.5,5.9-1.5c0.4-0.7,0.6-1.4,0.6-2.2V220C292.9,218.5,292.1,217,290.7,216.2z"/>
	<polyline class="st4_target-audience-13" points="276.5,235.7 271.4,241.9 267.2,230.1 &#9;"/>
	<path class="st5_target-audience-13" d="M283.3,226.6c0.3-0.3,0.5-0.8,0.5-1.2c0-0.7-0.4-1.4-1-1.8c0.3-0.7,0.2-1.4-0.4-1.9c-1.3-1-2.7-1.8-4.3-2.3&#xA;&#9;&#9;c-0.1-0.1-0.2-0.2-0.3-0.3c0.5-1.9,0.7-3.8,0.7-5.7c0.1-1.4-0.9-2.5-2.3-2.6c-0.1,0-0.2,0-0.2,0c0,0-0.5,4.2-1.4,5.6&#xA;&#9;&#9;c-0.5,1-1.7,1.5-2.8,1.2c-0.6-0.2-5-2.3-6.8-3.1v8.4l7.8,4.3c0.1,1.4,4,2.8,6.3,3.4c0.1,0.2,0.3,0.3,0.5,0.4&#xA;&#9;&#9;c0.8,0.3,1.6,0.3,2.5,0.1c0.6-0.2,0.9-0.8,0.9-1.4c0.4-0.2,0.8-0.5,0.9-1C284.1,228,283.9,227.1,283.3,226.6z"/>
	<polygon class="st6_target-audience-13" points="264.7,213.5 269.2,215.6 269.2,226.2 264.7,223.7 &#9;"/>
</g>
<g id="love_2_target-audience-13">
	<path class="st4_target-audience-13" d="M217.8,124.4L189.4,108c-2.1-1.2-4.7-0.5-5.9,1.6c-0.4,0.7-0.6,1.4-0.6,2.1v18.5c0,1.5,0.8,2.9,2.1,3.7&#xA;&#9;&#9;l28.4,16.8c2,1.2,4.7,0.5,5.9-1.5c0.4-0.6,0.6-1.4,0.6-2.1v-18.8C220,126.6,219.2,125.2,217.8,124.4z"/>
	<polyline class="st4_target-audience-13" points="203.6,143.9 198.5,150.1 194.3,138.2 &#9;"/>
	<path class="st5_target-audience-13" d="M201.3,128c0,0,3.5-5.6,6.9-1.4c2,2.4-1.6,9.9-6.7,10.6c-4.6,0.7-11.2-15.2-4.7-15.4&#xA;&#9;&#9;C201.1,121.8,201.3,128,201.3,128z"/>
</g>
<g id="love_1_target-audience-13">
	<path class="st4_target-audience-13" d="M266.8,99.7l-28.4-16.4c-2.1-1.2-4.7-0.5-5.9,1.6c-0.4,0.7-0.6,1.4-0.6,2.2v18.5c0,1.5,0.8,2.9,2.1,3.7&#xA;&#9;&#9;l28.4,16.7c2,1.2,4.7,0.5,5.9-1.5c0.4-0.7,0.6-1.4,0.6-2.2v-18.8C269,101.9,268.2,100.4,266.8,99.7z"/>
	<polyline class="st4_target-audience-13" points="252.6,119.1 247.5,125.3 243.2,113.5 &#9;"/>
	<path class="st5_target-audience-13" d="M250.3,103.2c0,0,3.5-5.6,6.9-1.4c2,2.4-1.6,9.9-6.7,10.7c-4.6,0.7-11.2-15.2-4.7-15.4&#xA;&#9;&#9;C250.1,97,250.3,103.2,250.3,103.2z"/>
</g>
<g id="plant_target-audience-13">
	<ellipse class="st7_target-audience-13 targetColor" cx="110.1" cy="244.6" rx="19.5" ry="13.7" style="fill: rgb(104, 225, 253);"/>
	<ellipse class="st8_target-audience-13" cx="110.1" cy="236.4" rx="14.6" ry="6"/>
	<path class="st9_target-audience-13" d="M111.1,236.6c1.2-1.6,2.3-3.3,3.5-5.2c1.6-2.4,3-4.9,4.3-7.4c1.2-2.3,2.3-4.6,3.2-7.1c1-2.6,1.7-5.3,2.3-8.1&#xA;&#9;&#9;c0.2-0.7,0.3-1.4,0.4-2.2c0.1-0.3,0.1-0.3,0.1-0.2s0-0.2,0-0.6c0.1-1.5,0.2-2.9,0.2-4.4c0.1-5.1-0.9-10.2-2.9-14.9&#xA;&#9;&#9;c-5.3,7.6-8.8,16.3-10.4,25.5c-0.1,0.5-0.2,1.1-0.3,1.6c0,0-0.2,1-0.2,1.4s-0.2,1.3-0.2,1.4c-0.1,0.7-0.1,1.4-0.2,2.1&#xA;&#9;&#9;c-0.2,2.7-0.3,5.4-0.3,8.1C110.6,229.9,110.8,233.2,111.1,236.6z"/>
	<path class="st9_target-audience-13" d="M111.4,236.8c0.1-2,0.1-4,0.1-6.3c0-2.9-0.1-5.7-0.4-8.6c-0.2-2.6-0.6-5.1-1.2-7.6c-0.6-2.7-1.4-5.4-2.4-8.1&#xA;&#9;&#9;c-0.3-0.7-0.6-1.3-0.8-2c-0.1-0.3-0.1-0.3-0.1-0.2l-0.3-0.6c-0.7-1.3-1.4-2.6-2.2-3.9c-2.7-4.4-6.3-8.1-10.5-11&#xA;&#9;&#9;c-0.3,9.3,1.4,18.5,5,27.1c0.2,0.5,0.4,1,0.7,1.5l0.6,1.3l0.6,1.2c0.3,0.6,0.6,1.2,1,1.9c1.3,2.4,2.7,4.7,4.1,7&#xA;&#9;&#9;C107.4,231.4,109.4,234.1,111.4,236.8z"/>
	<path class="st9_target-audience-13" d="M111.5,237.9c-0.6-1.1-1.2-2.2-2-3.4c-0.9-1.5-1.9-3.1-3-4.5c-0.9-1.3-2-2.6-3.1-3.8c-1.2-1.3-2.5-2.5-3.9-3.6&#xA;&#9;&#9;c-0.4-0.3-0.7-0.6-1.1-0.8c-0.2-0.1-0.1-0.1-0.1-0.1l-0.3-0.2c-0.8-0.5-1.6-1-2.4-1.4c-2.9-1.5-6-2.3-9.2-2.5&#xA;&#9;&#9;c2.8,5.1,6.7,9.5,11.4,13l0.8,0.6c0,0,0.5,0.4,0.7,0.5l0.7,0.5l1.1,0.7c1.5,0.9,2.9,1.7,4.5,2.4&#xA;&#9;&#9;C107.6,236.2,109.5,237.1,111.5,237.9z"/>
</g>
<g id="phone_target-audience-13">
	<polyline class="st10_target-audience-13" points="294.9,59.8 286.8,63.3 294.5,66.8 296.4,62.8 &#9;"/>
	<path class="st10_target-audience-13" d="M368.3,296.6l-67-39c-5.5-3.2-8.9-9.1-8.9-15.4l-2.2-177.3c0-4.7,7.2-7,11.2-4.7l69.3,40.9&#xA;&#9;&#9;c3.5,2.1,5.6,5.8,5.6,9.9V292c0,3-2.5,5.4-5.5,5.4C370.1,297.4,369.1,297.1,368.3,296.6z"/>
	<polyline class="st10_target-audience-13" points="373.7,296.7 364.9,301.3 366,295.2 372,294.1 &#9;"/>
	<path class="st5_target-audience-13" d="M359.9,301.1l-67-39c-5.5-3.2-8.9-9.1-8.9-15.4v-179c0-2.6,2.1-4.7,4.8-4.7c0.8,0,1.7,0.2,2.4,0.7l71.2,42.1&#xA;&#9;&#9;c3.5,2.1,5.6,5.8,5.6,9.9v180.9c0,3-2.4,5.4-5.4,5.4C361.7,301.8,360.7,301.6,359.9,301.1z"/>
	<path class="st11_target-audience-13" d="M359.9,301.1l-67-39c-5.5-3.2-8.9-9.1-8.9-15.4v-179c0-2.6,2.1-4.7,4.8-4.7c0.8,0,1.7,0.2,2.4,0.7l71.2,42.1&#xA;&#9;&#9;c3.5,2.1,5.6,5.8,5.6,9.9v180.9c0,3-2.4,5.4-5.4,5.4C361.7,301.8,360.7,301.6,359.9,301.1z"/>
	<polygon class="st7_target-audience-13 targetColor" points="363.8,126.4 287.5,82.7 287.5,239.2 363.8,283.4 &#9;" style="fill: rgb(104, 225, 253);"/>
	
		<ellipse transform="matrix(0.9727 -0.2323 0.2323 0.9727 -53.485 81.3181)" class="st12_target-audience-13" cx="318.6" cy="267.8" rx="3.5" ry="4.8"/>
	<path class="st12_target-audience-13" d="M315.7,90.2L315.7,90.2c0,0.6,0.3,1.2,0.9,1.5l14.7,8.5c0.8,0.5,1.9,0.2,2.3-0.6c0.1-0.3,0.2-0.5,0.2-0.8&#xA;&#9;&#9;v-0.4c0-0.6-0.3-1.2-0.9-1.5l-14.7-8.1c-0.8-0.5-1.9-0.2-2.3,0.7C315.8,89.6,315.7,89.9,315.7,90.2z"/>
	
		<ellipse transform="matrix(0.9378 -0.3471 0.3471 0.9378 -10.5271 112.5606)" class="st12_target-audience-13" cx="308.9" cy="85.7" rx="1.7" ry="2.3"/>
</g>
<g id="image_target-audience-13">
	<path class="st13_target-audience-13" d="M401.2,173.6v58.5c0,1.8-1.5,3.3-3.3,3.3c-0.6,0-1.1-0.1-1.6-0.4L315,188.1c-1-0.6-1.6-1.7-1.6-2.8v-59.2&#xA;&#9;&#9;c0-1.8,1.5-3.3,3.3-3.3c0.6,0,1.1,0.1,1.6,0.4l80.8,46.5C400.4,170.5,401.3,172,401.2,173.6z"/>
	<polygon class="st5_target-audience-13" points="389.8,172.9 389.8,224.2 322.1,185.3 322.1,133.9 &#9;"/>
	<path class="st9_target-audience-13" d="M389.8,224.2l-16.2-35.8c-1.7-3.7-6-5.3-9.7-3.7l-8,3.5l-15.5-26.1c-1.4-2.4-4.5-3.2-7-1.8&#xA;&#9;&#9;c-0.2,0.1-0.3,0.2-0.4,0.3l-10.9,8.2v16.4L389.8,224.2z"/>
</g>
<g id="character_target-audience-13">
	<path class="st14_target-audience-13" d="M283.6,305.7c0,0,0.9,5.7,0.7,7.4s-4,6.7-5.8,7.4s-4,1.2-2.9,3.9s11.5-1.8,12.4-2.5s1.8-7.4,2.1-7.1&#xA;&#9;&#9;s0.2,7.6,1.2,7.4s0-18.3,0-18.3"/>
	<path class="st14_target-audience-13" d="M262.7,298.5c0,0,0,5.8-0.4,7.5s-5,6-6.9,6.4s-4.1,0.6-3.5,3.4s11.7,0,12.6-0.6s2.9-7,3.2-6.7s-1,7.5,0,7.5&#xA;&#9;&#9;s2.9-18.1,2.9-18.1"/>
	<path class="st15_target-audience-13" d="M283.6,305.7c0,0,0.9,5.7,0.7,7.4s-4,6.7-5.8,7.4s-4,1.2-2.9,3.9s11.5-1.8,12.4-2.5s1.8-7.4,2.1-7.1&#xA;&#9;&#9;s0.2,7.6,1.2,7.4s0-18.3,0-18.3"/>
	<path class="st15_target-audience-13" d="M262.7,298.5c0,0,0,5.8-0.4,7.5s-5,6-6.9,6.4s-4.1,0.6-3.5,3.4s11.7,0,12.6-0.6s2.9-7,3.2-6.7s-1,7.5,0,7.5&#xA;&#9;&#9;s2.9-18.1,2.9-18.1"/>
	<path class="st15_target-audience-13" d="M284.1,308.8l0.3,4.4c0,0,4.4-0.3,7.2-2.9v-2.1"/>
	<path class="st15_target-audience-13" d="M262.6,300.9l-0.2,4.4c0,0,4.4,0.2,7.5-2.1l0.2-2.1"/>
	<path class="st14_target-audience-13" d="M237,167.2c0,0-7.4-9.5-9.2-9.4s-1.1,1.9-1.1,1.9s-4.8-3.7-7.4-1.1c0,0-2.4-1.2-3,0c-0.3,0.8-0.1,1.6,0.4,2.2&#xA;&#9;&#9;c0,0-1.4,1.2-0.9,2c0.3,0.5,0.8,0.8,1.3,0.8c0,0-0.9,0.5-0.6,1.2s8.4,7.2,20,7.5"/>
	<path class="st8_target-audience-13" d="M229.3,168.6h-0.1c-0.3-0.4-0.5-0.8-0.6-1.3c-0.2-0.5-0.3-1-0.3-1.5c-0.1-1,0.1-2.1,0.5-3c0-0.1,0-0.2,0-0.2&#xA;&#9;&#9;c-0.9-1.1-1.7-2.2-2.3-3.5c-0.1-0.2-0.4,0-0.3,0.2c0.5,1,1.1,1.9,1.8,2.8c0.4,0.5,0.5,0.6,0.3,1.2c-0.1,0.4-0.2,0.9-0.3,1.3&#xA;&#9;&#9;c-0.1,1,0,2,0.4,2.9c0.1,0.4,0.4,1.4,0.9,1.5c0.1,0,0.2,0,0.2-0.1v-0.1C229.5,168.8,229.4,168.7,229.3,168.6&#xA;&#9;&#9;C229.3,168.6,229.3,168.6,229.3,168.6z"/>
	<path class="st8_target-audience-13" d="M226.3,161.4l-7-3.1c-0.2-0.1-0.4,0.2-0.2,0.3l7,3.1C226.3,161.9,226.5,161.5,226.3,161.4z"/>
	<path class="st8_target-audience-13" d="M224.9,163.2c-2.9-0.3-5.6-1.2-8.1-2.6c-0.2-0.1-0.4,0.2-0.2,0.3c2.6,1.4,5.4,2.3,8.3,2.6&#xA;&#9;&#9;C225.1,163.6,225.1,163.2,224.9,163.2z"/>
	<path class="st8_target-audience-13" d="M224.3,165.3c-2.6-0.4-5.2-1-7.7-2c-0.2-0.1-0.3,0.3-0.1,0.4c2.5,1,5.1,1.6,7.7,2&#xA;&#9;&#9;C224.4,165.7,224.5,165.4,224.3,165.3z"/>
	<path class="st8_target-audience-13" d="M263.7,202.2c0,0-10.3,59-10.1,96.3c0,0,13.3,6.5,21.2,2.3c0,0,3-88.4,6.7-94.6"/>
	<path class="st8_target-audience-13" d="M273.1,205.6c0,0,2.7,80.1,3.2,101.9c0,0,18,4.3,20-0.6S289.4,204,289.4,204"/>
	<path class="st8_target-audience-13" d="M295.8,307.5c5.2-11,4.1-29,2.5-38s-0.5-18-0.3-32.6s-6.9-30.3-6.9-30.3l-5.2,0.9"/>
	<path class="st10_target-audience-13" d="M276.1,208.1c5.1,1.3,10.8,2.4,15.6-0.4c7.9-33.3,2.1-43.7-11.5-47.6c-5.4-1.6-11,1.3-13.7,5.7&#xA;&#9;&#9;c-1.5,12.9-2.8,24.8-2.9,37.6c0,0.6,4.6,2.3,5.2,2.5c1.9,0.7,3.7,1.3,5.7,1.8L276.1,208.1z"/>
	<path class="st10_target-audience-13" d="M268.1,163.6c0,0-10.2,14.4-30.9,0.2c0,0-7.1,8.6-6,10s23.4,18.3,34,9.1"/>
	<path class="st5_target-audience-13" d="M276.3,226c0-0.5-0.8-0.5-0.8,0c-0.7,27.5-0.5,54.9,0.6,82.4c0,0.5,0.9,0.5,0.8,0&#xA;&#9;&#9;C275.8,280.9,275.6,253.5,276.3,226z"/>
	<path class="st10_target-audience-13" d="M267.6,185.1c-0.6-0.2-9.9-2.6-9.9-2.6l-1.1,12.5l12.2,4.4"/>
	<path class="st16_target-audience-13" d="M274.1,160.7L274.1,160.7c0,0-0.8,7.1,4.6,5c2.3-0.9,4.5-2,6.6-3.2v-4.3"/>
	<path class="st14_target-audience-13" d="M270.7,145.7c0,0-2.6,14.2,3.4,16.5s11.5-8.5,11.5-11.8C285.5,143.6,278.7,144.1,270.7,145.7z"/>
	<path class="st8_target-audience-13" d="M304.9,182c-0.1-0.9-0.5-1.8-1.1-2.4c-1.2-1.4-3.2-2-4.2-3.6c-1.7-2.6,1.1-4.9,1.3-7.4&#xA;&#9;&#9;c0.4-4.7-5.7-5.2-8.3-7.6c-1.3-1.3-2.1-2.9-2.4-4.7c-1.5-5.4-1.8-12.1-7.1-15.4c-1.7-0.9-3.6-1.4-5.5-1.5c-2.2-0.1-4.7,0.1-6.6,1.4&#xA;&#9;&#9;c-1.7,1.2-2.8,3.1-3,5.2c-0.1,1.5,0.4,3.8,2.2,4c1.2,0.1,1.8-0.8,2.5-1.5s1.3-1.9,2.2-2.7c0.5-0.5,1.2-0.9,2-1.1&#xA;&#9;&#9;c3-0.5,0.3,4.9,0.2,6.1c0,0.6,0.1,1.2,0.5,1.8c0.5,0.5,1.1,0.9,1.8,1c1.4,0.4,3.9,1.1,3.1,3.2c-0.5,1.1-1.6,2-2.2,3.1&#xA;&#9;&#9;c-1.4,2.2-1.3,5.1,0.2,7.2c0.8,1,1.8,1.8,2.9,2.6c1.2,0.8,1.9,2,2.1,3.4v0.2c-0.3,2.2-1.2,5-1.1,7.4c0,0.9,0.2,1.8,0.6,2.5&#xA;&#9;&#9;c0.5,0.9,1.1,1.7,1.8,2.3c3.2,2.7,7.6,3.6,11.6,2.4c2-0.6,4.3-1.3,5.6-3C304.7,184.2,305,183.1,304.9,182z M300.1,168.6&#xA;&#9;&#9;c0-0.3,0-0.6,0-0.9c0-0.2-0.1-0.5-0.1-0.7C300.1,167.6,300.2,168.1,300.1,168.6L300.1,168.6z"/>
	<path class="st8_target-audience-13" d="M270.6,156.6c-1.6,0.2-3.1-1-3.3-2.6s1-3.1,2.6-3.3c1.6-0.2,3.1,1,3.3,2.6c0,0.1,0,0.2,0,0.3&#xA;&#9;&#9;C273.4,155.1,272.2,156.4,270.6,156.6C270.6,156.5,270.6,156.5,270.6,156.6z M270.6,151.9c-1-0.2-1.9,0.4-2.1,1.3&#xA;&#9;&#9;c-0.2,1,0.4,1.9,1.3,2.1c1,0.2,1.9-0.4,2.1-1.3c0-0.1,0-0.3,0-0.4C272.1,152.7,271.5,152,270.6,151.9z"/>
	<path class="st8_target-audience-13" d="M276.5,157c-1.6,0.2-3.1-1-3.3-2.6c-0.2-1.6,1-3.1,2.6-3.3s3.1,1,3.3,2.6c0,0.1,0,0.3,0,0.4&#xA;&#9;&#9;C279.2,155.6,278,156.9,276.5,157z M276.5,152.3c-1-0.2-1.9,0.4-2.1,1.4c-0.2,1,0.4,1.9,1.4,2.1c1,0.2,1.9-0.4,2.1-1.4&#xA;&#9;&#9;c0-0.1,0-0.2,0-0.3C278,153.2,277.4,152.4,276.5,152.3z"/>
	<path class="st8_target-audience-13" d="M274.6,153.4c0-0.2-0.3-0.3-0.5-0.3c-0.1-0.1-0.3-0.1-0.4-0.1l0.1-0.6c0-0.2-0.3-0.3-0.4-0.1l-0.1,0.7h0&#xA;&#9;&#9;c-0.2,0.1-1,0.5-0.7,0.8c0.1,0.1,0.2,0.1,0.3,0c0,0,0.1-0.1,0-0.2c0.1-0.1,0.2-0.2,0.3-0.3c-0.1,0.3-0.1,0.6-0.2,0.8&#xA;&#9;&#9;c-0.2,0.7-0.7,1.4-0.8,2.1c-0.1,0.5,0.3,0.7,0.8,0.9c0.1,0,0.2,0,0.2-0.1s0-0.2-0.1-0.2c-0.6-0.1-0.5-0.5-0.3-1s0.3-0.7,0.4-1.1&#xA;&#9;&#9;s0.3-1,0.4-1.5c0.1,0,0.2,0,0.3,0c0.1,0,0.2,0.1,0.3,0.1c0,0.1,0.1,0.2,0.2,0.2c0,0,0,0,0.1,0l0,0&#xA;&#9;&#9;C274.5,153.6,274.6,153.5,274.6,153.4z"/>
	<path class="st8_target-audience-13" d="M276.8,157.6c-0.6,0.6-1.4,1-2.2,0.9c-0.2,0-0.2,0.4,0,0.4c0.9,0,1.8-0.3,2.5-1&#xA;&#9;&#9;C277.2,157.7,276.9,157.4,276.8,157.6z"/>
	<path class="st8_target-audience-13" d="M263.7,197.3c0,0,21.3,7.4,30.7-2.8l-1.5,8.4C282.8,206.5,271.6,204.4,263.7,197.3z"/>
	<path class="st8_target-audience-13" d="M280.8,182.3c-2.9,2.3-7,2.1-10.5,2.1c-3.9-0.1-7.8-0.5-11.5-1.4c-0.8-0.2-1.1,1-0.3,1.2&#xA;&#9;&#9;c4.4,1,8.9,1.5,13.5,1.5c3.5-0.1,7-0.2,9.9-2.5C282.3,182.7,281.4,181.8,280.8,182.3z"/>
	<path class="st8_target-audience-13" d="M264.9,174.1l-0.6,9.9c-0.1,0.8,1.2,0.8,1.2,0c0.2-3.3,0.4-6.6,0.6-9.9C266.2,173.3,265,173.3,264.9,174.1z"/>
	<path class="st7_target-audience-13 targetColor" d="M267,184.2c-4.8-20.2-21.1-34-37.6-32.4l0,0H229h-0.2c-4.8,0.5-9.5,1.3-14.1,2.4l5.5,0.1&#xA;&#9;&#9;c-14.3,6.8-21.9,25.7-17.3,45.1c4.2,17.8,17.5,30.6,31.8,32.4l-3.7,1.8c0,0,10.5-1.3,14.2-2.6h0.1C262.3,226.3,272,205.6,267,184.2&#xA;&#9;&#9;z" style="fill: rgb(104, 225, 253);"/>
	<path class="st12_target-audience-13" d="M267,184.2c-4.8-20.2-21.1-34-37.6-32.4l0,0H229h-0.2c-4.8,0.5-9.5,1.3-14.1,2.4l5.5,0.1&#xA;&#9;&#9;c-14.3,6.8-21.9,25.7-17.3,45.1c4.2,17.8,17.5,30.6,31.8,32.4l-3.7,1.8c0,0,10.5-1.3,14.2-2.6h0.1C262.3,226.3,272,205.6,267,184.2&#xA;&#9;&#9;z"/>
	<ellipse transform="matrix(0.9729 -0.2311 0.2311 0.9729 -38.6924 56.9962)" class="st7_target-audience-13 targetColor" cx="224" cy="193.7" rx="33" ry="40.6" style="fill: rgb(104, 225, 253);"/>
	<path class="st7_target-audience-13 targetColor" d="M228.9,225.9l-0.4,0.1c-7.1,1.1-14.2-1.4-20.1-6.9c-6-5.8-9.8-13.4-10.9-21.6c-2.7-17.9,6.8-34.2,21.1-36.4&#xA;&#9;&#9;c7.1-1.1,14.2,1.4,20.1,6.9c6,5.8,9.8,13.4,10.9,21.6C252.3,207.3,243,223.5,228.9,225.9z M219,165.4c-11.8,2-19.5,16-17.2,31.4&#xA;&#9;&#9;c1,7.3,4.4,14,9.6,19.1c4.9,4.6,10.7,6.6,16.5,5.8l0.3-0.1c11.8-2,19.5-16,17.2-31.4l0,0c-1-7.3-4.4-14-9.6-19.1&#xA;&#9;&#9;c-4.9-4.6-10.8-6.6-16.5-5.8L219,165.4z" style="fill: rgb(104, 225, 253);"/>
	<path class="st7_target-audience-13 targetColor" d="M226.9,211.9h-0.2c-8.5,1.3-16.7-6.2-18.2-16.6c-0.8-4.7,0-9.6,2.3-13.9c2.1-3.9,5.8-6.6,10.2-7.4&#xA;&#9;&#9;c8.5-1.3,16.7,6.1,18.3,16.6c0.8,4.7,0,9.6-2.3,13.9C234.9,208.4,231.2,211.1,226.9,211.9z M221.4,178.4c-3,0.6-5.5,2.5-6.9,5.2&#xA;&#9;&#9;c-1.8,3.4-2.5,7.3-1.8,11.1c1.2,8.1,7.2,13.9,13.4,13c3-0.6,5.7-2.5,7.1-5.3c1.8-3.4,2.5-7.3,1.9-11.1c-1.2-8.1-7.2-13.9-13.4-13&#xA;&#9;&#9;L221.4,178.4z" style="fill: rgb(104, 225, 253);"/>
	<ellipse transform="matrix(0.9887 -0.1498 0.1498 0.9887 -26.4867 35.7751)" class="st7_target-audience-13 targetColor" cx="224.2" cy="193.7" rx="4.7" ry="6" style="fill: rgb(104, 225, 253);"/>
	<g class="st17_target-audience-13">
		<path class="st6_target-audience-13" d="M228.9,225.9l-0.4,0.1c-7.1,1.1-14.2-1.4-20.1-6.9c-6-5.8-9.8-13.4-10.9-21.6c-2.7-17.9,6.8-34.2,21.1-36.4&#xA;&#9;&#9;&#9;c7.1-1.1,14.2,1.4,20.1,6.9c6,5.8,9.8,13.4,10.9,21.6C252.3,207.3,243,223.5,228.9,225.9z M219,165.4c-11.8,2-19.5,16-17.2,31.4&#xA;&#9;&#9;&#9;c1,7.3,4.4,14,9.6,19.1c4.9,4.6,10.7,6.6,16.5,5.8l0.3-0.1c11.8-2,19.5-16,17.2-31.4l0,0c-1-7.3-4.4-14-9.6-19.1&#xA;&#9;&#9;&#9;c-4.9-4.6-10.8-6.6-16.5-5.8L219,165.4z"/>
		<path class="st6_target-audience-13" d="M226.9,211.9h-0.2c-8.5,1.3-16.7-6.2-18.2-16.6c-0.8-4.7,0-9.6,2.3-13.9c2.1-3.9,5.8-6.6,10.2-7.4&#xA;&#9;&#9;&#9;c8.5-1.3,16.7,6.1,18.3,16.6c0.8,4.7,0,9.6-2.3,13.9C234.9,208.4,231.2,211.1,226.9,211.9z M221.4,178.4c-3,0.6-5.5,2.5-6.9,5.2&#xA;&#9;&#9;&#9;c-1.8,3.4-2.5,7.3-1.8,11.1c1.2,8.1,7.2,13.9,13.4,13c3-0.6,5.7-2.5,7.1-5.3c1.8-3.4,2.5-7.3,1.9-11.1c-1.2-8.1-7.2-13.9-13.4-13&#xA;&#9;&#9;&#9;L221.4,178.4z"/>
		<ellipse transform="matrix(0.9887 -0.1498 0.1498 0.9887 -26.4867 35.7751)" class="st6_target-audience-13" cx="224.2" cy="193.7" rx="4.7" ry="6"/>
	</g>
	<path class="st14_target-audience-13" d="M267.9,189.3c0,0-2.9-2.2-3.4-2.4s1.1-6-2.9-7.1l0.8,4c0,0-7.6-0.8-9.1-0.2s-0.8,2.8-0.8,2.8&#xA;&#9;&#9;s-2.3,0.1-1.9,1.6c0.2,0.9,0.9,1.6,1.7,1.7c0,0-1.7,1.3-0.7,2.4l1,1.1c0.1,0.8,0.4,1.6,0.9,2.3c0.8,0.9,10.1-1.1,10.1-1.1l3.9,3&#xA;&#9;&#9;L267.9,189.3z"/>
	<path class="st8_target-audience-13" d="M260.1,186.2c-2.6,0.2-5.2,0.1-7.8-0.1c-0.3,0-0.3,0.4,0,0.4c2.6,0.3,5.2,0.3,7.8,0.1&#xA;&#9;&#9;C260.4,186.6,260.4,186.2,260.1,186.2z"/>
	<path class="st8_target-audience-13" d="M260.5,189c-2.8,0.6-5.7,0.9-8.6,0.9c-0.1,0-0.2,0.1-0.2,0.2c0,0.1,0.1,0.2,0.2,0.2c2.9,0,5.9-0.3,8.7-0.9&#xA;&#9;&#9;C260.9,189.3,260.8,188.9,260.5,189z"/>
	<path class="st8_target-audience-13" d="M260.1,191.9c-2.5,0.6-5,1.1-7.6,1.2c-0.1,0-0.2,0.1-0.2,0.2c0,0.1,0.1,0.2,0.2,0.2c2.6-0.2,5.2-0.6,7.7-1.3&#xA;&#9;&#9;C260.4,192.2,260.3,191.8,260.1,191.9z"/>
</g>
<g id="arrow_target-audience-13">
	<polygon class="st8_target-audience-13" points="208.2,190.1 225.5,191 222.5,208.7 219.6,194.9 &#9;"/>
	<polyline class="st8_target-audience-13" points="223.6,192.4 165.6,233.4 164.6,231.5 223.6,190.8 &#9;"/>
	<polygon class="st8_target-audience-13" points="178.4,223 169.1,222.3 150.9,233.4 162.1,234.1 159.6,244.8 175.7,231.9 &#9;"/>
</g>
</svg>