<svg version="1.1" id="Layer_1" xmlns="http://www.w3.org/2000/svg" xmlns:xlink="http://www.w3.org/1999/xlink" x="0px" y="0px" viewBox="0 0 500 500" style="width: 188px;" xml:space="preserve" data-imageid="checklist-1-97" imageName="Checklist 1" class="illustrations_image">
<style type="text/css">
	.st0_checklist-1-97{fill:#FFFFFF;}
	.st1_checklist-1-97{fill:#231F20;}
	.st2_checklist-1-97{fill:#68E1FD;}
	.st3_checklist-1-97{fill:#D1D3D4;}
</style>
<g id="Left_Hand_checklist-1-97">
	<path class="st0_checklist-1-97" d="M156,373.4c0,0,5.3-43.5,8.4-53s2.2-100.6,2.3-101.5s-49.3,23.7-53.6,31c-4.3,7.3,6.9,55.1,3.8,62&#xA;&#9;&#9;S103.4,349,103.4,349L156,373.4z"/>
	<path class="st1_checklist-1-97" d="M156,374.1c-0.1,0-0.2,0-0.3-0.1l-52.5-24.4c-0.3-0.1-0.5-0.5-0.4-0.9c0.4-1.2,10.3-30.4,13.4-37.2&#xA;&#9;&#9;c1.4-3-0.3-15.6-2-27.8c-2-14.8-4.2-30.2-1.7-34.3s16.7-12.3,28.3-18.6c3.8-2,24.8-13.1,26.1-12.7c0.3,0.1,0.5,0.4,0.5,0.8&#xA;&#9;&#9;c0,0.2,0,2.7,0,6.1c0.1,21.6,0.3,87.4-2.3,95.6c-3,9.3-8.3,52.4-8.4,52.9c0,0.2-0.2,0.4-0.4,0.5C156.2,374,156.1,374.1,156,374.1z&#xA;&#9;&#9; M104.3,348.6l51.1,23.7c0.8-6.6,5.5-43.4,8.3-52.2c1.7-5.3,2.5-37.3,2.3-95.1c0-2.8,0-4.4,0-5.2c-6.5,2.6-48.4,23.9-52.2,30.4&#xA;&#9;&#9;c-2.2,3.7,0,19.5,1.9,33.4c1.9,13.5,3.4,25.1,1.9,28.5C114.6,318.4,105.8,344.3,104.3,348.6z"/>
	<polygon class="st1_checklist-1-97" points="155.2,411.6 163.6,355.3 106.2,326.9 77.2,408.7 &#9;"/>
	<path class="st1_checklist-1-97" d="M155.2,412.3L155.2,412.3l-78-2.8c-0.4,0-0.7-0.3-0.7-0.7c0-0.1,0-0.1,0-0.2l29-81.9c0.1-0.4,0.5-0.6,0.9-0.4&#xA;&#9;&#9;c0,0,0.1,0,0.1,0l57.4,28.4c0.3,0.1,0.4,0.4,0.4,0.7l-8.4,56.3C155.8,412,155.5,412.3,155.2,412.3z M78.2,408.1l76.4,2.8l8.3-55.2&#xA;&#9;&#9;l-56.2-27.8L78.2,408.1z"/>
</g>
<g id="List_checklist-1-97">
	<path class="st0_checklist-1-97" d="M162.2,110.1h180.6c3.5,0,6.4,2.9,6.4,6.4V354c0,3.5-2.9,6.4-6.4,6.4H162.2c-3.5,0-6.4-2.9-6.4-6.4V116.5&#xA;&#9;&#9;C155.8,113,158.7,110.1,162.2,110.1z"/>
	<path class="st1_checklist-1-97" d="M340.3,361.1H164.7c-5.3,0-9.6-4.3-9.6-9.6V119c0-5.3,4.3-9.6,9.6-9.7h175.5c5.3,0,9.6,4.3,9.6,9.7v232.4&#xA;&#9;&#9;C349.9,356.7,345.6,361.1,340.3,361.1z M164.7,110.8c-4.6,0-8.2,3.7-8.2,8.2v232.4c0,4.6,3.7,8.2,8.2,8.2h175.5&#xA;&#9;&#9;c4.6,0,8.2-3.7,8.2-8.2V119c0-4.6-3.7-8.2-8.2-8.2L164.7,110.8z"/>
	<rect x="167.6" y="125.4" class="st0_checklist-1-97" width="169.7" height="219.6"/>
	<path class="st1_checklist-1-97" d="M337.4,345.7H167.6c-0.4,0-0.7-0.3-0.7-0.7l0,0V125.4c0-0.4,0.3-0.7,0.7-0.7h169.7c0.4,0,0.7,0.3,0.7,0.7v0&#xA;&#9;&#9;V345C338.1,345.4,337.8,345.7,337.4,345.7C337.4,345.7,337.4,345.7,337.4,345.7z M168.4,344.3h168.3V126.1H168.3L168.4,344.3z"/>
	<path class="st2_checklist-1-97 targetColor" d="M296.9,101.2h-24.4c-2.1-11-12.8-18.2-23.8-16.1c-8.2,1.6-14.5,8-16.1,16.1h-24.4c-3.2,0-5.9,2.6-5.9,5.8&#xA;&#9;&#9;c0,0,0,0,0,0v20.4c0,3.2,2.6,5.9,5.8,5.9c0,0,0,0,0,0h88.7c3.2,0,5.9-2.6,5.9-5.8c0,0,0,0,0,0v-20.4&#xA;&#9;&#9;C302.7,103.9,300.1,101.2,296.9,101.2L296.9,101.2z M252.5,103.9c-2.9,0-5.2-2.3-5.2-5.2s2.3-5.2,5.2-5.2c2.9,0,5.2,2.3,5.2,5.2&#xA;&#9;&#9;c0,0,0,0,0,0C257.7,101.6,255.4,103.9,252.5,103.9L252.5,103.9z" style="fill: rgb(104, 225, 253);"/>
	<path class="st3_checklist-1-97" d="M233,195.7h-41c-0.4,0-0.6-0.3-0.6-0.6v-43.8c0-0.4,0.3-0.6,0.6-0.6h41c0.4,0,0.6,0.3,0.6,0.6c0,0,0,0,0,0V195&#xA;&#9;&#9;C233.7,195.4,233.4,195.7,233,195.7C233,195.7,233,195.7,233,195.7z M192.6,194.4h39.7v-42.5h-39.7V194.4z"/>
	<path class="st2_checklist-1-97 targetColor" d="M242.6,162c-0.2,0.4-0.5,0.7-0.7,1l-26.5,26.4c-0.4,0.7-1.4,0.9-2.1,0.5c-0.2-0.1-0.3-0.3-0.5-0.5L198,174&#xA;&#9;&#9;c-0.6-0.5-0.8-1.4-0.3-2c0.1-0.1,0.2-0.3,0.4-0.3l3.7-3.4c0.5-0.6,1.4-0.7,2-0.2c0.1,0.1,0.2,0.2,0.2,0.2l8.8,9&#xA;&#9;&#9;c0.9,0.9,1.6,0.9,2.5,0l20.6-20.5c0.4-0.7,1.4-0.9,2-0.4c0.2,0.1,0.3,0.3,0.4,0.4c1.2,1.2,2.3,2.3,3.5,3.5c0.3,0.3,0.5,0.7,0.7,1&#xA;&#9;&#9;L242.6,162z" style="fill: rgb(104, 225, 253);"/>
	<path class="st3_checklist-1-97" d="M316,166.9h-58.9c-0.4,0-0.6-0.3-0.6-0.6c0-0.4,0.3-0.7,0.6-0.7l0,0H316c0.4,0,0.6,0.3,0.6,0.7&#xA;&#9;&#9;C316.7,166.6,316.4,166.9,316,166.9z"/>
	<path class="st3_checklist-1-97" d="M300.4,180.7h-43.2c-0.4,0-0.6-0.4-0.6-0.7c0-0.3,0.3-0.5,0.6-0.6h43.2c0.4,0,0.6,0.4,0.6,0.7&#xA;&#9;&#9;C300.9,180.4,300.7,180.6,300.4,180.7L300.4,180.7z"/>
	<path class="st3_checklist-1-97" d="M233,255.5h-41c-0.4,0-0.6-0.3-0.6-0.6v-43.8c0-0.4,0.3-0.6,0.6-0.6h41c0.4,0,0.6,0.3,0.6,0.6c0,0,0,0,0,0&#xA;&#9;&#9;v43.8C233.6,255.2,233.4,255.5,233,255.5C233,255.5,233,255.5,233,255.5z M192.6,254.2h39.7v-42.5h-39.7V254.2z"/>
	<path class="st2_checklist-1-97 targetColor" d="M242.6,221.8c-0.2,0.4-0.5,0.7-0.7,1l-26.5,26.4c-0.4,0.7-1.4,0.9-2.1,0.5c-0.2-0.1-0.3-0.3-0.5-0.5L198,233.8&#xA;&#9;&#9;c-0.6-0.5-0.8-1.4-0.3-2c0.1-0.1,0.2-0.3,0.4-0.3l3.7-3.4c0.5-0.6,1.4-0.7,2-0.2c0.1,0.1,0.2,0.2,0.2,0.2l8.8,9&#xA;&#9;&#9;c0.9,0.9,1.6,0.9,2.5,0l20.6-20.5c0.4-0.7,1.4-0.9,2-0.4c0.2,0.1,0.3,0.3,0.4,0.4c1.2,1.2,2.3,2.3,3.5,3.5c0.3,0.3,0.5,0.7,0.7,1&#xA;&#9;&#9;L242.6,221.8z" style="fill: rgb(104, 225, 253);"/>
	<path class="st3_checklist-1-97" d="M316,226.7h-58.9c-0.4,0-0.6-0.4-0.6-0.7c0-0.3,0.3-0.5,0.6-0.6H316c0.4,0,0.7,0.2,0.7,0.6&#xA;&#9;&#9;c0,0.4-0.2,0.7-0.6,0.7C316.2,226.7,316.1,226.7,316,226.7z"/>
	<path class="st3_checklist-1-97" d="M300.4,240.5h-43.2c-0.4,0-0.6-0.4-0.6-0.7c0-0.3,0.3-0.5,0.6-0.6h43.2c0.4,0,0.6,0.4,0.6,0.7&#xA;&#9;&#9;C300.9,240.2,300.7,240.5,300.4,240.5L300.4,240.5z"/>
	<path class="st3_checklist-1-97" d="M233,315.1h-41c-0.4,0-0.6-0.3-0.6-0.6v-43.8c0-0.4,0.3-0.6,0.6-0.6h41c0.4,0,0.6,0.3,0.6,0.6c0,0,0,0,0,0&#xA;&#9;&#9;v43.8C233.6,314.8,233.3,315.1,233,315.1z M192.6,313.8h39.7v-42.5h-39.7V313.8z"/>
	<path class="st2_checklist-1-97 targetColor" d="M242.6,281.3c-0.2,0.4-0.5,0.7-0.7,1l-26.5,26.5c-0.4,0.7-1.4,0.9-2.1,0.5c-0.2-0.1-0.3-0.3-0.5-0.5L198,293.4&#xA;&#9;&#9;c-0.6-0.5-0.8-1.4-0.3-2c0.1-0.1,0.2-0.3,0.4-0.3l3.7-3.4c0.5-0.6,1.4-0.7,2-0.2c0.1,0.1,0.2,0.2,0.2,0.2l8.8,9&#xA;&#9;&#9;c0.9,0.9,1.6,0.9,2.5,0l20.6-20.5c0.4-0.7,1.4-0.9,2-0.4c0.2,0.1,0.3,0.3,0.4,0.4c1.2,1.2,2.3,2.3,3.5,3.5c0.3,0.3,0.5,0.7,0.7,1&#xA;&#9;&#9;L242.6,281.3z" style="fill: rgb(104, 225, 253);"/>
	<path class="st3_checklist-1-97" d="M316,286.3h-58.9c-0.4,0-0.6-0.3-0.6-0.7c0-0.4,0.3-0.6,0.6-0.6H316c0.4,0,0.7,0.3,0.7,0.6&#xA;&#9;&#9;S316.4,286.3,316,286.3C316.1,286.3,316.1,286.3,316,286.3z"/>
	<path class="st3_checklist-1-97" d="M300.4,300h-43.2c-0.4,0-0.6-0.4-0.6-0.7c0-0.3,0.3-0.5,0.6-0.6h43.2c0.4,0,0.6,0.4,0.6,0.7&#xA;&#9;&#9;C300.9,299.8,300.7,300,300.4,300L300.4,300z"/>
</g>
<g id="Left_Thumb_checklist-1-97">
	<path class="st0_checklist-1-97" d="M129,262.1c10.3-11.2,22.6-20.5,35.5-28.8c3.2-2,6.6-4.1,10.4-4.2s7.9,2.6,8,6.4c0.1,3-2.1,5.4-4.2,7.5&#xA;&#9;&#9;l-27.4,27.5c6.8,12.9,5.3,28.6-3.9,39.9"/>
	<path class="st1_checklist-1-97" d="M147.2,311.2c-0.2,0-0.3-0.1-0.4-0.2c-0.3-0.2-0.3-0.7-0.1-1c0,0,0,0,0,0c8.9-10.6,10.5-27,3.8-39.1&#xA;&#9;&#9;c-0.1-0.3-0.1-0.6,0.1-0.8l27.4-27.6c2.1-2.1,4.1-4.4,4-7c-0.1-3.4-4-5.8-7.3-5.7c-3.5,0.1-6.8,2-10,4&#xA;&#9;&#9;c-14.9,9.6-26.2,18.7-35.3,28.6c-0.3,0.3-0.7,0.3-1,0c-0.3-0.3-0.3-0.7-0.1-1c0,0,0,0,0,0c9.2-10.1,20.6-19.2,35.6-28.9&#xA;&#9;&#9;c3.4-2.2,6.9-4.2,10.8-4.3s8.6,2.8,8.7,7c0.1,3.2-2.1,5.7-4.4,8.1L152,270.7c6.8,13.1,5.1,28.9-4.2,40.3&#xA;&#9;&#9;C147.6,311.1,147.4,311.2,147.2,311.2z"/>
</g>
<g id="Right_Hand_checklist-1-97">
	<path class="st0_checklist-1-97" d="M369.2,345l-33.9,24.3l-63.4-78.4c0.1-4.3-2.8-22.6,3.5-19.7s29.6,29.6,33.5,30.5s12.8-3.5,11.4-12.1&#xA;&#9;&#9;s-3-23.1-11.4-23.7c-12.8-0.9-24.7,7.6-29.7,5.6s-9.2-8.7-1-13.6c9.4-5.7,29.8-9.2,46-7.5S352.8,285,354,309&#xA;&#9;&#9;C358.2,324.3,366.5,338.2,369.2,345z"/>
	<path class="st1_checklist-1-97" d="M335.3,369.9c-0.2,0-0.4-0.1-0.5-0.3l-63.4-78.3c-0.1-0.1-0.2-0.3-0.2-0.5c0-0.8-0.1-2.3-0.2-4&#xA;&#9;&#9;c-0.6-7.5-0.8-14.5,1.7-16.2c0.9-0.6,2-0.6,2.9,0c3.3,1.6,11,9.3,18.4,16.7c6.2,6.3,13.3,13.4,14.9,13.7s5.2-0.6,7.7-2.9&#xA;&#9;&#9;c2.4-2.1,3.5-5.3,2.9-8.5l-0.3-1.8c-1.3-8.3-3.2-20.9-10.5-21.4c-6.8-0.5-13.5,1.8-18.9,3.6c-4.7,1.6-8.5,2.9-11,2&#xA;&#9;&#9;c-3.3-1.3-5.8-4.2-6.1-7.2c-0.2-2,0.5-5,5-7.7c9.8-5.9,30.6-9.3,46.5-7.6c17.1,1.9,29.2,35.6,30.4,59.1&#xA;&#9;&#9;c2.9,10.4,7.8,20.2,11.3,27.4c1.6,3.3,3,6.2,3.9,8.4c0.1,0.3,0,0.6-0.2,0.8l-33.9,24.3C335.6,369.9,335.4,369.9,335.3,369.9z&#xA;&#9;&#9; M272.6,290.7l62.8,77.6l32.9-23.6c-0.8-2-2.1-4.7-3.6-7.8c-3.6-7.3-8.4-17.2-11.4-27.7c0-0.1,0-0.1,0-0.2&#xA;&#9;&#9;c-1.1-22.4-13-56.1-29.2-57.9c-15.6-1.7-36,1.6-45.6,7.4c-3,1.8-4.5,4-4.3,6.4s2.4,4.9,5.2,6c2.1,0.8,5.8-0.5,10.1-2&#xA;&#9;&#9;c5.5-1.9,12.3-4.2,19.5-3.7c8.5,0.6,10.5,13.8,11.8,22.6l0.3,1.7c0.6,3.6-0.7,7.2-3.4,9.7c-2.6,2.4-6.4,3.8-8.9,3.2&#xA;&#9;&#9;c-2-0.5-7.2-5.6-15.6-14.1c-7-7-14.9-15-18-16.5c-1-0.5-1.4-0.2-1.5-0.1c-2.1,1.5-1.5,10.2-1.1,15&#xA;&#9;&#9;C272.5,288.4,272.6,289.8,272.6,290.7L272.6,290.7z"/>
	<polygon class="st0_checklist-1-97" points="250.8,276.3 252.2,287.7 240.1,285.5 233.7,284.2 239.6,281.5 &#9;"/>
	<path class="st1_checklist-1-97" d="M252.2,288.4h-0.1l-18.5-3.5c-0.3-0.1-0.5-0.3-0.6-0.6c0-0.3,0.1-0.6,0.4-0.7l17.1-8c0.2-0.1,0.4-0.1,0.6,0&#xA;&#9;&#9;c0.2,0.1,0.3,0.3,0.4,0.5l1.4,11.4c0,0.2-0.1,0.4-0.2,0.6C252.6,288.3,252.4,288.4,252.2,288.4z M236,284l15.4,2.9l-1.2-9.5&#xA;&#9;&#9;L236,284z"/>
	<path class="st2_checklist-1-97 targetColor" d="M341,276.5l-88.8,11.3c-2-3.5-2.5-7.6-1.4-11.4l88.8-11.3L341,276.5z" style="fill: rgb(104, 225, 253);"/>
	<path class="st1_checklist-1-97" d="M252.2,288.4c-0.3,0-0.5-0.1-0.6-0.4c-1-1.8-1.6-3.8-1.9-5.8c-0.2-2.1-0.1-4.1,0.4-6.1&#xA;&#9;&#9;c0.1-0.3,0.3-0.5,0.6-0.5l88.8-11.3c0.4,0,0.7,0.2,0.8,0.6l1.5,11.4c0,0.2,0,0.4-0.1,0.5c-0.1,0.1-0.3,0.2-0.5,0.3L252.2,288.4&#xA;&#9;&#9;L252.2,288.4z M251.4,276.9c-0.8,3.4-0.4,6.9,1.3,10l87.6-11.1l-1.2-10L251.4,276.9z"/>
	<path class="st0_checklist-1-97" d="M356.1,274.5l-15.1,1.9l0,0l-1.4-11.4l0,0l15.1-1.9c1.2-0.2,2.4,0.7,2.5,2l0.9,6.9&#xA;&#9;&#9;C358.2,273.3,357.3,274.4,356.1,274.5z"/>
	<path class="st1_checklist-1-97" d="M341,277.2c-0.4,0-0.6-0.3-0.7-0.6l-1.5-11.4c0-0.2,0-0.4,0.1-0.5c0.1-0.1,0.3-0.2,0.5-0.3l14.2-1.8&#xA;&#9;&#9;c2.1-0.3,4.1,1.2,4.3,3.4l0.6,5.1c0.3,2.1-1.2,4.1-3.4,4.3c0,0,0,0,0,0L341,277.2L341,277.2z M340.3,265.6l1.3,10l13.5-1.7&#xA;&#9;&#9;c1.4-0.2,2.3-1.4,2.2-2.8l-0.6-5.1c-0.2-1.4-1.4-2.3-2.8-2.2c0,0,0,0,0,0L340.3,265.6z"/>
	
		<rect x="343.7" y="262.5" transform="matrix(0.9915 -0.1302 0.1302 0.9915 -31.9942 47.1425)" class="st1_checklist-1-97" width="1.6" height="11.5"/>
	<rect x="347" y="262.1" transform="matrix(0.9915 -0.1302 0.1302 0.9915 -31.9124 47.56)" class="st1_checklist-1-97" width="1.6" height="11.5"/>
	<polygon class="st2_checklist-1-97 targetColor" points="239.6,281.5 240.1,285.5 233.7,284.2 &#9;" style="fill: rgb(104, 225, 253);"/>
	<path class="st1_checklist-1-97" d="M240.1,286.2H240l-6.4-1.2c-0.3-0.1-0.5-0.3-0.6-0.6c0-0.3,0.1-0.6,0.4-0.7l5.9-2.8c0.2-0.1,0.4-0.1,0.6,0&#xA;&#9;&#9;c0.2,0.1,0.3,0.3,0.4,0.5l0.5,4c0,0.2-0.1,0.4-0.2,0.6C240.5,286.1,240.3,286.2,240.1,286.2z M236,284l3.4,0.6l-0.3-2.1L236,284z"/>
	<path class="st0_checklist-1-97" d="M275.1,294.8c0,0-8.8-10.9-11.3-14.9c-4.2-6.5,6.1-12.3,9.9-9.6c2.6,1.9,16.3,14,19,16.6"/>
	<path class="st1_checklist-1-97" d="M275.1,295.5c-0.2,0-0.4-0.1-0.5-0.3c-0.4-0.4-8.8-11-11.4-15c-1.8-2.9-1.3-6.1,1.4-8.6s7-3.8,9.5-2&#xA;&#9;&#9;s16.3,14,19.1,16.6c0.3,0.3,0.3,0.7,0,1c0,0,0,0,0,0c-0.3,0.3-0.7,0.3-1,0c-2.8-2.6-16.4-14.6-19-16.5c-1.7-1.2-5.4-0.3-7.7,1.9&#xA;&#9;&#9;c-1,1-3.2,3.5-1.1,6.8c2.5,4,11.2,14.7,11.3,14.9c0.2,0.3,0.2,0.7-0.1,1c0,0,0,0,0,0C275.4,295.4,275.3,295.5,275.1,295.5z"/>
	<polygon class="st1_checklist-1-97" points="363,318.6 315.1,355 337.4,414.5 422.8,410.3 &#9;"/>
	<path class="st1_checklist-1-97" d="M337.4,415.2c-0.3,0-0.5-0.2-0.6-0.5l-22.3-59.6c-0.1-0.3,0-0.6,0.2-0.8l47.9-36.4c0.2-0.1,0.4-0.2,0.5-0.1&#xA;&#9;&#9;c0.2,0,0.4,0.1,0.5,0.3l59.8,91.8c0.2,0.3,0.1,0.8-0.2,1c-0.1,0.1-0.2,0.1-0.3,0.1L337.4,415.2L337.4,415.2z M315.9,355.2&#xA;&#9;&#9;l21.9,58.6l83.7-4.1l-58.7-90.1L315.9,355.2z"/>
</g>
</svg>