<svg version="1.1" id="Layer_1" xmlns="http://www.w3.org/2000/svg" xmlns:xlink="http://www.w3.org/1999/xlink" x="0px" y="0px" viewBox="0 0 500 500" style="width: 188px;" xml:space="preserve" data-imageid="data-processing-1-70" imageName="Data Processing 1" class="illustrations_image">
<style type="text/css">
	.st0_data-processing-1-70{fill:#7BBDEF;}
	.st1_data-processing-1-70{fill:url(#SVGID_1_);}
	.st2_data-processing-1-70{fill:url(#SVGID_00000160899111964657548910000000803619787217643961_);}
	.st3_data-processing-1-70{fill:#F2F2F2;}
	.st4_data-processing-1-70{opacity:0.1;fill:#124577;enable-background:new    ;}
	.st5_data-processing-1-70{fill:#68E1FD;}
	.st6_data-processing-1-70{opacity:0.23;fill:#124577;enable-background:new    ;}
	.st7_data-processing-1-70{opacity:0.3;fill:#124577;enable-background:new    ;}
	.st8_data-processing-1-70{fill:url(#SVGID_00000127763579578596683750000002055226608338614924_);}
	.st9_data-processing-1-70{opacity:0.18;fill:#124577;enable-background:new    ;}
	.st10_data-processing-1-70{fill:url(#SVGID_00000170996492084683774110000014606209175824782270_);}
	.st11_data-processing-1-70{fill:url(#SVGID_00000175317247822645952220000012111908327181504442_);}
	.st12_data-processing-1-70{fill:#8BD346;}
	.st13_data-processing-1-70{opacity:0.31;fill:#124577;enable-background:new    ;}
	.st14_data-processing-1-70{fill:#FFA197;}
	.st15_data-processing-1-70{opacity:0.5;fill:#F2F2F2;enable-background:new    ;}
	.st16_data-processing-1-70{opacity:0.12;fill:#124577;enable-background:new    ;}
	.st17_data-processing-1-70{fill:#124577;}
	.st18_data-processing-1-70{fill:#F7931E;}
	.st19_data-processing-1-70{fill:url(#SVGID_00000015321278558981197270000004495207768679321482_);}
	.st20_data-processing-1-70{fill:#00A99D;}
	.st21_data-processing-1-70{fill:#FFFFFF;}
	.st22_data-processing-1-70{fill:#56403D;}
</style>
<g id="background_data-processing-1-70">
	<path class="st0_data-processing-1-70" d="M241.6,394.4L17.7,262.1c-7.1-4-13.2-10.6-6.3-14.9l224.8-129.5c3.4-2.1,8.5-3.5,11.9-1.5l235.1,136.4&#xA;&#9;&#9;c7.1,4.1,8.4,15.7,1.3,19.9L271.2,394.2C262.1,399.5,250.8,399.6,241.6,394.4z"/>
	
		<linearGradient id="SVGID_1_-data-processing-1-70" gradientUnits="userSpaceOnUse" x1="366.4478" y1="202.5513" x2="382.8577" y2="231.3313" gradientTransform="matrix(1 0 0 -1 0 502)">
		<stop offset="0" style="stop-color:#7BBDEF"/>
		<stop offset="1" style="stop-color:#56403D"/>
	</linearGradient>
	<path class="st1_data-processing-1-70" d="M336.9,292.2c6.4,3.8,38.3,19.7,44.5,23.8l35.2-19.9l-57.8-28.8l-32.5,18.3&#xA;&#9;&#9;C329.7,287.5,333.4,290.1,336.9,292.2z"/>
	
		<linearGradient id="SVGID_00000154399424145281388900000014604884120908374406_-data-processing-1-70" gradientUnits="userSpaceOnUse" x1="-1573.5199" y1="223.9777" x2="-1589.4298" y2="241.9877" gradientTransform="matrix(-1 0 0 -1 -1522.86 502)">
		<stop offset="0" style="stop-color:#7BBDEF"/>
		<stop offset="1" style="stop-color:#56403D"/>
	</linearGradient>
	<path style="fill:url(#SVGID_00000154399424145281388900000014604884120908374406_);" d="M38.4,274.2c6.4,3.8,12.8,6.9,19,11&#xA;&#9;&#9;l37.8-21.4l-35-14.5l-32.5,18.3C31.3,269.6,35,272.2,38.4,274.2z"/>
</g>
<g id="cloud_data-processing-1-70">
	<polygon class="st3_data-processing-1-70" points="388.8,273.1 264,201.5 203.3,166.6 203.3,100.3 207.1,100.3 207.1,164.5 265.9,198.2 390.7,269.8 &#9;"/>
	<path class="st4_data-processing-1-70" d="M167.7,80.5c0.7-0.9,11.1-7.1,11.1-7.1l0,0c2.1-2.4,6.1-1.5,11.2,2.9c0,0,0.2-4.9,6.1-5.7s7.6,1.9,7.6,1.9&#xA;&#9;&#9;s2-9.3,13.8-5.8c10.7,3.2,9.2,14,9.2,14s6.7-1.7,12,5.7c3.2,4.7,5,10.2,4.9,15.9c0,0,11.2,4.1,12.6,14.2c0.1,0.9,0.2,1.8,0.2,2.7&#xA;&#9;&#9;v0.3c0.1,2.2-0.1,4.4-0.5,6.5c-0.2,1.3-1,2.4-2.1,3l-11.9,6.8c-0.4-3,0.1-6,1.2-8.7l-58.9-34.2c-2.8-2.6-5-5.7-6.4-9.2l-4.5-1.2&#xA;&#9;&#9;C173.4,82.5,166.9,81.5,167.7,80.5z"/>
	<path class="st4_data-processing-1-70" d="M167.7,80.5c0.7-0.9,11.1-7.1,11.1-7.1l0,0c2.1-2.4,6.1-1.5,11.2,2.9c0,0,0.2-4.9,6.1-5.7s7.6,1.9,7.6,1.9&#xA;&#9;&#9;s2-9.3,13.8-5.8c10.7,3.2,9.2,14,9.2,14s6.7-1.7,12,5.7c3.2,4.7,5,10.2,4.9,15.9c0,0,11.2,4.1,12.6,14.2c0.1,0.9,0.2,1.8,0.2,2.7&#xA;&#9;&#9;v0.3c0.1,2.2-0.1,4.4-0.5,6.5c-0.2,1.3-1,2.4-2.1,3l-11.9,6.8c-0.4-3,0.1-6,1.2-8.7l-58.9-34.2c-2.8-2.6-5-5.7-6.4-9.2l-4.5-1.2&#xA;&#9;&#9;C173.4,82.5,166.9,81.5,167.7,80.5z"/>
	<path class="st5_data-processing-1-70 targetColor" d="M167.7,80.5c0.7-0.9,11.1-7.1,11.1-7.1l0,0c2.1-2.4,6.1-1.5,11.2,2.9c0,0,0.2-4.9,6.1-5.7s7.6,1.9,7.6,1.9&#xA;&#9;&#9;s2-9.3,13.8-5.8c10.7,3.2,9.2,14,9.2,14s6.7-1.7,12,5.7c3.2,4.7,5,10.2,4.9,15.9c0,0,11.2,4.1,12.6,14.2c0.1,0.9,0.2,1.8,0.2,2.7&#xA;&#9;&#9;v0.3c0.1,2.2-0.1,4.4-0.5,6.5c-0.2,1.3-1,2.4-2.1,3l-11.9,6.8c-0.4-3,0.1-6,1.2-8.7l-58.9-34.2c-2.8-2.6-5-5.7-6.4-9.2l-4.5-1.2&#xA;&#9;&#9;C173.4,82.5,166.9,81.5,167.7,80.5z" style="fill: rgb(104, 225, 253);"/>
	<path class="st6_data-processing-1-70" d="M167.7,80.5c0.7-0.9,11.1-7.1,11.1-7.1l0,0c2.1-2.4,6.1-1.5,11.2,2.9c0,0,0.2-4.9,6.1-5.7s7.6,1.9,7.6,1.9&#xA;&#9;&#9;s2-9.3,13.8-5.8c10.7,3.2,9.2,14,9.2,14s6.7-1.7,12,5.7c3.2,4.7,5,10.2,4.9,15.9c0,0,11.2,4.1,12.6,14.2c0.1,0.9,0.2,1.8,0.2,2.7&#xA;&#9;&#9;v0.3c0.1,2.2-0.1,4.4-0.5,6.5c-0.2,1.3-1,2.4-2.1,3l-11.9,6.8c-0.4-3,0.1-6,1.2-8.7l-58.9-34.2c-2.8-2.6-5-5.7-6.4-9.2l-4.5-1.2&#xA;&#9;&#9;C173.4,82.5,166.9,81.5,167.7,80.5z"/>
	<path class="st5_data-processing-1-70 targetColor" d="M235.5,136.6l-62.6-36.3c0,0-7.7-6.7-7.2-14.3s5.5-8.8,13-2.2c0,0,0.2-6.3,6.1-5.7s8.2,4.5,8.2,4.5&#xA;&#9;&#9;s-1.2-11.2,10.6-7.7c6.2,1.7,10.8,6.9,11.8,13.3c0,0,6.7-1.7,12,5.7c3.2,4.7,5,10.2,4.9,15.9c0,0,11.2,4.1,12.6,14.2&#xA;&#9;&#9;S241.4,138.7,235.5,136.6z" style="fill: rgb(104, 225, 253);"/>
</g>
<g id="data_data-processing-1-70">
	<polyline class="st7_data-processing-1-70" points="292.5,155.4 292.5,230.6 317.7,247.2 346.2,230.9 346.2,153.3 &#9;"/>
	<polygon class="st7_data-processing-1-70" points="317.7,169.6 317.7,247.2 346.2,230.9 346.2,153.3 &#9;"/>
	<polygon class="st7_data-processing-1-70" points="292.8,155.6 321.4,139 346.4,153.4 317.9,169.7 &#9;"/>
	
		<linearGradient id="SVGID_00000074399554751029961170000000293187102560540081_-data-processing-1-70" gradientUnits="userSpaceOnUse" x1="1118.4064" y1="249.976" x2="1102.4164" y2="266.926" gradientTransform="matrix(-1 0 0 -1 1405.64 502)">
		<stop offset="0" style="stop-color:#7BBDEF"/>
		<stop offset="1" style="stop-color:#56403D"/>
	</linearGradient>
	<path style="fill:url(#SVGID_00000074399554751029961170000000293187102560540081_);" d="M292.5,230.6l27.1,15l-27.2,17h-0.7&#xA;&#9;&#9;c-11-6.1-18.5-10.6-26.3-15.4C276.7,239.6,283.2,237.2,292.5,230.6z"/>
	<polyline class="st9_data-processing-1-70" points="292.5,155.4 292.5,230.6 317.7,247.2 346.2,230.9 346.2,153.3 &#9;"/>
	
		<linearGradient id="SVGID_00000030466756378223799350000007986960691162108074_-data-processing-1-70" gradientUnits="userSpaceOnUse" x1="1168.5338" y1="280.2136" x2="1152.5438" y2="297.1636" gradientTransform="matrix(-1 0 0 -1 1405.64 502)">
		<stop offset="0" style="stop-color:#7BBDEF"/>
		<stop offset="1" style="stop-color:#56403D"/>
	</linearGradient>
	<path style="fill:url(#SVGID_00000030466756378223799350000007986960691162108074_);" d="M242.8,201.6l26.7,13.8l-27.2,17h-0.7&#xA;&#9;&#9;c-11-6.1-18.4-10.6-26.3-15.4C225.4,211.6,233.4,208.2,242.8,201.6z"/>
	
		<linearGradient id="SVGID_00000033348122967339703570000017026478107012168626_-data-processing-1-70" gradientUnits="userSpaceOnUse" x1="1141.4408" y1="266.1619" x2="1125.4009" y2="283.1619" gradientTransform="matrix(-1 0 0 -1 1405.64 502)">
		<stop offset="0" style="stop-color:#7BBDEF"/>
		<stop offset="1" style="stop-color:#56403D"/>
	</linearGradient>
	<path style="fill:url(#SVGID_00000033348122967339703570000017026478107012168626_);" d="M268.8,215.8l26.3,12.2l-29.7,17.3&#xA;&#9;&#9;c-0.2,0-0.8-0.3-1-0.3c-11-6.1-12.8-7.8-20.6-12.6C243.8,232.4,259.5,222.4,268.8,215.8z"/>
	<polyline class="st12_data-processing-1-70" points="242.8,168.8 242.8,202.2 268,216.1 296.5,201.3 296.5,166.7 &#9;"/>
	<polygon class="st12_data-processing-1-70" points="268,182.9 268,216.1 296.5,201.3 296.5,166.7 &#9;"/>
	<polygon class="st12_data-processing-1-70" points="242.8,168.8 271.5,152.2 296.5,166.7 268,182.9 &#9;"/>
	<polygon class="st13_data-processing-1-70" points="242.8,168.8 271.5,152.2 296.5,166.7 268,182.9 &#9;"/>
	<polyline class="st14_data-processing-1-70" points="267.5,160.6 267.5,215 292.7,229.6 321.2,212.9 321.2,158.5 &#9;"/>
	<polygon class="st14_data-processing-1-70" points="292.7,174.8 292.7,229.6 321.2,213.4 321.2,158.5 &#9;"/>
	<polygon class="st14_data-processing-1-70" points="267.5,160.6 296.2,144.1 321.2,158.5 292.7,174.8 &#9;"/>
	<polygon class="st15_data-processing-1-70" points="267.5,160.6 296.2,144.1 321.2,158.5 292.7,174.8 &#9;"/>
	<polyline class="st5_data-processing-1-70 targetColor" points="292.5,155.4 292.5,230.6 317.7,247.2 346.2,230.9 346.2,153.3 &#9;" style="fill: rgb(104, 225, 253);"/>
	<polygon class="st5_data-processing-1-70 targetColor" points="317.7,169.6 317.7,247.2 346.2,230.9 346.2,153.3 &#9;" style="fill: rgb(104, 225, 253);"/>
	<polyline class="st16_data-processing-1-70" points="292.5,155.4 292.5,230.6 317.7,247.2 346.2,230.9 346.2,153.3 &#9;"/>
	<polygon class="st5_data-processing-1-70 targetColor" points="317.7,169.6 317.7,247.2 346.2,230.9 346.2,153.3 &#9;" style="fill: rgb(104, 225, 253);"/>
	<polygon class="st13_data-processing-1-70" points="317.7,169.6 317.7,247.2 346.2,230.9 346.2,153.3 &#9;"/>
	<polygon class="st5_data-processing-1-70 targetColor" points="292.8,155.6 321.4,139 346.4,153.4 317.9,169.7 &#9;" style="fill: rgb(104, 225, 253);"/>
</g>
<g id="character_data-processing-1-70">
	<polyline class="st17_data-processing-1-70" points="213.9,173.6 247.1,195.9 250.9,161.6 217.7,139.3 213.9,173.6 &#9;"/>
	<path class="st18_data-processing-1-70" d="M216.6,163.4c-1.3,0.6-2.4,1.6-3.1,2.9c0,0,0,0.1,0,0.1c-2,1.6-2.3,4.6-4.4,6c0,0.1-2,1.4-2,1.5&#xA;&#9;&#9;s0.2-2.7,0.2-2.7l0,0c-0.7,1.9-1.4,3.7-1.9,5.6c0.1,0.1,0.2,0.1,0.3,0.1l-0.2,0.1l-0.2,0.1c-0.1,0.2-0.2,0.3-0.4,0.4&#xA;&#9;&#9;c-0.2,0.8,0.2,1.6,1,1.9c0.4,0.1,0.7,0.1,1.1-0.1l6.4-3.1c0.8-0.2,1.7-0.4,2.5-0.7c0.1-0.7,0.1-1.3,0.2-2c1-1.6,1.2-3.6,0.4-5.3&#xA;&#9;&#9;c0,0,0.1-0.1,0.1-0.1V168c1.1-0.7,1.8-1.9,2-3.2C218.6,164,217.6,162.9,216.6,163.4z"/>
	
		<linearGradient id="SVGID_00000060004035433872146850000007084467253862327708_-data-processing-1-70" gradientUnits="userSpaceOnUse" x1="178.2459" y1="165.0059" x2="205.5159" y2="183.7959" gradientTransform="matrix(1 0 0 -1 0 502)">
		<stop offset="0" style="stop-color:#7BBDEF"/>
		<stop offset="1" style="stop-color:#56403D"/>
	</linearGradient>
	<path style="fill:url(#SVGID_00000060004035433872146850000007084467253862327708_);" d="M172.5,335.9c5.4,3.8,12.3,6.3,17.4,10.4&#xA;&#9;&#9;l39-27.9l-34.2-9.6l-32.2,21.6C165.5,332.3,169.6,333.9,172.5,335.9z"/>
	<path class="st17_data-processing-1-70" d="M197.8,302.9v5.8c0,0,12.1-4.5,14.5-2.5c3.5,3-6.5,9-16.8,11c-1.9,0.4-4.2,0.8-6.1,0.2c-3-1-1.8-5.6-1.8-8&#xA;&#9;&#9;s-0.1-5-0.2-7.4"/>
	<path class="st17_data-processing-1-70" d="M215.5,310.9v5.8c0,0,12.2-4.5,14.5-2.5c3.5,3-6.5,9-16.8,11c-1.9,0.4-4.2,0.8-6.1,0.2c-3-1-1.8-5.6-1.8-8&#xA;&#9;&#9;s-0.1-5-0.2-7.4"/>
	<path class="st5_data-processing-1-70 targetColor" d="M215.8,209.4c0,0,11.5,77.5,10.2,95.5c0,0-3,12-29,8c0,0-2.2-9-1.2-24.2s3.8-79.3,3.8-79.3H215.8z" style="fill: rgb(104, 225, 253);"/>
	<path class="st5_data-processing-1-70 targetColor" d="M209.4,301l-3.9-92.5l-17.5-1.6c0,0-5,24-3.5,35.5s-1.8,26.8-2.5,34.8c-0.7,7.2-0.9,19.6,1.5,25.1&#xA;&#9;&#9;C192,304.7,201.1,303.9,209.4,301z" style="fill: rgb(104, 225, 253);"/>
	<path class="st5_data-processing-1-70 targetColor" d="M208.5,169.4c0,0,7.2,4.5,8,8.2c0,0-5.1,11.1-4.8,11.5c5.8,7.5-11.5-4.8-11.5-4.8S203.8,173.9,208.5,169.4z" style="fill: rgb(104, 225, 253);"/>
	<path class="st20_data-processing-1-70" d="M208.5,169.4c0,0,7.2,4.5,8,8.2c0,0-5.1,11.1-4.8,11.5c5.8,7.5-11.5-4.8-11.5-4.8S203.8,173.9,208.5,169.4z"/>
	<path class="st18_data-processing-1-70" d="M248.6,181.8c0.3-0.8,0-1.7-0.8-2c-0.1,0-0.1-0.1-0.2-0.1c0.2-0.4,0.2-0.8,0.1-1.1c-0.2-0.6-0.7-1.1-1.4-1.1&#xA;&#9;&#9;c-0.2,0-0.4,0-0.6,0c0,0,0-0.1,0-0.1c0-0.7-0.5-1.2-1.1-1.4c-0.2,0-0.4,0-0.6,0c0.4-0.8,0.7-1.6,1-2.5c0.3-0.8,0.9-2.4,0.2-3.1&#xA;&#9;&#9;c-0.5-0.5-1-0.3-1.5,0.1c-0.4,0.2-0.7,0.6-0.8,1c-0.3,0.5-0.6,1-0.8,1.5c-0.4,0.7-0.8,1.4-1.2,2.1l0,0c-0.1-0.1-0.3-0.1-0.4-0.1&#xA;&#9;&#9;c-1.3,0-2.4,0.8-2.8,2c-0.6,1.6-1.1,3.3-1.4,5.1c-0.1,0.3,0.1,0.6,0.5,0.7c0,0,0,0,0,0l-0.1,0.3c-0.1,0.3,0,0.7,0.3,0.8&#xA;&#9;&#9;c0.3,0.1,0.6,0.1,0.7-0.2l0.1-0.1c0,0.1,0.1,0.1,0.1,0.2l-0.4,0.6c-0.3,0.5,0.4,1.1,0.9,0.8l-0.2,0.4c-0.3,0.6,0.6,1.2,1,0.6&#xA;&#9;&#9;l0.3-0.4c0.2,0.1,0.4,0.1,0.6,0.1c0,0.2,0.1,0.3,0.2,0.4c0,0.2,0.2,0.4,0.4,0.4v0.1c-0.1,0.3,0,0.7,0.4,0.8l-0.1,0.2&#xA;&#9;&#9;c-0.4,0.6,0.4,1.4,0.9,0.8c0.9-1.2,1.8-2.5,2.6-3.7c0.1,0,0.1,0,0.2,0C246,184.5,248,183.5,248.6,181.8z"/>
	<path class="st18_data-processing-1-70" d="M203.8,153.7c0,0.2,1,10.3-1.3,12.5s-8.3,1.3-9.8-1.1s-3.3-5.7-1.7-9.4S203.5,151.2,203.8,153.7z"/>
	<path class="st21_data-processing-1-70" d="M195.9,305.6c-1.2-5.8-2.1-11.7-2.6-17.6c-0.2-2.9-0.2-5.8-0.1-8.7c0.3-3,0.7-5.9,1.3-8.9&#xA;&#9;&#9;c0.9-5.3,1.1-10.6,0.7-15.9c-0.4-5.4-1.2-10.9-1.8-16.3c-0.6-6.1-0.8-12.3,0.6-18.4c0.2-0.8-1-1.1-1.2-0.3&#xA;&#9;&#9;c-2.4,10.9-0.1,21.9,0.9,32.8c0.6,5.6,0.5,11.3-0.3,16.9c-0.4,2.7-1,5.5-1.3,8.2c-0.3,3-0.4,5.9-0.2,8.9c0.5,6.6,1.4,13.1,2.8,19.6&#xA;&#9;&#9;C194.9,306.7,196.1,306.4,195.9,305.6z"/>
	<path class="st20_data-processing-1-70" d="M235.2,178.5c-0.1,4.9-11.1,10.9-18.6,7c-3.7-1.9-5.1-13.5-21.4-13.4c-1.1,0-6.3-2.2-9.1,4.7s0,26.7,1.8,30.2&#xA;&#9;&#9;c1.6,3.1,12.4,10.4,27.9,2.5l0.2-7.1c0,0,2.1,0,5.1-0.2c-0.3-0.2-0.3-0.6-0.1-0.9c0.1-0.2,0.3-0.2,0.5-0.2&#xA;&#9;&#9;c9.2,0.3,18.9-6.8,23.6-15.2C242.7,182.4,239.2,179.9,235.2,178.5z"/>
	<path class="st21_data-processing-1-70" d="M223.8,200.5c-8.7,3.1-18.3-0.1-23.4-7.8c-0.3-0.5-1.1,0-0.8,0.5c5.3,8,15.4,11.4,24.4,8.2&#xA;&#9;&#9;C224.6,201.2,224.3,200.3,223.8,200.5z"/>
	<path class="st21_data-processing-1-70" d="M214.6,183.7c-0.8-1.9-2-3.7-3.6-5.1c-1.8-1.6-3.9-2.6-5.8-4.1c-0.4-0.3-0.9,0.2-0.5,0.5&#xA;&#9;&#9;c1.7,1.4,3.8,2.4,5.5,3.9c1.6,1.4,2.9,3.2,3.8,5.2C214.2,184.5,214.9,184.2,214.6,183.7z"/>
	<path class="st22_data-processing-1-70" d="M204,155.2l-3.2,1.7c0,0,2.5,9.5,3.2,12s-2.2,6-12,6.2s-9.3-14.5-7-20s9-8,14.5-6.5&#xA;&#9;&#9;C202.6,149.2,204.5,152.1,204,155.2z"/>
	<polygon class="st14_data-processing-1-70" points="223.3,151.7 226.2,153.7 223.7,173.5 220.7,171.6 &#9;"/>
	<path class="st5_data-processing-1-70 targetColor" d="M229.9,163.2c-1-0.6-1.9-1.2-2.9-1.9l-1.7,13.1l3,1.9l1.7-13.1L229.9,163.2z" style="fill: rgb(104, 225, 253);"/>
	<path class="st12_data-processing-1-70" d="M230.8,168.4l-1.1,9.1l3,1.9l1.2-9.1C232.7,169.7,231.8,169,230.8,168.4z"/>
</g>
<g id="stationary_data-processing-1-70">
	<path class="st5_data-processing-1-70 targetColor" d="M54.2,210.9v47.2c0,0,45.4,2.5,45.4,0v-47.2" style="fill: rgb(104, 225, 253);"/>
	<ellipse class="st5_data-processing-1-70 targetColor" cx="76.9" cy="257.8" rx="22.7" ry="10.4" style="fill: rgb(104, 225, 253);"/>
	<ellipse class="st17_data-processing-1-70" cx="76.9" cy="210.9" rx="22.7" ry="10.4"/>
	<path class="st14_data-processing-1-70" d="M62.8,219l0.2,0.1c0.9,0.3,1.8,0.6,2.6,0.8l-6.2-51.7c0,0-1.3-0.7-3.2,0.6l6.3,50.1L62.8,219z"/>
	<path class="st14_data-processing-1-70" d="M69.8,220.6l1.9-48.6c0,0-1.2-0.9-3.2,0.1L67,220.2C67.9,220.4,68.9,220.5,69.8,220.6z"/>
	<path class="st18_data-processing-1-70" d="M76.9,221.3l6.2-50.6l12.6,6.7l-5.1,42.5C86.2,221.2,81.6,221.7,76.9,221.3z"/>
</g>
<g id="screen_data-processing-1-70">
	<polyline class="st17_data-processing-1-70" points="411.4,298.4 416.5,296.1 417.8,293.5 412.1,293 &#9;"/>
	<polygon class="st17_data-processing-1-70" points="357.3,139.2 362.5,136.7 362.5,141.2 &#9;"/>
	<path class="st17_data-processing-1-70" d="M365.8,136.8c12,7.1,41.6,24.6,50.5,29.8c1.5,0.9,2.5,2.5,2.5,4.3v121.6c0.2,2.5-2.6,4.8-4.9,3.5L364,267.6&#xA;&#9;&#9;c-2-0.9-3.2-2.9-3.3-5.1V139.7c0-1.9,1.5-3.4,3.3-3.4C364.7,136.3,365.3,136.5,365.8,136.8z"/>
	<path class="st5_data-processing-1-70 targetColor" d="M360.3,139.4c12,7.1,41.6,24.6,50.5,29.8c1.5,0.9,2.5,2.5,2.5,4.3v121.6c0.2,2.5-2.6,4.8-4.9,3.5l-49.8-28.4&#xA;&#9;&#9;c-2-0.9-3.2-2.9-3.3-5.1V142.3c0-1.9,1.5-3.4,3.4-3.4C359.2,138.9,359.7,139.1,360.3,139.4z" style="fill: rgb(104, 225, 253);"/>
	<path class="st17_data-processing-1-70" d="M389,191.3c-3-3.1-6.3-4.8-9.4-4.8c-0.6,0-1.2,0.1-1.7,0.2c-2.4,0.6-4.4,2-5.8,4c-1.4-1.9-2.8-3.7-4.4-5.4&#xA;&#9;&#9;c2.3-2.7,5.4-4.5,8.8-5.3c5.9-1.2,12.1,1.1,17.4,6.5c1.6,1.6,3,3.4,4.2,5.3c-1.9,1.2-3.8,2.4-5.7,3.7&#xA;&#9;&#9;C391.4,194,390.3,192.6,389,191.3z"/>
	<path class="st14_data-processing-1-70" d="M389,239.4c3.2-1,6-4,7.6-8.5c2-5.4,2.3-12.1,0.9-19c-0.8-4-2.3-7.9-4.4-11.5c1.9-1.3,3.8-2.5,5.7-3.7&#xA;&#9;&#9;c2.5,4.3,4.3,8.9,5.3,13.8c1.7,8.1,1.3,16.2-1.1,22.8s-6.6,10.9-11.8,12.6C390.5,243.6,389.8,241.5,389,239.4z"/>
	<path class="st3_data-processing-1-70" d="M363.2,196.6c0.9-2.4,2-4.6,3.5-6.6c1.6,1.8,3.1,3.6,4.5,5.6c-0.6,1.1-1.2,2.2-1.6,3.4c-2,5.4-2.3,12.1-0.9,19&#xA;&#9;&#9;s4.5,12.9,8.5,17c3.4,3.4,7,5.1,10.3,4.7c0.9,2.1,1.6,4.3,2.3,6.5h0c-1,0.2-2.1,0.3-3.2,0.3c-4.9,0-9.9-2.4-14.2-6.8&#xA;&#9;&#9;c-4.9-5-8.6-12.3-10.3-20.4S360.7,203.1,363.2,196.6z"/>
	<ellipse transform="matrix(0.9939 -0.1106 0.1106 0.9939 -21.731 43.301)" class="st3_data-processing-1-70" cx="379.4" cy="217.5" rx="4.3" ry="7.7"/>
	<path class="st3_data-processing-1-70" d="M362.4,250.4l39.3,22c0.6,0.4,0.8,1.3,0.4,1.9c-0.4,0.6-1.1,0.8-1.7,0.5l-39.3-22c-0.7-0.4-0.9-1.2-0.5-1.9&#xA;&#9;&#9;S361.7,250,362.4,250.4z"/>
	<path class="st3_data-processing-1-70" d="M363,245.2l39.3,22c0.6,0.4,0.8,1.3,0.4,1.9c-0.4,0.6-1.1,0.8-1.7,0.5l-39.3-22c-0.6-0.4-0.8-1.3-0.4-1.9&#xA;&#9;&#9;C361.7,245.1,362.4,244.9,363,245.2z"/>
</g>
</svg>