<svg version="1.1" id="Layer_1" xmlns="http://www.w3.org/2000/svg" xmlns:xlink="http://www.w3.org/1999/xlink" x="0px" y="0px" viewBox="0 0 500 500" style="width: 188px;" xml:space="preserve" data-imageid="chart-3-64" imageName="Chart 3" class="illustrations_image">
<style type="text/css">
	.st0_chart-3-64{fill:#093F68;}
	.st1_chart-3-64{fill:#68E1FD;}
	.st2_chart-3-64{fill:#F56132;}
	.st3_chart-3-64{fill:#FFBC0E;}
	.st4_chart-3-64{fill:#DFEAEF;}
</style>
<g id="curve_chart-3-64">
	<path class="st0_chart-3-64" d="M90.5,382.5c-1,0-1.8-0.8-1.8-1.8V117.7c-0.1-1,0.7-1.9,1.7-2s1.9,0.7,2,1.7c0,0.1,0,0.2,0,0.3v262.9&#xA;&#9;&#9;C92.3,381.6,91.5,382.5,90.5,382.5C90.5,382.5,90.5,382.5,90.5,382.5z"/>
	<path class="st0_chart-3-64" d="M405.5,383h-315c-1-0.1-1.8-1-1.7-2c0.1-0.9,0.8-1.6,1.7-1.7h315c1-0.1,1.9,0.7,2,1.7c0.1,1-0.7,1.9-1.7,2&#xA;&#9;&#9;C405.7,383,405.6,383,405.5,383z"/>
	<path class="st0_chart-3-64" d="M418.8,381.7l-11,8.4c-0.6,0.5-1.5,0.3-2-0.3c-0.2-0.2-0.3-0.5-0.3-0.8v-16.8c0-0.8,0.7-1.4,1.4-1.4&#xA;&#9;&#9;c0.3,0,0.6,0.1,0.8,0.3l11,8.4c0.6,0.5,0.7,1.4,0.3,2C419,381.6,418.9,381.7,418.8,381.7z"/>
	<path class="st0_chart-3-64" d="M91.6,111.3l8.4,11c0.5,0.6,0.4,1.5-0.3,2c-0.2,0.2-0.5,0.3-0.9,0.3H82.1c-0.8,0-1.4-0.6-1.4-1.4&#xA;&#9;&#9;c0-0.3,0.1-0.6,0.3-0.9l8.4-11c0.5-0.6,1.4-0.7,2-0.3C91.4,111.1,91.5,111.2,91.6,111.3z"/>
</g>
<g id="graph_chart-3-64">
	<rect x="90.5" y="150.1" class="st1_chart-3-64 targetColor" width="288.6" height="26.9" style="fill: rgb(104, 225, 253);"/>
	<path class="st0_chart-3-64" d="M379.1,178.8H90.5c-1,0-1.8-0.8-1.8-1.8l0,0v-26.9c0-1,0.8-1.8,1.8-1.8h288.6c1,0,1.8,0.8,1.8,1.8V177&#xA;&#9;&#9;C380.9,178,380.1,178.8,379.1,178.8z M92.3,175.2h284.9V152H92.3V175.2z"/>
	<circle class="st1_chart-3-64 targetColor" cx="385.6" cy="163.6" r="19.5" style="fill: rgb(104, 225, 253);"/>
	<path class="st0_chart-3-64" d="M385.6,184.8c-11.8,0-21.3-9.5-21.3-21.3c0-11.8,9.5-21.3,21.3-21.3c11.8,0,21.3,9.5,21.3,21.3&#xA;&#9;&#9;C406.9,175.3,397.4,184.8,385.6,184.8z M385.6,145.9c-9.7,0-17.6,7.9-17.6,17.6c0,9.7,7.9,17.6,17.6,17.6s17.6-7.9,17.6-17.6&#xA;&#9;&#9;c0,0,0,0,0,0C403.2,153.8,395.4,146,385.6,145.9z"/>
	<rect x="90.5" y="210.2" class="st2_chart-3-64" width="109.1" height="26.9"/>
	<path class="st0_chart-3-64" d="M199.6,238.9H90.5c-1,0-1.8-0.8-1.8-1.8c0,0,0,0,0-0.1v-26.9c0-1,0.8-1.8,1.8-1.8l0,0h109.1&#xA;&#9;&#9;c1,0,1.8,0.8,1.8,1.8V237C201.4,238,200.6,238.9,199.6,238.9C199.6,238.9,199.6,238.9,199.6,238.9z M92.3,235.2h105.4V212H92.3&#xA;&#9;&#9;V235.2z"/>
	<circle class="st1_chart-3-64 targetColor" cx="206.1" cy="223.6" r="19.4" style="fill: rgb(104, 225, 253);"/>
	<path class="st0_chart-3-64" d="M206.1,244.9c-11.8,0-21.3-9.5-21.3-21.3s9.5-21.3,21.3-21.3s21.3,9.5,21.3,21.3&#xA;&#9;&#9;C227.4,235.4,217.9,244.9,206.1,244.9z M206.1,206c-9.7,0-17.6,7.9-17.6,17.6s7.9,17.6,17.6,17.6c9.7,0,17.6-7.9,17.6-17.6&#xA;&#9;&#9;c0,0,0,0,0,0C223.7,213.9,215.8,206,206.1,206L206.1,206z"/>
	<rect x="90.5" y="270.2" class="st3_chart-3-64" width="169.5" height="26.9"/>
	<path class="st0_chart-3-64" d="M259.9,298.9H90.5c-1,0-1.8-0.8-1.8-1.8v-26.9c0-1,0.8-1.8,1.8-1.8h169.5c1,0,1.8,0.8,1.8,1.8v26.9&#xA;&#9;&#9;C261.8,298.1,261,298.9,259.9,298.9z M92.3,295.2h165.8V272H92.3V295.2z"/>
	<circle class="st1_chart-3-64 targetColor" cx="266.5" cy="283.6" r="19.5" style="fill: rgb(104, 225, 253);"/>
	<path class="st0_chart-3-64" d="M266.5,304.9c-11.8,0-21.3-9.5-21.3-21.3c0-11.8,9.5-21.3,21.3-21.3c11.8,0,21.3,9.5,21.3,21.3v0&#xA;&#9;&#9;C287.8,295.4,278.2,304.9,266.5,304.9z M266.5,266c-9.7,0-17.6,7.9-17.6,17.6s7.9,17.6,17.6,17.6s17.6-7.9,17.6-17.6c0,0,0,0,0,0&#xA;&#9;&#9;C284.1,273.9,276.2,266,266.5,266C266.5,266,266.5,266,266.5,266L266.5,266z"/>
	<rect x="90.5" y="330.2" class="st2_chart-3-64" width="221.3" height="26.9"/>
	<path class="st0_chart-3-64" d="M311.8,359H90.5c-1,0-1.8-0.8-1.8-1.8v-26.9c0-1,0.8-1.8,1.8-1.8c0,0,0,0,0,0h221.3c1,0,1.8,0.8,1.8,1.8&#xA;&#9;&#9;c0,0,0,0,0,0v26.9C313.6,358.2,312.8,359,311.8,359C311.8,359,311.8,359,311.8,359z M92.3,355.3h217.6v-23.2H92.3V355.3z"/>
	<circle class="st1_chart-3-64 targetColor" cx="318.3" cy="343.7" r="19.5" style="fill: rgb(104, 225, 253);"/>
	<path class="st0_chart-3-64" d="M318.3,365c-11.8,0-21.3-9.5-21.3-21.3c0-11.8,9.5-21.3,21.3-21.3c11.8,0,21.3,9.5,21.3,21.3&#xA;&#9;&#9;C339.6,355.5,330.1,365,318.3,365z M318.3,326.1c-9.7,0-17.6,7.9-17.6,17.6s7.9,17.6,17.6,17.6s17.6-7.9,17.6-17.6l0,0&#xA;&#9;&#9;C335.9,334,328,326.1,318.3,326.1L318.3,326.1z"/>
</g>
<g id="text_chart-3-64">
	<path class="st4_chart-3-64" d="M389.9,220.6h-48.3c-1,0-1.8-0.8-1.8-1.8c0-1,0.8-1.8,1.8-1.8h48.3c1,0,1.8,0.8,1.8,1.8&#xA;&#9;&#9;C391.7,219.8,390.9,220.6,389.9,220.6L389.9,220.6z"/>
	<path class="st4_chart-3-64" d="M389.9,244.9h-20c-1,0.1-1.9-0.7-2-1.7c-0.1-1,0.7-1.9,1.7-2c0.1,0,0.2,0,0.3,0h20c1-0.1,1.9,0.7,2,1.7&#xA;&#9;&#9;c0.1,1-0.7,1.9-1.7,2C390,244.9,390,244.9,389.9,244.9z"/>
	<path class="st4_chart-3-64" d="M360.9,244.9h-31c-1,0.1-1.9-0.7-2-1.7c-0.1-1,0.7-1.9,1.7-2c0.1,0,0.2,0,0.3,0h31c1-0.1,1.9,0.7,2,1.7&#xA;&#9;&#9;c0.1,1-0.7,1.9-1.7,2C361.1,244.9,361,244.9,360.9,244.9z"/>
	<path class="st4_chart-3-64" d="M389.9,269.2h-60c-1,0.1-1.9-0.7-2-1.7c-0.1-1,0.7-1.9,1.7-2c0.1,0,0.2,0,0.3,0h60c1-0.1,1.9,0.7,2,1.7&#xA;&#9;&#9;c0.1,1-0.7,1.9-1.7,2C390,269.2,390,269.2,389.9,269.2z"/>
</g>
</svg>