<svg version="1.1" id="Layer_1" xmlns="http://www.w3.org/2000/svg" xmlns:xlink="http://www.w3.org/1999/xlink" x="0px" y="0px" viewBox="0 0 500 500" style="width: 188px;" xml:space="preserve" data-imageid="team-presentation-7-89" imageName="Team Presentation 7" class="illustrations_image">
<style type="text/css">
	.st0_team-presentation-7-89{fill:#231F20;}
	.st1_team-presentation-7-89{fill:#FFFFFF;}
	.st2_team-presentation-7-89{fill:#D1D3D4;}
	.st3_team-presentation-7-89{fill:#68E1FD;}
</style>
<g id="Chair_team-presentation-7-89">
	<path class="st0_team-presentation-7-89" d="M143.5,108c0,0-13.5-17.8-18.4-18.8S78.4,142,78.5,148.8s30,20.8,30,20.8L143.5,108z"/>
	<path class="st0_team-presentation-7-89" d="M108.6,170.3c-0.1,0-0.2,0-0.3-0.1c-3.1-1.5-30.3-14.4-30.4-21.4c-0.1-6.4,32.9-49.4,43.7-58.4&#xA;&#9;&#9;c2.3-1.9,3.2-2,3.7-1.9c5.1,1,17.4,17.2,18.9,19c0.2,0.2,0.2,0.5,0.1,0.8l-35,61.7C109,170.2,108.8,170.3,108.6,170.3L108.6,170.3z&#xA;&#9;&#9; M124.9,89.9c-0.1,0-0.9,0.1-3.4,2.4c-12.3,11.2-42.4,51.3-42.3,56.5s20.4,15.8,29,19.9l34.4-60.7&#xA;&#9;&#9;C138.8,102.9,128.7,90.6,124.9,89.9L124.9,89.9L124.9,89.9z"/>
	<path class="st0_team-presentation-7-89" d="M386,168.4c0.7-0.3,26.6-27.1,27.2-34.1S356,77.8,349,80.8s-31.3,41.1-31.3,41.1l67.2,44.4"/>
	<path class="st0_team-presentation-7-89" d="M386,169.1c-0.3,0-0.5-0.2-0.6-0.4c-0.1-0.3,0-0.7,0.3-0.9c1.4-1.1,26.3-27,26.9-33.6&#xA;&#9;&#9;c0.4-4.1-24.9-27.9-45.8-43.2c-13.6-9.9-16.8-9.8-17.4-9.6c-5.3,2.2-22.1,27-30.6,40.2l66.7,44c0.3,0.2,0.4,0.6,0.2,1&#xA;&#9;&#9;c-0.2,0.3-0.6,0.4-1,0.2l-67.2-44.4c-0.3-0.2-0.4-0.6-0.2-1c0,0,0,0,0,0c1-1.6,24.5-38.3,31.6-41.4c0.9-0.4,3.4-1.5,18.8,9.7&#xA;&#9;&#9;c18.7,13.6,46.9,38.9,46.4,44.4c-0.7,7.6-27.4,34.6-27.6,34.7C386.2,169,386.1,169.1,386,169.1L386,169.1z"/>
	<path class="st0_team-presentation-7-89" d="M339.9,390.6c0,0,21.6,28.2,27.9,28.8s59.4-50.2,57.6-55.1s-32.8-31.5-32.8-31.5L339.9,390.6L339.9,390.6z"/>
	<path class="st0_team-presentation-7-89" d="M367.9,420h-0.1c-6.5-0.5-26.2-26.1-28.4-29c-0.2-0.3-0.2-0.6,0-0.9l52.7-57.9c0.3-0.3,0.7-0.3,1-0.1&#xA;&#9;&#9;c0,0,0,0,0,0c1.3,1.1,31.1,26.8,33,31.8c0.3,0.7,0.1,2-3,6C412.9,383.4,374.2,420,367.9,420L367.9,420z M340.9,390.6&#xA;&#9;&#9;c6.2,8.1,22.2,27.6,27,28h0.1c4.5,0,36.9-29.2,51.5-46.4c5.5-6.4,5.3-7.7,5.3-7.9c-1.4-3.8-23.1-23.1-32-30.8L340.9,390.6&#xA;&#9;&#9;L340.9,390.6z"/>
	<path class="st0_team-presentation-7-89" d="M122.8,324c0,0-44.8,35.8-48.1,39.2s48.2,59,55.5,56s26-26.4,26-26.4L122.8,324z"/>
	<path class="st0_team-presentation-7-89" d="M129.6,420c-8.7,0-44.9-38.7-53.5-51.6c-2.2-3.3-2.7-4.9-1.9-5.7c3.3-3.4,46.3-37.8,48.2-39.3&#xA;&#9;&#9;c0.2-0.1,0.4-0.2,0.6-0.1c0.2,0.1,0.4,0.2,0.5,0.4l33.3,68.8c0.1,0.2,0.1,0.5-0.1,0.7c-0.8,1-18.9,23.6-26.3,26.6&#xA;&#9;&#9;C130.2,420,129.9,420,129.6,420L129.6,420z M122.5,325.1c-5.7,4.5-44.3,35.5-47.4,38.6c-0.7,3,24,31.4,41.6,46.6&#xA;&#9;&#9;c10,8.6,12.6,8.5,13.1,8.3c6.5-2.6,23.1-23,25.4-25.9L122.5,325.1z"/>
</g>
<g id="Round_Table_team-presentation-7-89">
	<circle class="st1_team-presentation-7-89" cx="249.6" cy="254.8" r="159.2"/>
	<path class="st0_team-presentation-7-89" d="M249.6,414.7c-88.2,0-159.9-71.7-159.9-159.9S161.4,94.9,249.6,94.9s159.9,71.7,159.9,159.9&#xA;&#9;&#9;S337.8,414.7,249.6,414.7z M249.6,96.3c-87.4,0-158.5,71.1-158.5,158.5s71.1,158.5,158.5,158.5s158.5-71.1,158.5-158.5&#xA;&#9;&#9;S337,96.3,249.6,96.3L249.6,96.3z"/>
</g>
<g id="Characters_team-presentation-7-89">
	
		<rect x="184.1" y="148.3" transform="matrix(0.5182 -0.8553 0.8553 0.5182 -50.4669 254.3761)" class="st1_team-presentation-7-89" width="33" height="47.4"/>
	<path class="st0_team-presentation-7-89" d="M212.2,199.1c-0.1,0-0.3,0-0.4-0.1l-40.5-24.6c-0.3-0.2-0.5-0.6-0.3-1c0,0,0,0,0,0l17.1-28.2&#xA;&#9;&#9;c0.2-0.3,0.6-0.5,1-0.3c0,0,0,0,0,0l40.5,24.6c0.2,0.1,0.3,0.3,0.3,0.4c0,0.2,0,0.4-0.1,0.5l-17.1,28.2c-0.1,0.2-0.3,0.3-0.4,0.3&#xA;&#9;&#9;L212.2,199.1L212.2,199.1z M172.7,173.6l39.3,23.8l16.4-27L189,146.6L172.7,173.6z"/>
	
		<rect x="168.2" y="175.9" transform="matrix(0.5174 -0.8557 0.8557 0.5174 -81.7183 254.447)" class="st1_team-presentation-7-89" width="33.1" height="47.6"/>
	<path class="st0_team-presentation-7-89" d="M195.2,227.3c-0.1,0-0.3,0-0.4-0.1l-40.5-24.6c-0.2-0.1-0.3-0.3-0.3-0.4c0-0.2,0-0.4,0.1-0.5l17.1-28.2&#xA;&#9;&#9;c0.1-0.2,0.3-0.3,0.4-0.3c0.2,0,0.4,0,0.5,0.1l40.5,24.6c0.2,0.1,0.3,0.3,0.3,0.4c0,0.2,0,0.4-0.1,0.5l-17.1,28.2&#xA;&#9;&#9;C195.6,227.1,195.4,227.3,195.2,227.3L195.2,227.3z M155.6,201.8l39.3,23.8l16.4-27L172,174.8L155.6,201.8z"/>
	<path class="st2_team-presentation-7-89" d="M209.5,190.2c-0.1,0-0.2,0-0.4-0.1c-0.3-0.2-0.4-0.6-0.2-0.9c0,0,0,0,0,0l10.7-17.6c0.2-0.3,0.6-0.4,0.9-0.2&#xA;&#9;&#9;c0.3,0.2,0.4,0.6,0.2,0.9c0,0,0,0,0,0l-10.7,17.6C210,190,209.8,190.1,209.5,190.2L209.5,190.2z"/>
	<path class="st2_team-presentation-7-89" d="M205.3,182c-0.1,0-0.2,0-0.4-0.1c-0.3-0.2-0.4-0.6-0.2-0.9c0,0,0,0,0,0l8.2-13.5c0.2-0.3,0.6-0.4,0.9-0.2&#xA;&#9;&#9;s0.4,0.6,0.2,0.9l-8.2,13.5C205.7,181.9,205.5,182,205.3,182L205.3,182z"/>
	<path class="st2_team-presentation-7-89" d="M196.1,182c-0.1,0-0.2,0-0.4-0.1c-0.3-0.2-0.4-0.6-0.2-0.9c0,0,0,0,0,0l8.6-14.3c0.2-0.3,0.6-0.4,0.9-0.2&#xA;&#9;&#9;c0.3,0.2,0.4,0.6,0.2,0.9c0,0,0,0,0,0l-8.6,14.3C196.5,181.9,196.3,182,196.1,182L196.1,182z"/>
	<path class="st2_team-presentation-7-89" d="M189.3,177.9c-0.1,0-0.2,0-0.4-0.1c-0.3-0.2-0.4-0.6-0.2-0.9c0,0,0,0,0,0l4.3-7.1c0.2-0.3,0.6-0.4,0.9-0.2&#xA;&#9;&#9;s0.4,0.6,0.2,0.9l-4.3,7.1C189.8,177.8,189.6,177.9,189.3,177.9L189.3,177.9z"/>
	<path class="st2_team-presentation-7-89" d="M196.3,166.5c-0.1,0-0.2,0-0.4-0.1c-0.3-0.2-0.4-0.6-0.2-0.9c0,0,0,0,0,0l3.7-6.2c0.2-0.3,0.6-0.4,0.9-0.2&#xA;&#9;&#9;c0.3,0.2,0.4,0.6,0.2,0.9c0,0,0,0,0,0l-3.7,6.2C196.7,166.3,196.5,166.5,196.3,166.5L196.3,166.5z"/>
	<path class="st2_team-presentation-7-89" d="M184.8,170.3c-0.1,0-0.2,0-0.4-0.1c-0.3-0.2-0.4-0.6-0.2-0.9c0,0,0,0,0,0l8.5-14c0.2-0.3,0.6-0.4,0.9-0.2&#xA;&#9;&#9;c0.3,0.2,0.4,0.6,0.2,0.9c0,0,0,0,0,0l-8.5,14C185.2,170.1,185,170.3,184.8,170.3L184.8,170.3z"/>
	<path class="st2_team-presentation-7-89" d="M192.4,218.4c-0.1,0-0.2,0-0.4-0.1c-0.3-0.2-0.4-0.6-0.2-0.9c0,0,0,0,0,0l10.7-17.6c0.2-0.3,0.6-0.4,0.9-0.2&#xA;&#9;&#9;c0.3,0.2,0.4,0.6,0.2,0.9c0,0,0,0,0,0L193,218C192.9,218.2,192.7,218.3,192.4,218.4L192.4,218.4z"/>
	<path class="st2_team-presentation-7-89" d="M188.2,210.2c-0.1,0-0.2,0-0.4-0.1c-0.3-0.2-0.4-0.6-0.2-0.9c0,0,0,0,0,0l8.2-13.5c0.2-0.3,0.6-0.4,0.9-0.2&#xA;&#9;&#9;c0.3,0.2,0.4,0.6,0.2,0.9c0,0,0,0,0,0l-8.2,13.5C188.6,210.1,188.4,210.2,188.2,210.2L188.2,210.2z"/>
	<path class="st2_team-presentation-7-89" d="M179,210.2c-0.1,0-0.2,0-0.4-0.1c-0.3-0.2-0.4-0.6-0.2-0.9c0,0,0,0,0,0l8.6-14.3c0.2-0.3,0.6-0.4,0.9-0.2&#xA;&#9;&#9;c0.3,0.2,0.4,0.6,0.2,0.9c0,0,0,0,0,0l-8.6,14.3C179.4,210.1,179.2,210.2,179,210.2L179,210.2z"/>
	
		<rect x="260.6" y="288.6" transform="matrix(0.7764 -0.6303 0.6303 0.7764 -116.352 254.7866)" class="st1_team-presentation-7-89" width="80.6" height="5.5"/>
	<path class="st0_team-presentation-7-89" d="M271.3,319.6L271.3,319.6c-0.3,0-0.4-0.1-0.5-0.2l-3.5-4.3c-0.2-0.3-0.2-0.8,0.1-1c0,0,0,0,0,0l62.6-50.8&#xA;&#9;&#9;c0.3-0.2,0.7-0.2,1,0.1c0,0,0,0,0,0l3.5,4.3c0.1,0.1,0.2,0.3,0.1,0.5c0,0.2-0.1,0.4-0.2,0.5l-62.6,50.8&#xA;&#9;&#9;C271.6,319.6,271.5,319.6,271.3,319.6L271.3,319.6z M268.8,314.8l2.6,3.2l61.5-50l-2.6-3.2L268.8,314.8z"/>
	
		<rect x="276.2" y="289" transform="matrix(0.7764 -0.6303 0.6303 0.7764 -124.3546 267.8928)" class="st1_team-presentation-7-89" width="78.2" height="40.4"/>
	<path class="st0_team-presentation-7-89" d="M297.7,350.3L297.7,350.3c-0.3,0-0.4-0.1-0.5-0.2l-25.5-31.4c-0.2-0.3-0.2-0.8,0.1-1c0,0,0,0,0,0l60.7-49.3&#xA;&#9;&#9;c0.3-0.2,0.8-0.2,1,0.1c0,0,0,0,0,0l25.5,31.4c0.1,0.1,0.2,0.3,0.1,0.5c0,0.2-0.1,0.4-0.2,0.5l-60.7,49.3&#xA;&#9;&#9;C298.1,350.2,297.9,350.3,297.7,350.3L297.7,350.3z M273.2,318.3l24.6,30.3l59.6-48.4l-24.6-30.3L273.2,318.3z"/>
	<path class="st2_team-presentation-7-89" d="M290.6,334.5c-0.2,0-0.4-0.1-0.5-0.2l-12.7-15.7c-0.1-0.1-0.2-0.3-0.1-0.5c0-0.2,0.1-0.3,0.2-0.5l53.8-43.7&#xA;&#9;&#9;c0.1-0.1,0.3-0.2,0.5-0.1c0.2,0,0.3,0.1,0.5,0.2l12.7,15.7c0.2,0.3,0.2,0.7-0.1,0.9l-53.8,43.7&#xA;&#9;&#9;C290.9,334.4,290.8,334.5,290.6,334.5L290.6,334.5z M278.9,318.2l11.9,14.6l52.8-42.8l-11.9-14.6L278.9,318.2L278.9,318.2z"/>
	<path class="st2_team-presentation-7-89" d="M319,328c-0.2,0-0.4-0.1-0.5-0.2l-6.2-7.6c-0.1-0.1-0.2-0.3-0.1-0.5c0-0.2,0.1-0.3,0.2-0.5l13.4-10.9&#xA;&#9;&#9;c0.3-0.2,0.7-0.2,0.9,0.1l6.2,7.6c0.2,0.3,0.2,0.7-0.1,0.9l-13.4,10.9C319.3,327.9,319.1,328,319,328L319,328z M313.7,319.8&#xA;&#9;&#9;l5.4,6.6l12.3-10l-5.4-6.6L313.7,319.8z"/>
	<path class="st1_team-presentation-7-89" d="M306.6,358.7c0,0,1.8-10.3,1-12.5s-2.5-6.9-3.7-5.6s-0.4,5.5-0.4,5.5s-2.1-3.1-4.1-6.3s-3.8-3.2-3.9-2.1&#xA;&#9;&#9;s1.7,5.7,1.7,5.7s-2.7-6.4-3.7-4.8s1,7.2,1,7.2s-3-6.9-4.1-4.5s0.2,7.2,1.1,8.9s7.9,14.4,7.9,14.4l8.2-6.4"/>
	<path class="st0_team-presentation-7-89" d="M299.5,365.3h-0.1c-0.2,0-0.4-0.2-0.5-0.4c-0.3-0.5-7.1-12.7-7.9-14.4s-2.4-6.9-1.1-9.5&#xA;&#9;&#9;c0.2-0.5,0.7-0.9,1.2-0.9c0.6,0.1,1.2,0.5,1.6,1c-0.2-1-0.1-1.9,0.3-2.8c0.2-0.4,0.6-0.6,1.1-0.5c0.3,0,0.6,0.2,0.8,0.4&#xA;&#9;&#9;c0-0.1,0-0.3,0-0.4c0-0.6,0.4-1.1,1-1.3c1.2-0.3,2.8,0.8,4.1,3c0.9,1.5,1.8,2.9,2.6,4c-0.1-1.2,0.2-2.4,0.8-3.4&#xA;&#9;&#9;c0.3-0.3,0.7-0.5,1.2-0.4c0.5,0.1,1.6,0.3,3.7,6.3c0.6,1.9-0.3,8.6-0.8,11.5c0.4-0.1,0.8,0.2,0.8,0.5c0.1,0.3,0,0.5-0.2,0.7&#xA;&#9;&#9;l-8.2,6.4C299.7,365.2,299.6,365.3,299.5,365.3L299.5,365.3z M291.2,341.6L291.2,341.6c-0.9,2,0.1,6.5,1.1,8.3&#xA;&#9;&#9;c0.7,1.4,6,10.9,7.5,13.6l6.2-4.9c0,0,0-0.1,0-0.1c0.7-3.9,1.6-10.7,1.1-12.1c-1.4-4.1-2.3-5.1-2.5-5.3c-0.6,0.8-0.5,3.3-0.2,4.9&#xA;&#9;&#9;c0.1,0.3-0.1,0.6-0.4,0.8c-0.3,0.1-0.7,0-0.8-0.2c0,0-2.1-3.1-4.1-6.3c-1.4-2.3-2.5-2.5-2.6-2.4c0.4,1.9,1,3.7,1.7,5.4&#xA;&#9;&#9;c0.1,0.4,0,0.8-0.4,0.9c-0.4,0.1-0.8,0-0.9-0.4c-0.6-1.6-1.5-3.1-2.5-4.5c-0.4,1,0.3,4,1.2,6.4c0.1,0.4-0.1,0.8-0.5,0.9&#xA;&#9;&#9;c-0.3,0.1-0.6-0.1-0.8-0.3C293,343.9,291.8,341.8,291.2,341.6L291.2,341.6z"/>
	<path class="st1_team-presentation-7-89" d="M334.7,307.8c0,0-10.1,2.8-12.3,2.3s-7.1-1.8-6-3.1s5.5-1,5.5-1s-3.3-1.8-6.7-3.4s-3.5-3.5-2.5-3.7&#xA;&#9;&#9;s5.9,1.2,5.9,1.2s-6.6-2-5.1-3.2s7.2,0.3,7.2,0.3s-7.1-2.3-4.9-3.7s7.2-0.5,9,0.2s15.1,6.4,15.1,6.4l-5.5,8.8"/>
	<path class="st0_team-presentation-7-89" d="M323.1,310.8c-0.3,0-0.6,0-0.9-0.1c-6.1-1.5-6.5-2.5-6.6-3c-0.1-0.4,0-0.9,0.3-1.2c0.9-0.7,2.1-1.2,3.3-1.2&#xA;&#9;&#9;c-1.2-0.6-2.7-1.4-4.2-2.2c-2.3-1.1-3.6-2.6-3.4-3.8c0.1-0.6,0.6-1.1,1.2-1.2c0.1,0,0.3,0,0.4,0c-0.2-0.2-0.4-0.5-0.4-0.7&#xA;&#9;&#9;c-0.1-0.4,0.1-0.9,0.4-1.1c0.8-0.5,1.8-0.7,2.8-0.6c-0.6-0.3-1-0.8-1.1-1.5c-0.1-0.6,0.2-1.1,0.7-1.3c2.5-1.5,7.8-0.6,9.6,0.1&#xA;&#9;&#9;s14.6,6.2,15.1,6.4c0.3,0.2,0.5,0.6,0.4,0.9c0,0,0,0.1,0,0.1l-5.5,8.8c-0.2,0.3-0.6,0.4-1,0.2c0,0,0,0,0,0&#xA;&#9;&#9;c-0.2-0.1-0.4-0.4-0.3-0.7C331.1,309.5,325.6,310.8,323.1,310.8L323.1,310.8z M317,307.4c0.2,0.2,1.3,1,5.6,2&#xA;&#9;&#9;c1.5,0.4,8.1-1.2,11.9-2.3h0.1l4.2-6.7c-2.8-1.2-12.8-5.5-14.3-6.1c-1.9-0.7-6.5-1.4-8.4-0.2c0,0-0.1,0.1-0.1,0.1&#xA;&#9;&#9;c0.2,0.4,2.5,1.5,4.9,2.3c0.4,0.1,0.5,0.5,0.4,0.9c-0.1,0.3-0.5,0.5-0.8,0.4c-2.5-0.6-5.5-1-6.5-0.6c1.5,0.9,3.1,1.6,4.7,2.1&#xA;&#9;&#9;c0.4,0.1,0.6,0.5,0.5,0.9c-0.1,0.4-0.5,0.6-0.9,0.5c-1.8-0.6-3.7-1-5.5-1.1c0,0.1,0.3,1.2,2.6,2.3c3.4,1.6,6.7,3.4,6.7,3.5&#xA;&#9;&#9;c0.3,0.2,0.4,0.5,0.3,0.8c-0.1,0.3-0.4,0.5-0.7,0.5C320.3,306.6,317.8,306.7,317,307.4L317,307.4z"/>
	<path class="st3_team-presentation-7-89 targetColor" d="M355,371.8c-2.5,4.8-4.6,9.8-6.3,15c0,0-20.5-5.6-21.8-6.3s-18.3-26.1-18.3-26.1l-11.5,8.2&#xA;&#9;&#9;c0,0,15.3,26.3,18.9,29.4s26.3,13.8,34.5,14.8s25.3-9.1,36.5-20.4s24.4-34.6,22.3-43.1s-8.9-13.2-11.5-15s-16.3-14.5-18.6-16&#xA;&#9;&#9;s-40.8-15.8-40.8-15.8l-4.1,12.3c0,0,34.8,15,36.8,16.3s17.5,22.4,17.5,22.4s-12.1,3.7-18,7.9S355,371.8,355,371.8L355,371.8z" style="fill: rgb(104, 225, 253);"/>
	<path class="st1_team-presentation-7-89" d="M392.5,370.1c-0.7-8.9-5.7-17-13.4-21.6c-3.4-2-7.4-3.3-11.4-2.7s-7.6,3.3-8.7,7.1c-2.1-0.6-4.5-0.2-6.2,1.2&#xA;&#9;&#9;c-4.7,3.5-4.5,10.4-3.5,15.5c0.7,3.7,1.9,7.2,3.7,10.4c4.5,7.7,14,11.8,22.8,10.6C385.6,389.4,393.2,379.9,392.5,370.1L392.5,370.1&#xA;&#9;&#9;z"/>
	<path class="st0_team-presentation-7-89" d="M372.8,391.6c-8.2,0-16.3-4.3-20.3-11.2c-1.9-3.3-3.1-6.9-3.8-10.6c-1.1-5.4-1.3-12.5,3.8-16.2&#xA;&#9;&#9;c1.8-1.3,4-1.9,6.2-1.5c1.5-3.8,4.9-6.5,9-7c4.7-0.7,9,1.1,11.8,2.8c7.9,4.7,13,13,13.8,22.1l0,0c0.7,10.2-7.2,20-17.2,21.4&#xA;&#9;&#9;C374.9,391.5,373.8,391.6,372.8,391.6L372.8,391.6z M357.2,353.4c-1.4,0-2.8,0.5-4,1.4c-4.5,3.3-4.2,9.9-3.2,14.8&#xA;&#9;&#9;c0.6,3.6,1.9,7,3.6,10.2c4.3,7.2,13.3,11.5,22.1,10.2c9.4-1.3,16.7-10.4,16-19.9l0,0c-0.7-8.7-5.6-16.5-13.1-21&#xA;&#9;&#9;c-2.6-1.5-6.6-3.2-10.9-2.6c-3.9,0.6-7.2,3.3-8.1,6.6c-0.1,0.2-0.2,0.3-0.4,0.4c-0.2,0.1-0.4,0.1-0.6,0&#xA;&#9;&#9;C358.3,353.5,357.7,353.4,357.2,353.4L357.2,353.4z"/>
	<path class="st1_team-presentation-7-89" d="M378.1,384.4c-0.2,1.2-0.1,2.5,0.5,3.7c0.4,0.5,0.7,1.1,1,1.7c0.1,0.6,0.1,1.2-0.1,1.7c-0.3,1.5-0.8,3-1.3,4.5&#xA;&#9;&#9;c-0.1,0.2-0.1,0.4-0.1,0.6c0.1,0.4,0.7,0.4,1.2,0.4c2.9-0.4,6-0.9,8.3-2.7c3-2.2,4.5-6.3,4.6-9.9c0-3-0.7-8.1-4.4-8.5&#xA;&#9;&#9;C383.5,375.6,378.8,380.3,378.1,384.4L378.1,384.4z"/>
	<path class="st0_team-presentation-7-89" d="M379,397.8c-0.6,0.1-1.2-0.3-1.5-0.9c-0.1-0.4-0.1-0.8,0.1-1.1c0.5-1.4,0.9-2.9,1.3-4.4&#xA;&#9;&#9;c0.1-0.5,0.2-0.9,0.1-1.4c-0.1-0.3-0.3-0.7-0.5-1c-0.1-0.2-0.3-0.4-0.4-0.6c-0.7-1.3-0.9-2.7-0.6-4.1c0.7-4.5,5.7-9.5,10.5-9&#xA;&#9;&#9;c3.8,0.4,5.1,5,5,9.2s-2,8.3-4.9,10.5c-2.6,1.9-5.9,2.4-8.6,2.8C379.3,397.8,379.2,397.8,379,397.8L379,397.8z M378.9,396.4&#xA;&#9;&#9;c0.1,0,0.3,0,0.4,0c2.7-0.4,5.7-0.9,8-2.5c2.6-1.9,4.3-5.6,4.3-9.4c0-0.8,0-7.4-3.8-7.8c-4.1-0.4-8.5,4.1-9,7.9l0,0&#xA;&#9;&#9;c-0.2,1.1-0.1,2.2,0.4,3.2c0.1,0.2,0.2,0.3,0.3,0.5c0.3,0.4,0.6,0.9,0.8,1.4c0.1,0.7,0.1,1.4-0.1,2.1&#xA;&#9;&#9;C379.9,393.3,379.5,394.8,378.9,396.4C378.9,396.4,378.9,396.4,378.9,396.4L378.9,396.4z M378.1,384.4L378.1,384.4z"/>
	<path class="st1_team-presentation-7-89" d="M359.9,191.8c0,0-10.9,7.3-13.3,7.9s-15,0.2-15,0.2l11.9-16.9c0,0,8.4-1.8,12.7-1.3S359.9,191.8,359.9,191.8&#xA;&#9;&#9;L359.9,191.8z"/>
	<path class="st0_team-presentation-7-89" d="M339.9,200.7c-3.9,0-8-0.1-8.3-0.1c-0.3,0-0.5-0.2-0.6-0.4c-0.1-0.2-0.1-0.5,0-0.7l11.9-16.9&#xA;&#9;&#9;c0.1-0.1,0.3-0.2,0.4-0.3c0.4-0.1,8.5-1.8,12.9-1.3c5,0.5,4.3,10.4,4.2,10.9c0,0.2-0.1,0.4-0.3,0.5c-1.1,0.8-11,7.4-13.5,8&#xA;&#9;&#9;C344.5,200.7,342.2,200.8,339.9,200.7L339.9,200.7z M333,199.2c4.1,0.1,11.8,0.2,13.5-0.2s9.6-5.5,12.8-7.6c0.1-2.7-0.1-8.7-3-9&#xA;&#9;&#9;c-3.8-0.4-10.8,0.9-12.2,1.2L333,199.2L333,199.2z M359.9,191.8L359.9,191.8z"/>
	<path class="st1_team-presentation-7-89" d="M313.6,150.1c0.4,1.9,0.5,3.9,0.3,5.8c-0.3,1.9,1.1,8.8,1.1,8.8l-13.3,11.1c0,0-3.3-16.7-2.5-19.6&#xA;&#9;&#9;s5.6-12.1,5.6-12.1L313.6,150.1z"/>
	<path class="st0_team-presentation-7-89" d="M301.8,176.5c-0.1,0-0.2,0-0.2,0c-0.2-0.1-0.4-0.3-0.5-0.5c-0.3-1.7-3.3-17-2.4-19.9s5.5-11.9,5.6-12.3&#xA;&#9;&#9;c0.1-0.2,0.3-0.3,0.5-0.4c0.2,0,0.4,0,0.6,0.1l8.7,6c0.1,0.1,0.2,0.2,0.2,0.3c0.4,2.1,0.5,4.2,0.3,6.2c-0.2,1.5,0.7,6.7,1.1,8.6&#xA;&#9;&#9;c0,0.3,0,0.5-0.2,0.7l-13.3,11C302.1,176.4,301.9,176.4,301.8,176.5L301.8,176.5z M305.2,145.1c-1.1,2.2-4.5,9-5.2,11.3&#xA;&#9;&#9;c-0.5,1.9,1,11.4,2.2,18.1l12-10c-0.3-1.6-1.3-6.9-1-8.7c0.2-1.8,0.1-3.6-0.2-5.3L305.2,145.1L305.2,145.1z"/>
	<path class="st3_team-presentation-7-89 targetColor" d="M402.8,134.4c1.2,7.1-9.9,47.5-12.1,49.7s-31.6,12.5-31.6,12.5l-4.9-16.9c0,0,20.9-9.6,22.1-10.6&#xA;&#9;&#9;s4.2-16.4,4.2-16.4s-18.5-2.8-25.5-8.7s-13.2-25-16.6-25.8s-13.9,5.5-15.4,8.1s-5.2,26.5-5.2,26.5l-17.5-5.4c0,0,4.9-24.6,7.8-31.7&#xA;&#9;&#9;s36.2-23.1,40-23.5S401.6,127.3,402.8,134.4L402.8,134.4z" style="fill: rgb(104, 225, 253);"/>
	<path class="st1_team-presentation-7-89" d="M337.4,133.3c0,0,0.5,7.6,5.6,13c0,0-0.9,2.4,0.9,3.1c1,0.4,2,0.6,3,0.5c0,0,10.6,5.4,16,2.8&#xA;&#9;&#9;s-2-24.3-11.3-24.1S337.4,133.3,337.4,133.3L337.4,133.3z"/>
	<path class="st0_team-presentation-7-89" d="M359.1,154.1c-5.2,0-11.4-3-12.5-3.5c-1.1,0-2.1-0.2-3.1-0.6c-1.6-0.6-1.7-2.4-1.4-3.5&#xA;&#9;&#9;c-4.9-5.5-5.5-12.8-5.5-13.1c0-0.2,0.1-0.4,0.2-0.6c0.2-0.2,5.1-4.6,14.6-4.9c6.4-0.2,11.6,9.1,13.2,15.6c1.2,5,0.6,8.6-1.6,9.7&#xA;&#9;&#9;C361.8,153.9,360.5,154.2,359.1,154.1L359.1,154.1z M346.8,149.2c0.1,0,0.2,0,0.3,0.1c0.1,0.1,10.3,5.3,15.4,2.8&#xA;&#9;&#9;c1.5-0.8,1.9-4,0.8-8.1c-1.7-7-6.7-14.6-11.7-14.6h-0.1c-7.8,0.2-12.3,3.4-13.4,4.3c0.2,1.5,1.1,7.7,5.4,12.2&#xA;&#9;&#9;c0.2,0.2,0.2,0.5,0.1,0.7c0,0.1-0.6,1.8,0.5,2.2C344.9,149.1,345.8,149.2,346.8,149.2L346.8,149.2L346.8,149.2z"/>
	<path class="st1_team-presentation-7-89" d="M337.4,133.3c3.6,4.5,9.5,6.5,15.1,5.1c0,0,1.5,10.6,10.3,14.3c0,0,16.4-6.3,19.7-18.4s-4.7-22.2-14.1-26.4&#xA;&#9;&#9;S335.2,109.2,337.4,133.3L337.4,133.3z"/>
	<path class="st0_team-presentation-7-89" d="M362.8,153.4c-0.1,0-0.2,0-0.3,0c-7.9-3.3-10.1-11.5-10.6-14.1c-5.7,1.1-11.5-1-15.1-5.5&#xA;&#9;&#9;c-0.1-0.1-0.1-0.2-0.1-0.4c-1.1-12.4,4.5-19.2,9.4-22.7c7.6-5.4,17.3-5.8,22.6-3.5c9.5,4.2,18.1,14.5,14.5,27.3&#xA;&#9;&#9;c-3.4,12.4-19.5,18.6-20.1,18.9C363,153.4,362.9,153.4,362.8,153.4L362.8,153.4z M352.5,137.7c0.4,0,0.6,0.3,0.7,0.6&#xA;&#9;&#9;c0,0.1,1.5,10,9.6,13.6c2.1-0.9,16-7,19-17.9c3.3-11.9-4.8-21.6-13.8-25.6c-5-2.2-14.3-1.6-21.2,3.4c-4.6,3.3-9.8,9.6-8.8,21.2&#xA;&#9;&#9;c3.4,4.2,9,6,14.3,4.7L352.5,137.7z"/>
	<path class="st1_team-presentation-7-89" d="M295.5,180.7l15.7-22.8c0.9-1.3,2.6-1.6,3.8-0.7l30.7,21.1c1.3,0.9,1.6,2.6,0.7,3.8l-15.7,22.8&#xA;&#9;&#9;c-0.9,1.3-2.6,1.6-3.8,0.7l-30.7-21.1C295,183.6,294.7,181.9,295.5,180.7z"/>
	<path class="st0_team-presentation-7-89" d="M328.2,206.4c-0.9,0-1.8-0.3-2.6-0.8l-28.9-19.9c-2.1-1.4-2.6-4.3-1.2-6.3l14.5-21c1.4-2.1,4.3-2.6,6.3-1.2&#xA;&#9;&#9;l28.9,19.8c2.1,1.4,2.6,4.2,1.2,6.3c0,0,0,0,0,0l-14.5,21C331.1,205.6,329.7,206.3,328.2,206.4L328.2,206.4z M313.8,157.8&#xA;&#9;&#9;c-1,0-2,0.5-2.6,1.4l-14.5,21c-1,1.4-0.6,3.4,0.8,4.4l28.9,19.9c1.4,1,3.4,0.6,4.4-0.8l14.5-21c1-1.4,0.6-3.4-0.8-4.4l-28.9-19.9&#xA;&#9;&#9;C315,158,314.4,157.8,313.8,157.8z"/>
	<path class="st1_team-presentation-7-89" d="M299.4,180.7l13.3-19.3c0.5-0.7,1.4-0.8,2-0.4l27.5,18.9c0.7,0.5,0.8,1.4,0.4,2l-13.3,19.3&#xA;&#9;&#9;c-0.5,0.7-1.4,0.8-2,0.4l-27.5-18.9C299.1,182.3,298.9,181.4,299.4,180.7z"/>
	<path class="st0_team-presentation-7-89" d="M327.9,202.4c-0.6,0-1.1-0.2-1.5-0.5l-26.5-18.3c-0.6-0.4-1-1-1.1-1.8c-0.1-0.7,0-1.4,0.4-2l12.6-18.4&#xA;&#9;&#9;c0.9-1.2,2.5-1.6,3.8-0.7l0,0l26.5,18.3c0.6,0.4,1,1,1.1,1.8c0.1,0.7,0,1.4-0.4,2l-12.6,18.4C329.7,202,328.8,202.4,327.9,202.4z&#xA;&#9;&#9; M314,161.7c-0.4,0-0.8,0.2-1.1,0.6l-12.6,18.4c-0.2,0.3-0.3,0.7-0.2,1c0.1,0.3,0.3,0.7,0.5,0.9l26.5,18.3c0.6,0.4,1.4,0.3,1.8-0.3&#xA;&#9;&#9;c0,0,0,0,0,0l12.6-18.4c0.2-0.3,0.3-0.7,0.2-1c-0.1-0.3-0.3-0.7-0.5-0.9L314.8,162C314.5,161.8,314.3,161.8,314,161.7L314,161.7z"/>
	<path class="st1_team-presentation-7-89" d="M341.9,192.2c0,0-9.8,1.6-10.8-0.1s1-4.3,2.9-4.8s11.8-1.2,11.8-1.2"/>
	<path class="st0_team-presentation-7-89" d="M334.9,193.5c-2.1,0-3.9-0.3-4.4-1.1c-0.5-0.8-0.5-1.8-0.2-2.6c0.6-1.5,1.9-2.7,3.5-3.2&#xA;&#9;&#9;c1.9-0.5,11.6-1.2,12-1.2c0.4,0,0.7,0.3,0.8,0.6s-0.3,0.7-0.6,0.8c-2.8,0.2-10.2,0.8-11.7,1.2c-1.1,0.4-2.1,1.3-2.5,2.4&#xA;&#9;&#9;c-0.2,0.4-0.2,0.9,0,1.4c0.5,0.7,5.2,0.6,10.1-0.2c0.4-0.1,0.8,0.2,0.8,0.5c0.1,0.4-0.2,0.8-0.5,0.8c0,0-0.1,0-0.1,0&#xA;&#9;&#9;C339.7,193.3,337.3,193.5,334.9,193.5L334.9,193.5z"/>
	<path class="st1_team-presentation-7-89" d="M304.1,161c0,0.2-0.5,10.6,1.9,11.5s2.3-1.8,2.6-4.2s-0.5-6.4,0.9-9.3"/>
	<path class="st0_team-presentation-7-89" d="M306.8,173.4c-0.3,0-0.7-0.1-1-0.2c-2.3-0.8-2.6-7-2.4-12c0-0.4,0.3-0.7,0.7-0.7l0,0c0.4,0,0.7,0.3,0.7,0.6&#xA;&#9;&#9;c0,0,0,0,0,0v0.1c-0.2,6.6,0.5,10.4,1.4,10.7c0.3,0.1,0.6,0.1,0.9,0c0.5-0.3,0.6-1.5,0.7-2.6c0-0.3,0.1-0.7,0.1-1&#xA;&#9;&#9;c0.1-0.9,0.1-1.8,0-2.7c0-2.2-0.1-4.8,0.9-6.8c0.2-0.4,0.6-0.5,0.9-0.3s0.5,0.6,0.3,0.9c-0.8,1.8-0.8,4.1-0.7,6.2&#xA;&#9;&#9;c0,1,0,1.9-0.1,2.9c0,0.3-0.1,0.6-0.1,0.9c-0.2,1.6-0.3,3-1.3,3.7C307.5,173.3,307.2,173.4,306.8,173.4L306.8,173.4z"/>
	
		<rect x="153.6" y="302.4" transform="matrix(0.7043 -0.7099 0.7099 0.7043 -178.2719 228.3215)" class="st1_team-presentation-7-89" width="62.7" height="51.4"/>
	<path class="st0_team-presentation-7-89" d="M181.1,369.2c-0.2,0-0.4-0.1-0.5-0.2l-36.5-36.2c-0.1-0.1-0.2-0.3-0.2-0.5c0-0.2,0.1-0.4,0.2-0.5l44.1-44.5&#xA;&#9;&#9;c0.3-0.3,0.7-0.3,1,0c0,0,0,0,0,0l36.5,36.2c0.1,0.1,0.2,0.3,0.2,0.5c0,0.2-0.1,0.4-0.2,0.5L181.6,369&#xA;&#9;&#9;C181.4,369.1,181.3,369.2,181.1,369.2L181.1,369.2z M145.6,332.3l35.5,35.2l43.1-43.5l-35.5-35.2L145.6,332.3L145.6,332.3z"/>
	<path class="st2_team-presentation-7-89" d="M211.6,326.3c-0.2,0-0.3-0.1-0.5-0.2l-24.6-24.4c-0.3-0.3-0.3-0.7,0-1c0.3-0.3,0.7-0.3,0.9,0l24.6,24.4&#xA;&#9;&#9;c0.3,0.3,0.3,0.7,0,1C212,326.2,211.8,326.3,211.6,326.3L211.6,326.3z"/>
	<path class="st2_team-presentation-7-89" d="M204.6,333.4c-0.2,0-0.3-0.1-0.5-0.2l-24.6-24.4c-0.3-0.3-0.3-0.7,0-1c0.2-0.3,0.7-0.3,0.9-0.1&#xA;&#9;&#9;c0,0,0,0,0.1,0.1l24.6,24.4c0.3,0.3,0.3,0.7,0,1C205,333.4,204.8,333.4,204.6,333.4L204.6,333.4z"/>
	<path class="st2_team-presentation-7-89" d="M197.5,340.5c-0.2,0-0.3-0.1-0.5-0.2l-24.6-24.4c-0.3-0.3-0.3-0.7,0-1c0.3-0.3,0.7-0.3,1,0l24.6,24.5&#xA;&#9;&#9;c0.3,0.3,0.3,0.7,0,1C197.9,340.5,197.7,340.5,197.5,340.5L197.5,340.5z"/>
	<path class="st2_team-presentation-7-89" d="M190.5,347.6c-0.2,0-0.3-0.1-0.5-0.2L165.4,323c-0.3-0.3-0.3-0.7,0-1s0.7-0.3,1,0l0,0l24.6,24.4&#xA;&#9;&#9;c0.3,0.3,0.3,0.7,0,1C190.9,347.6,190.7,347.6,190.5,347.6L190.5,347.6z"/>
	<path class="st2_team-presentation-7-89" d="M173.2,344.6c-0.2,0-0.3-0.1-0.5-0.2l-14.4-14.3c-0.3-0.3-0.3-0.7,0-1c0.3-0.3,0.7-0.3,0.9,0l14.4,14.3&#xA;&#9;&#9;c0.3,0.3,0.3,0.7,0,1C173.6,344.5,173.4,344.6,173.2,344.6L173.2,344.6z"/>
	<path class="st1_team-presentation-7-89" d="M130.6,341.1c1.9-2,5-2.2,7.8-2.2c1.8-0.1,3.7,0.1,5.5,0.6c2.4,0.9,4.2,2.8,6,4.7c2.9,3.2,6,6.7,6.2,11&#xA;&#9;&#9;c0.4,5.6-4.7,10.6-10.3,11.5s-11.2-1.5-15.7-5c-2.3-1.9-4.5-4.2-5-7.1c-0.4-3,0.6-6,2.6-8.2c2-2.2,4.3-4.1,6.9-5.6"/>
	<path class="st0_team-presentation-7-89" d="M143.4,367.7c-6,0-11-3.3-13.7-5.4c-3.1-2.5-4.8-4.9-5.3-7.6c-0.4-3.2,0.6-6.4,2.7-8.8c2-2.3,4.4-4.2,7-5.8&#xA;&#9;&#9;c0.3-0.2,0.8-0.2,1,0.2c0,0,0,0,0,0c0.2,0.3,0.2,0.7-0.1,1c0,0,0,0-0.1,0c-2.5,1.5-4.8,3.4-6.7,5.5c-1.9,2.1-2.8,4.9-2.4,7.7&#xA;&#9;&#9;c0.4,2.3,2,4.5,4.8,6.7s8.6,5.9,15.1,4.9c5-0.8,10-5.3,9.7-10.8c-0.2-3.9-3-7.2-6.1-10.5c-1.6-1.7-3.4-3.7-5.7-4.5&#xA;&#9;&#9;c-1.7-0.5-3.5-0.7-5.2-0.6c-2.8,0-5.6,0.1-7.3,2c-0.2,0.3-0.6,0.4-1,0.2c-0.3-0.2-0.4-0.6-0.2-1c0-0.1,0.1-0.1,0.2-0.2&#xA;&#9;&#9;c2.1-2.2,5.4-2.4,8.3-2.4c1.9-0.1,3.9,0.1,5.7,0.7c2.6,1,4.6,3,6.3,4.9c3.2,3.5,6.2,7,6.4,11.4c0.4,6.2-5.3,11.4-10.9,12.2&#xA;&#9;&#9;C145.1,367.6,144.3,367.7,143.4,367.7L143.4,367.7z"/>
	<path class="st1_team-presentation-7-89" d="M154.4,292.7c0.8-0.3,1.6-0.6,2.5-0.8c1-0.1,5.1-0.5,8.7-1.1s5.9-1.2,5.3-2.3s-6.9-1.3-6.9-1.3s5-4,6.8-4.8&#xA;&#9;&#9;s2.8-1.4,2.7-2.3s-0.2-1.9-4.7,0.7c0,0,4.3-3.4,2.6-4.1s-5.1,1.9-5.1,1.9s3.9-3.3,3.2-4.2s-5.2,1.1-5.2,1.1s4.4-2.4,3.3-3.3&#xA;&#9;&#9;s-4.7,0.1-9.1,3.2s-11.6,8.8-11.6,8.8L154.4,292.7L154.4,292.7z"/>
	<path class="st0_team-presentation-7-89" d="M154.4,293.4c-0.2,0-0.4-0.1-0.5-0.2l-7.7-8.5c-0.1-0.1-0.2-0.3-0.2-0.5c0-0.2,0.1-0.4,0.3-0.5&#xA;&#9;&#9;c0.1-0.1,7.2-5.8,11.6-8.8c4.7-3.2,8.4-4.4,10-3.1c0.3,0.2,0.5,0.6,0.4,1c0,0.3-0.2,0.6-0.4,0.8c0.7-0.2,1.5-0.1,2,0.4&#xA;&#9;&#9;c0.4,0.5,0.3,1.2-0.3,2.1c0.6-0.2,1.3-0.2,1.9,0c0.5,0.1,0.8,0.5,0.9,1c0,0.5-0.1,1.1-0.5,1.5c0.5-0.2,1-0.1,1.4,0&#xA;&#9;&#9;c0.5,0.3,0.8,0.8,0.8,1.4c0.2,1.5-1.4,2.3-3.1,3c-1.8,1-3.6,2.2-5.2,3.6c2.6,0.2,5.1,0.6,5.6,1.6c0.2,0.4,0.2,0.8,0,1.2&#xA;&#9;&#9;c-0.4,0.9-1.9,1.4-5.9,2.1c-3.1,0.6-6.7,0.9-8.2,1l-0.6,0c-0.8,0.1-1.5,0.4-2.3,0.7c-0.1,0-0.2,0.1-0.3,0.1L154.4,293.4z&#xA;&#9;&#9; M147.7,284.3l6.8,7.6c0.7-0.3,1.5-0.5,2.2-0.6l0.6,0c1.5-0.1,5-0.5,8.1-1s4.6-1,4.9-1.4c-2.1-0.6-4.2-0.9-6.3-0.9&#xA;&#9;&#9;c-0.3,0-0.5-0.2-0.6-0.5c-0.1-0.3,0-0.6,0.2-0.8c0.2-0.2,5.1-4.1,7-4.9c1.6-0.7,2.3-1.2,2.3-1.6c0-0.1,0-0.3-0.1-0.4&#xA;&#9;&#9;c0,0-0.6-0.1-3.6,1.6c-0.3,0.2-0.7,0.1-0.9-0.2c-0.2-0.3-0.1-0.7,0.1-0.9c1.4-1.1,2.7-2.6,2.7-3c-1.1-0.3-3.4,1.1-4.4,1.9&#xA;&#9;&#9;c-0.3,0.2-0.8,0.1-1-0.2c-0.2-0.3-0.1-0.6,0.1-0.9c1.2-0.9,2.2-2,3-3.3c-1.5,0.2-2.9,0.7-4.3,1.4c-0.3,0.2-0.8,0-0.9-0.3&#xA;&#9;&#9;c-0.2-0.3,0-0.7,0.3-0.9c1.1-0.6,2.1-1.3,3-2.2c-0.8-0.4-3.6,0.1-8.2,3.3C155,278.5,149.5,282.9,147.7,284.3L147.7,284.3z"/>
	<polygon class="st0_team-presentation-7-89" points="151.8,295.2 155.2,293 147,282.9 141.6,286.4 &#9;"/>
	<path class="st0_team-presentation-7-89" d="M151.8,295.9c-0.2,0-0.3-0.1-0.5-0.2l-10.2-8.7c-0.2-0.1-0.3-0.4-0.2-0.6c0-0.2,0.1-0.4,0.3-0.5l5.4-3.5&#xA;&#9;&#9;c0.3-0.2,0.7-0.1,0.9,0.1l8.2,10.1c0.2,0.3,0.2,0.7-0.1,1c0,0,0,0,0,0l-3.4,2.2C152.1,295.9,151.9,295.9,151.8,295.9L151.8,295.9z&#xA;&#9;&#9; M142.7,286.5l9.1,7.8l2.3-1.5l-7.3-9L142.7,286.5L142.7,286.5z"/>
	<path class="st1_team-presentation-7-89" d="M174.2,361.1c0,0-3.8-6.5-4.2-8.9s0.4-6.4,1-6.5s2.2,3.2,1.9,5.2c0,0,3.4-9.9,5.2-10.2s1.5,1.9,1,3.1&#xA;&#9;&#9;c0,0,1.6-3,2.4-2.3s0.4,3.6,0.4,3.6s1.2-3.2,2.1-2.6s0.4,3.4,0.4,3.4s1.2-3.3,1.9-1.9s0.6,15.2-1.1,19.4S174.3,361.1,174.2,361.1&#xA;&#9;&#9;L174.2,361.1z"/>
	<path class="st0_team-presentation-7-89" d="M182.8,365.5c-3.4,0-8.4-3.4-9-3.8c-0.1-0.1-0.1-0.1-0.2-0.2c-0.2-0.3-3.9-6.6-4.3-9.2&#xA;&#9;&#9;c-0.4-2.3,0.2-5.9,0.9-6.9c0.2-0.2,0.4-0.4,0.7-0.4c0.4,0,0.8,0.1,1,0.4c0.6,0.8,1.1,1.6,1.3,2.5c1.3-3.4,3.2-7.7,4.8-7.9&#xA;&#9;&#9;c0.7-0.2,1.3,0.1,1.8,0.6c0.1,0.2,0.2,0.4,0.3,0.6c0.2-0.2,0.6-0.4,0.9-0.5c0.4-0.1,0.7,0,1,0.3c0.4,0.4,0.6,0.8,0.7,1.4&#xA;&#9;&#9;c0.2-0.2,0.5-0.4,0.7-0.5c0.3-0.1,0.7-0.1,1,0.1c0.4,0.3,0.7,0.8,0.8,1.3c0.2-0.2,0.4-0.3,0.7-0.3c0.5,0,0.9,0.3,1.1,0.7&#xA;&#9;&#9;c0.9,1.7,0.6,15.9-1.1,20c-0.3,0.8-1,1.5-1.9,1.7C183.6,365.5,183.2,365.6,182.8,365.5L182.8,365.5z M174.8,360.7&#xA;&#9;&#9;c1.8,1.2,6.6,4,8.8,3.4c0.5-0.1,0.8-0.4,1-0.9c1.6-3.9,1.7-16,1.2-18.5c-0.3,0.5-0.5,1-0.7,1.5c-0.1,0.3-0.5,0.5-0.9,0.4&#xA;&#9;&#9;c-0.4-0.1-0.6-0.5-0.5-0.8c0.2-0.9,0.2-1.7,0-2.6c-0.5,0.6-0.9,1.4-1.2,2.1c-0.1,0.4-0.5,0.6-0.9,0.4c-0.3-0.1-0.5-0.5-0.5-0.8&#xA;&#9;&#9;c0.2-0.9,0.2-1.9-0.1-2.8c-0.6,0.6-1.1,1.2-1.4,2c-0.2,0.3-0.6,0.5-1,0.3c-0.3-0.2-0.4-0.5-0.3-0.9c0.3-0.6,0.4-1.4,0.2-2.1&#xA;&#9;&#9;c-0.1-0.1-0.4-0.1-0.5-0.1c-0.8,0.3-2.9,4.7-4.6,9.7c-0.1,0.3-0.5,0.5-0.8,0.5c-0.4-0.1-0.6-0.4-0.5-0.8c0.1-1.4-0.3-2.8-1.1-4&#xA;&#9;&#9;c-0.5,1.7-0.7,3.5-0.4,5.3C171.1,354,173.7,358.8,174.8,360.7L174.8,360.7z"/>
	<polygon class="st0_team-presentation-7-89" points="173.3,364.6 174.2,361.1 185.2,363.4 184,369.3 &#9;"/>
	<path class="st0_team-presentation-7-89" d="M184,370c-0.1,0-0.2,0-0.3-0.1l-10.7-4.7c-0.3-0.1-0.5-0.5-0.4-0.8l1-3.4c0.1-0.4,0.5-0.6,0.8-0.5l10.9,2.3&#xA;&#9;&#9;c0.4,0.1,0.6,0.4,0.5,0.8c0,0,0,0,0,0l-1.2,5.9c0,0.2-0.2,0.4-0.4,0.5C184.2,370,184.1,370,184,370L184,370z M174.1,364.2l9.4,4.1&#xA;&#9;&#9;l0.9-4.4l-9.6-2L174.1,364.2L174.1,364.2z"/>
	<path class="st3_team-presentation-7-89 targetColor" d="M126.3,346.6c0,0-10-5.9-15.6-6.8c0,0,10.5-21,11.8-22.4s30.8-22,30.8-22L143,283.9c0,0-30.3,20-36.7,26.9&#xA;&#9;&#9;s-19.2,24.9-15.8,36.3s7,25.4,22,38.4c11.3,10,25.6,15.8,40.6,16.6c10,0.5,20.9-2.1,24.1-5.2s7.9-29.9,7.9-29.9l-13.7-3.7&#xA;&#9;&#9;l-4.6,21.9l-11.2-4.2c0,0-1.5-9.3-12.7-18.5S126.3,346.6,126.3,346.6L126.3,346.6z" style="fill: rgb(104, 225, 253);"/>
	<path class="st1_team-presentation-7-89" d="M130,385.2c3,0.1,6-0.6,8.6-2.2c6.5-4,12.1-8.2,16.2-14.8c1.6-2.5,2.8-5.7,1.7-8.5c-1.4-3.5-6.4-5.1-7.3-8.7&#xA;&#9;&#9;c-0.3-1.2,0.1-2.5-0.3-3.7c-0.5-1.2-1.5-2-2.8-2.3c-0.6-0.1-1.1-0.2-1.7-0.4c-1-0.6-1.9-1.4-2.6-2.3c-2.4-2.2-5.6-3.2-8.8-2.8&#xA;&#9;&#9;c-3.2,0.5-6.2,1.8-8.7,3.7c-7.1,5.1-14.3,15.5-13,24.6C112.7,377,120.7,384.8,130,385.2L130,385.2z"/>
	<path class="st0_team-presentation-7-89" d="M130.7,385.9H130c-9.2-0.4-17.9-8.4-19.2-17.8c-1.3-9.3,5.8-20,13.2-25.3c2.6-2,5.7-3.4,9-3.9&#xA;&#9;&#9;c3.4-0.5,6.9,0.6,9.4,3c0.2,0.2,0.4,0.4,0.6,0.7c0.5,0.6,1,1.1,1.7,1.5c0.3,0.1,0.7,0.2,1,0.2l0.6,0.1c1.5,0.3,2.7,1.3,3.3,2.7&#xA;&#9;&#9;c0.2,0.7,0.3,1.5,0.2,2.2c0,0.5,0,1,0.1,1.5c0.4,1.6,1.9,2.9,3.4,4.2s3.1,2.6,3.8,4.4c1,2.5,0.4,5.5-1.8,9.1&#xA;&#9;&#9;c-4.3,7.1-10.4,11.5-16.4,15.1C136.5,385.1,133.6,385.9,130.7,385.9L130.7,385.9z M134.6,340.2c-0.5,0-0.9,0-1.4,0.1&#xA;&#9;&#9;c-3.1,0.5-5.9,1.7-8.4,3.6c-7.1,5.1-13.9,15.2-12.7,24s9.3,16.3,17.9,16.6l0,0c2.9,0.1,5.7-0.6,8.2-2.1c5.8-3.5,11.8-7.8,16-14.6&#xA;&#9;&#9;c1.9-3.2,2.5-5.8,1.7-7.8c-0.6-1.5-2-2.6-3.4-3.9c-1.7-1.4-3.4-2.8-3.9-4.9c-0.1-0.6-0.2-1.3-0.1-1.9c0.1-0.6,0-1.2-0.1-1.7&#xA;&#9;&#9;c-0.4-0.9-1.3-1.6-2.3-1.8l-0.5-0.1c-0.4-0.1-0.8-0.2-1.2-0.3c-0.9-0.4-1.6-1.1-2.2-1.8c-0.2-0.2-0.4-0.4-0.6-0.6&#xA;&#9;&#9;C139.7,341.1,137.2,340.1,134.6,340.2L134.6,340.2z"/>
	<path class="st1_team-presentation-7-89" d="M158.4,193.4c3.1-1,6.5-1.2,9.7-0.5c0,0,1.3-2.8,3.3-3.1s1.6,0.5,1.6,0.5s1.6-2,2.6-1.3c0,0,2,0.9,2.2,2.1&#xA;&#9;&#9;c0,0,2.6-0.9,3,0.6s-1.8,4.6-5.1,7.5s-7.4,5-8.7,5.1s-10.5-1.8-10.5-1.8L158.4,193.4L158.4,193.4z"/>
	<path class="st0_team-presentation-7-89" d="M167,205c-1.5,0-9-1.5-10.6-1.8c-0.4-0.1-0.6-0.4-0.6-0.8l1.8-9.1c0-0.2,0.2-0.4,0.4-0.5&#xA;&#9;&#9;c3.1-1,6.4-1.2,9.6-0.6c0.5-0.9,1.8-2.7,3.5-3c0.6-0.2,1.2-0.2,1.8,0c0.9-0.8,2-1.3,2.8-0.7c0.9,0.4,1.7,1.1,2.3,1.9&#xA;&#9;&#9;c0.8-0.2,1.6-0.2,2.4,0.1c0.4,0.2,0.8,0.6,0.9,1.1c0.6,2.1-2.3,5.6-5.4,8.2S168.6,204.9,167,205L167,205L167,205z M157.4,202&#xA;&#9;&#9;c3.6,0.7,8.8,1.7,9.6,1.6s4.7-2,8.2-5c3.4-2.9,5.2-5.7,4.9-6.8c0-0.1-0.1-0.2-0.2-0.2c-0.6-0.2-1.3-0.1-1.9,0.1&#xA;&#9;&#9;c-0.2,0.1-0.4,0.1-0.6,0c-0.2-0.1-0.3-0.3-0.3-0.5c-0.1-0.7-1.3-1.4-1.8-1.6c-0.1,0-0.1-0.1-0.2-0.1c-0.2-0.1-1,0.4-1.6,1.2&#xA;&#9;&#9;c-0.2,0.3-0.6,0.3-0.9,0.1c-0.2-0.1-0.3-0.3-0.3-0.5c-0.3,0-0.5,0-0.8,0.1c-1.4,0.3-2.5,2.1-2.8,2.8c-0.1,0.3-0.5,0.5-0.8,0.4&#xA;&#9;&#9;c-3-0.7-6-0.6-8.9,0.3L157.4,202L157.4,202z M172.4,190L172.4,190z"/>
	<path class="st0_team-presentation-7-89" d="M172.6,202.9c-0.1,0-0.2,0-0.4-0.1c-0.3-0.2-0.5-0.6-0.3-0.9c0,0,0,0,0-0.1l9.6-16.4c0.2-0.3,0.6-0.4,1-0.2&#xA;&#9;&#9;s0.4,0.6,0.2,1l-9.6,16.4C173.1,202.7,172.8,202.9,172.6,202.9z"/>
	<path class="st1_team-presentation-7-89" d="M174.9,191.8c1.1-0.3,2.2-0.4,3.3-0.4c0.5-0.1,1,0.1,1.4,0.4c0.3,0.4,0.4,0.9,0.2,1.4c-0.2,0.4-0.6,0.8-1,1.1&#xA;&#9;&#9;c-1.4,0.7-2.8,1.3-4.3,1.6c-0.3,0.1-0.7,0.2-0.9,0.4c-0.4,0.3-0.7,0.7-0.9,1.1c-1.1,1.3-2.4,2.3-3.9,3"/>
	<path class="st0_team-presentation-7-89" d="M168.7,201c-0.3,0-0.5-0.1-0.6-0.4c-0.2-0.3-0.1-0.7,0.2-1c0,0,0.1,0,0.1,0c1.4-0.7,2.6-1.6,3.7-2.7l0.2-0.2&#xA;&#9;&#9;c0.2-0.4,0.5-0.7,0.9-1c0.4-0.2,0.7-0.4,1.2-0.5l0.9-0.3c1.1-0.3,2.2-0.7,3.2-1.3c0.3-0.2,0.6-0.5,0.8-0.8c0.1-0.2,0.1-0.4,0-0.6&#xA;&#9;&#9;c-0.3-0.2-0.6-0.2-0.9-0.2c-1.1,0-2.1,0.1-3.2,0.4c-0.4,0.1-0.8-0.1-0.8-0.5c-0.1-0.4,0.1-0.8,0.5-0.8c1.1-0.3,2.3-0.4,3.5-0.4&#xA;&#9;&#9;c0.7-0.1,1.4,0.1,1.9,0.6c0.5,0.6,0.7,1.5,0.3,2.2c-0.3,0.6-0.7,1.1-1.3,1.4c-1.1,0.7-2.3,1.2-3.6,1.5l-0.9,0.3&#xA;&#9;&#9;c-0.3,0.1-0.5,0.2-0.8,0.3c-0.2,0.2-0.4,0.4-0.6,0.6l-0.2,0.2c-1.1,1.3-2.6,2.4-4.2,3.2C168.9,201,168.8,201,168.7,201L168.7,201z"/>
	<path class="st1_team-presentation-7-89" d="M191.4,164.9c0,0-2,2.2-3.1,7.2s-1.8,9.3-0.8,9.4s3.3-4.6,3.3-4.6s0.7,11,2.5,11c0.9,0,1.7-0.7,1.7-1.6&#xA;&#9;&#9;c0-0.1,0-0.2,0-0.2c0,0,1.1,2.3,2,1.5c0.5-0.7,0.7-1.5,0.4-2.3c0,0,1.2,2.1,1.9,1.3c0.4-0.6,0.5-1.4,0.3-2.1c0,0,1.6,1.9,2,0.5&#xA;&#9;&#9;s-0.8-12.8-2.2-17.1c-0.7-2.4-1.7-4.7-3-6.8L191.4,164.9L191.4,164.9z"/>
	<path class="st0_team-presentation-7-89" d="M193.5,188.6L193.5,188.6c-1.5,0-2.5-3.1-3.1-9.2c-1.1,1.9-2.1,2.9-2.8,2.8c-0.3,0-0.6-0.2-0.8-0.5&#xA;&#9;&#9;c-0.5-0.7-0.8-2.4,0.9-9.8c1.2-5.1,3.2-7.4,3.2-7.5l0.1-0.1l5.1-4c0.2-0.1,0.3-0.2,0.5-0.1c0.2,0,0.4,0.1,0.5,0.3&#xA;&#9;&#9;c1.3,2.2,2.3,4.5,3.1,7c1.3,4.1,2.7,15.8,2.2,17.6c-0.1,0.5-0.5,0.9-1,1c-0.3,0.1-0.7,0-1-0.2c-0.1,0.4-0.2,0.7-0.5,1&#xA;&#9;&#9;c-0.2,0.3-0.6,0.5-1,0.4c-0.3,0-0.5-0.1-0.8-0.3c-0.1,0.4-0.3,0.7-0.6,0.9c-0.3,0.3-0.7,0.4-1.1,0.4c-0.4-0.1-0.8-0.4-1.1-0.7&#xA;&#9;&#9;c-0.1,0.1-0.1,0.2-0.2,0.2C194.7,188.3,194,188.6,193.5,188.6L193.5,188.6z M190.9,176.1L190.9,176.1c0.4,0.1,0.6,0.3,0.7,0.6&#xA;&#9;&#9;c0.3,5.2,1.2,9.9,1.9,10.4c0.2,0,0.4-0.1,0.6-0.2c0.2-0.2,0.3-0.6,0.3-0.9c0-0.3,0.2-0.6,0.5-0.7c0.3-0.1,0.7,0.1,0.8,0.4&#xA;&#9;&#9;c0.2,0.5,0.6,0.9,1,1.3c0.5-0.5,0.2-1.6,0.2-1.6c-0.1-0.3,0.1-0.7,0.4-0.9c0.3-0.1,0.7,0,0.9,0.3c0.2,0.4,0.5,0.7,0.8,1.1&#xA;&#9;&#9;c0.2-0.4,0.2-0.9,0.1-1.3c-0.1-0.4,0.1-0.8,0.5-0.9c0.3-0.1,0.6,0,0.7,0.2c0.2,0.3,0.5,0.5,0.8,0.7c0.3-1.7-0.8-12.2-2.1-16.7&#xA;&#9;&#9;c-0.6-2.1-1.5-4.1-2.5-6l-4.5,3.5c-1.5,2-2.4,4.4-2.9,6.8c-1.4,6-1.3,7.9-1.2,8.4c1-1.3,1.8-2.7,2.4-4.1&#xA;&#9;&#9;C190.3,176.3,190.6,176.2,190.9,176.1L190.9,176.1z M187.9,180.9L187.9,180.9z"/>
	<path class="st3_team-presentation-7-89 targetColor" d="M114.9,121.2c0,0,13.3-14.9,22.8-19s18.1-4.3,24,0.6s21.1,18.9,24,25.2c2.9,6.4,14.2,34.2,14.2,34.2l-13.5,6.3&#xA;&#9;&#9;c0,0-13.3-31-14.3-33.6s-18.6-13.8-19.2-14.4s-4.2,14.6-10.3,20.8s-26.8,21.4-26.8,21.4s14.1,17.3,16.6,19.7s30.6,7.9,30.6,7.9&#xA;&#9;&#9;l-3.7,14.2c0,0-29.9-4.6-34.6-6.6S94.4,180,93.3,164.8S114.9,121.2,114.9,121.2L114.9,121.2z" style="fill: rgb(104, 225, 253);"/>
	<path class="st1_team-presentation-7-89" d="M146.7,126.9c1.7,2.2,3.2,4.6,4.3,7.1c1.4,3.2,2.5,6.7,1.9,10.2s-3.2,6.8-6.7,7.1c1.3,4.1-1.3,8.8-5.1,10.8&#xA;&#9;&#9;s-8.5,1.8-12.6,0.5c-10.4-3.3-18.2-11.9-20.4-22.5c-1.8-8.5,3-19,11.9-21.5C129.1,116.1,140.6,119.5,146.7,126.9L146.7,126.9z"/>
	<path class="st0_team-presentation-7-89" d="M134.5,164.3c-2.2,0-4.3-0.4-6.3-1c-10.6-3.4-18.5-12.2-20.8-23.1c-1.7-8.4,2.9-19.7,12.4-22.3&#xA;&#9;&#9;s21.4,1,27.5,8.5l0,0c1.8,2.2,3.2,4.7,4.4,7.3c1.2,2.6,2.6,6.6,2,10.6c-0.6,3.3-2.9,6.8-6.5,7.6c1,4.4-2,8.9-5.7,10.8&#xA;&#9;&#9;C139.3,163.8,136.9,164.3,134.5,164.3L134.5,164.3z M126.3,118.5c-2.1,0-4.2,0.3-6.2,0.8c-8.7,2.4-13,12.9-11.4,20.7&#xA;&#9;&#9;c2.2,10.4,9.8,18.7,19.9,22c4.6,1.4,8.9,1.2,12.1-0.5s6.1-6,4.8-9.9c-0.1-0.2,0-0.4,0.1-0.6c0.1-0.2,0.3-0.3,0.5-0.3&#xA;&#9;&#9;c3.3-0.4,5.6-3.6,6.1-6.6s-0.1-5.9-1.9-9.8c-1.1-2.5-2.5-4.9-4.1-7C141.7,121.8,133.9,118.4,126.3,118.5L126.3,118.5z"/>
	<path class="st1_team-presentation-7-89" d="M117.9,117.2c-2.1-0.1-4.2,0.4-6.1,1.4c-1.4,0.5-2.6,1.4-3.5,2.5c-0.6,0.9-0.9,2-1,3.1&#xA;&#9;&#9;c-0.4,2.3,0.1,4.7,1.2,6.7c1.2,2,3.5,3.2,5.8,3c1-0.2,1.9-0.5,2.8-1c2.2-1.1,4-2.8,5.2-4.9C124.5,124.1,123,117.8,117.9,117.2&#xA;&#9;&#9;L117.9,117.2z"/>
	<path class="st0_team-presentation-7-89" d="M113.7,134.7c-2.4-0.1-4.5-1.4-5.8-3.4c-1.2-2.2-1.7-4.7-1.3-7.2c0.1-1.2,0.5-2.4,1.1-3.4&#xA;&#9;&#9;c1-1.3,2.3-2.2,3.8-2.8c2-1.1,4.2-1.6,6.4-1.5l0,0c2.2,0.2,4.1,1.6,5.1,3.6c1.3,2.6,1.3,5.6-0.1,8.2c-1.3,2.2-3.2,4-5.5,5.2&#xA;&#9;&#9;c-0.9,0.6-1.9,0.9-3,1.1C114.3,134.7,114,134.7,113.7,134.7L113.7,134.7z M117.1,117.9c-1.7,0.1-3.4,0.6-5,1.4&#xA;&#9;&#9;c-1.3,0.5-2.4,1.2-3.2,2.3c-0.5,0.8-0.8,1.8-0.9,2.8c-0.3,2.1,0.1,4.3,1.1,6.2c1.1,1.8,3,2.8,5.1,2.7c0.9-0.2,1.8-0.5,2.6-1&#xA;&#9;&#9;c2.1-1,3.8-2.7,5-4.6c1.1-2.2,1.1-4.7,0-6.9c-0.8-1.6-2.3-2.7-4-2.8l0,0C117.6,117.9,117.4,117.9,117.1,117.9z"/>
</g>
<g id="Cups_team-presentation-7-89">
	<path class="st1_team-presentation-7-89" d="M245.3,352.1c7.9-0.8,14.9,4.9,15.7,12.8c0.7,7.1-3.9,13.7-10.9,15.4l0.5,5.2c0.1,1.1-0.7,2-1.7,2.1&#xA;&#9;&#9;c-1.1,0.1-2-0.7-2.1-1.7l-0.5-5.2c-7.9-0.2-14.1-6.9-13.9-14.8C232.6,358.7,238.1,352.8,245.3,352.1L245.3,352.1z"/>
	<path class="st0_team-presentation-7-89" d="M248.7,388.4c-1.3,0-2.5-1-2.6-2.4l-0.5-4.6c-8.3,0.1-15.1-6.5-15.2-14.8c-0.1-8.3,6.5-15.1,14.8-15.2l0,0&#xA;&#9;&#9;c8.2-1.3,15.9,4.3,17.1,12.5c1.2,7.8-3.8,15.2-11.5,17l0.5,4.6c0.1,1.4-0.9,2.7-2.4,2.9L248.7,388.4z M245.3,352.8&#xA;&#9;&#9;c-7.5,0.8-13,7.5-12.2,15c0.7,6.8,6.3,12,13.1,12.2c0.4,0,0.6,0.3,0.7,0.6l0.5,5.2c0.1,0.7,0.7,1.2,1.3,1.1&#xA;&#9;&#9;c0.7-0.1,1.2-0.7,1.1-1.4l-0.5-5.2c0-0.4,0.2-0.7,0.5-0.8c7.3-1.8,11.8-9.2,10.1-16.5C258.4,356.5,252.1,352.1,245.3,352.8&#xA;&#9;&#9;L245.3,352.8L245.3,352.8z"/>
	<circle class="st0_team-presentation-7-89" cx="246.7" cy="366.4" r="10.1"/>
	<path class="st0_team-presentation-7-89" d="M246.7,377.2c-6,0-10.8-4.8-10.9-10.8c0-5.6,4.2-10.3,9.8-10.8l0,0c6-0.6,11.3,3.7,11.9,9.7&#xA;&#9;&#9;c0.6,6-3.7,11.3-9.7,11.9l0,0C247.4,377.2,247.1,377.2,246.7,377.2L246.7,377.2z M245.8,357c-5.2,0.5-9,5.2-8.5,10.3&#xA;&#9;&#9;c0.5,5.2,5.2,9,10.3,8.5c5.2-0.5,9-5.2,8.5-10.3c-0.3-2.5-1.5-4.8-3.4-6.4C250.7,357.5,248.3,356.7,245.8,357z"/>
	<path class="st1_team-presentation-7-89" d="M141.3,244.1c7.6,2.3,11.9,10.3,9.6,17.9c-2.1,6.8-8.9,11.1-15.9,10l-1.5,5c-0.2,1-1.3,1.7-2.3,1.4&#xA;&#9;&#9;s-1.7-1.3-1.4-2.3c0-0.1,0-0.1,0.1-0.2l1.5-5c-7.2-3.3-10.4-11.8-7.1-19C127.1,245.4,134.4,242.1,141.3,244.1L141.3,244.1z"/>
	<path class="st0_team-presentation-7-89" d="M131.5,279.1c-0.3,0-0.5,0-0.8-0.1c-0.7-0.2-1.2-0.7-1.6-1.3c-0.3-0.6-0.4-1.3-0.2-2l1.3-4.4&#xA;&#9;&#9;c-7.4-3.7-10.4-12.8-6.7-20.2c3.3-6.6,10.8-9.8,17.8-7.6l0,0c8,2.4,12.5,10.8,10.1,18.7c-2.1,7-8.9,11.5-16.2,10.6l-1.3,4.4&#xA;&#9;&#9;C133.7,278.4,132.7,279.2,131.5,279.1L131.5,279.1z M137.1,244.2c-7.5,0-13.6,6.2-13.6,13.7c0,5.3,3.1,10.2,8,12.4&#xA;&#9;&#9;c0.3,0.1,0.5,0.5,0.4,0.8l-1.5,5c-0.1,0.3-0.1,0.7,0.1,0.9c0.2,0.3,0.4,0.5,0.7,0.6c0.6,0.2,1.3-0.2,1.5-0.8c0,0,0,0,0,0l1.5-5&#xA;&#9;&#9;c0.1-0.3,0.4-0.5,0.8-0.5c7.4,1.2,14.4-3.9,15.6-11.3c1.2-7.4-3.9-14.4-11.3-15.6C138.6,244.3,137.8,244.2,137.1,244.2L137.1,244.2&#xA;&#9;&#9;z"/>
	<circle class="st0_team-presentation-7-89" cx="137.1" cy="257.9" r="10.1"/>
	<path class="st0_team-presentation-7-89" d="M137.1,268.8c-1.1,0-2.1-0.2-3.1-0.5c-5.7-1.7-8.9-7.7-7.1-13.4c1.7-5.7,7.7-8.9,13.4-7.1&#xA;&#9;&#9;c5.7,1.7,8.9,7.7,7.1,13.4C146,265.7,141.9,268.8,137.1,268.8z M137.1,248.4c-5.3,0-9.5,4.2-9.5,9.5c0,5.3,4.2,9.5,9.5,9.5&#xA;&#9;&#9;c5.3,0,9.5-4.2,9.5-9.5c0-4.2-2.7-7.9-6.7-9.1C139,248.6,138.1,248.5,137.1,248.4z"/>
	<path class="st1_team-presentation-7-89" d="M233.8,137.4c0,7.9-6.4,14.4-14.3,14.4c-7.2,0-13.3-5.3-14.2-12.4H200c-1.1,0-1.9-0.9-1.9-1.9&#xA;&#9;&#9;c0-1.1,0.9-1.9,1.9-1.9h5.2c1.1-7.9,8.3-13.4,16.1-12.3C228.5,124.1,233.8,130.2,233.8,137.4L233.8,137.4z"/>
	<path class="st0_team-presentation-7-89" d="M219.4,152.4c-7.3,0-13.5-5.3-14.8-12.4H200c-1.5,0-2.6-1.2-2.6-2.6s1.2-2.6,2.6-2.6c0,0,0,0,0,0h4.6&#xA;&#9;&#9;c1.5-8.2,9.3-13.6,17.4-12.2c8.2,1.5,13.6,9.3,12.2,17.4C233,147.2,226.8,152.4,219.4,152.4L219.4,152.4z M200,136.2&#xA;&#9;&#9;c-0.7,0-1.2,0.6-1.2,1.2c0,0.7,0.6,1.2,1.2,1.2h5.2c0.4,0,0.6,0.3,0.7,0.6c1,7.5,7.9,12.7,15.4,11.7S234,143,233,135.6&#xA;&#9;&#9;c-1-7.5-7.9-12.7-15.4-11.7c-6.1,0.8-10.9,5.6-11.7,11.7c0,0.3-0.3,0.6-0.7,0.6L200,136.2z"/>
	<circle class="st0_team-presentation-7-89" cx="219.4" cy="137.4" r="10.1"/>
	<path class="st0_team-presentation-7-89" d="M219.4,148.2c-6,0-10.8-4.9-10.8-10.9s4.9-10.8,10.9-10.8c6,0,10.8,4.9,10.8,10.8&#xA;&#9;&#9;C230.3,143.4,225.4,148.2,219.4,148.2z M219.4,128c-5.2,0-9.4,4.2-9.4,9.5c0,5.2,4.2,9.4,9.4,9.4s9.4-4.2,9.4-9.4c0,0,0,0,0,0&#xA;&#9;&#9;C228.9,132.2,224.6,128,219.4,128L219.4,128z"/>
	<path class="st1_team-presentation-7-89" d="M390,224.2c0,7.9-6.4,14.4-14.3,14.4c-7.2,0-13.3-5.3-14.2-12.4h-5.2c-1.1,0-1.9-0.9-1.9-1.9&#xA;&#9;&#9;c0-1.1,0.9-1.9,1.9-1.9h5.2c1.1-7.9,8.3-13.4,16.1-12.3C384.7,211,390,217,390,224.2z"/>
	<path class="st0_team-presentation-7-89" d="M375.7,239.3c-7.3,0-13.5-5.2-14.8-12.4h-4.6c-1.5,0-2.6-1.2-2.6-2.6c0-1.4,1.2-2.6,2.6-2.6h4.6&#xA;&#9;&#9;c1.5-8.2,9.3-13.6,17.4-12.2s13.6,9.3,12.2,17.4C389.2,234,383,239.3,375.7,239.3L375.7,239.3z M356.2,223c-0.7,0-1.2,0.6-1.2,1.2&#xA;&#9;&#9;c0,0.7,0.6,1.2,1.2,1.2h5.2c0.4,0,0.6,0.3,0.7,0.6c1,7.5,7.9,12.7,15.4,11.7s12.7-7.9,11.7-15.4s-7.9-12.7-15.4-11.7&#xA;&#9;&#9;c-6.1,0.8-10.9,5.6-11.7,11.7c0,0.3-0.3,0.6-0.7,0.6L356.2,223z"/>
	<circle class="st0_team-presentation-7-89" cx="375.7" cy="224.2" r="10.1"/>
	<path class="st0_team-presentation-7-89" d="M375.7,235.1c-6,0-10.9-4.8-10.9-10.8c0-6,4.8-10.9,10.8-10.9c6,0,10.9,4.8,10.9,10.8c0,0,0,0,0,0&#xA;&#9;&#9;C386.5,230.2,381.7,235,375.7,235.1z M375.7,214.8c-5.2,0-9.5,4.2-9.5,9.4s4.2,9.5,9.4,9.5c5.2,0,9.5-4.2,9.5-9.4c0,0,0,0,0,0&#xA;&#9;&#9;C385.1,219,380.9,214.8,375.7,214.8L375.7,214.8z"/>
</g>
</svg>