<svg version="1.1" id="Layer_1" xmlns="http://www.w3.org/2000/svg" xmlns:xlink="http://www.w3.org/1999/xlink" x="0px" y="0px" viewBox="0 0 500 500" style="width: 188px;" xml:space="preserve" data-imageid="analyst-72" imageName="Analyst" class="illustrations_image">
<style type="text/css">
	.st0_analyst-72{fill:#68E1FD;}
	.st1_analyst-72{fill:#093F68;}
	.st2_analyst-72{fill:#FFC9B0;}
	.st3_analyst-72{fill:#FFFFFF;}
	.st4_analyst-72{fill:#725858;}
	.st5_analyst-72{fill:#F56132;}
	.st6_analyst-72{fill:#70CC40;}
	.st7_analyst-72{fill:#DFEAEF;}
	.st8_analyst-72{fill:#FFBC0E;}
</style>
<g id="character_analyst-72">
	<path class="st0_analyst-72 targetColor" d="M388.1,336.7c0,0-37.7,27.7-61.9,30.9c-10.9,1.4-21.5-0.6-29.9-3.2v50.9h-96.9V365c-8,2.3-17.6,3.9-27.6,2.6&#xA;&#9;&#9;c-24.2-3.2-61.9-30.9-61.9-30.9l14.1-19.9c0,0,34.4,20,45.2,22.6c8.7,2.2,53.3-14.7,57.3-14.7h42.7c3.5,0,48.9,17.3,59.6,14.7&#xA;&#9;&#9;s45.1-22.6,45.1-22.6L388.1,336.7z" style="fill: rgb(104, 225, 253);"/>
	<path class="st1_analyst-72" d="M296.4,417h-96.9c-1,0-1.9-0.8-1.9-1.9v-47.7c-8.5,2.3-17.3,3-26,2c-24.4-3.2-61.2-30-62.7-31.2&#xA;&#9;&#9;c-0.8-0.6-1-1.7-0.4-2.6l14.1-19.9c0.6-0.8,1.6-1,2.5-0.5c0.3,0.2,34.3,19.9,44.7,22.4c5.3,1.3,27.8-5.9,41.3-10.2&#xA;&#9;&#9;c9.4-3,14-4.5,15.6-4.5h42.7c1.2,0,4.2,0.9,13,3.8c13.7,4.4,39.2,12.7,46.2,10.9c10.3-2.6,44.3-22.2,44.6-22.4&#xA;&#9;&#9;c0.8-0.5,1.9-0.3,2.5,0.5l14.1,19.9c0.6,0.8,0.4,2-0.4,2.6c-1.5,1.1-38.3,28-62.8,31.2c-9.5,1.1-19.1,0.2-28.3-2.6v48.3&#xA;&#9;&#9;C298.1,416.2,297.3,417,296.4,417z M201.3,413.3h93.2v-49c0-1,0.8-1.9,1.9-1.9c0.2,0,0.4,0,0.6,0.1c10.3,3.3,20.1,4.4,29.1,3.2&#xA;&#9;&#9;c20.8-2.7,52.4-24.4,59.5-29.4l-12.1-17c-6.8,3.9-34.5,19.6-44.1,22c-7.4,1.8-27.9-4.4-48.2-11c-5.4-1.7-10.9-3.5-11.9-3.6h-42.7&#xA;&#9;&#9;c-1.2,0-7.9,2.2-14.4,4.3c-20.3,6.5-37.5,11.8-43.3,10.3c-9.7-2.4-37.4-18.1-44.2-22l-12,17c7.2,5.1,38.7,26.7,59.5,29.4&#xA;&#9;&#9;c9,1,18.2,0.2,26.8-2.5c1-0.3,2,0.3,2.3,1.3c0,0.2,0.1,0.3,0.1,0.5L201.3,413.3z"/>
	<path class="st2_analyst-72" d="M122.6,318.8c0,0-20.8-19.3-21.3-15.8s5.4,8.9,5.4,8.9s-21.7-7.7-24.2-3.3s-1.7,8.4,0.6,12.8s28,13.7,28,13.7&#xA;&#9;&#9;L122.6,318.8z"/>
	<path class="st1_analyst-72" d="M111.1,337c-0.2,0-0.4,0-0.6-0.1c-6.2-2.2-26.6-9.9-29-14.6c-2.1-4-3.8-8.9-0.6-14.6c2.3-4,12-2.1,20.2,0.4&#xA;&#9;&#9;c-1.1-1.5-1.7-3.4-1.6-5.3c0.1-0.9,0.7-1.6,1.5-1.9c1.1-0.4,3.6-1.3,22.9,16.6c0.7,0.6,0.8,1.7,0.2,2.5l-11.6,16.3&#xA;&#9;&#9;C112.3,336.7,111.7,337,111.1,337z M86.3,309c-0.8-0.1-1.6,0.1-2.2,0.5c-2,3.4-1.8,6.5,0.6,11c1.2,2.3,14,8,25.7,12.3l9.8-13.8&#xA;&#9;&#9;c-5.1-4.8-10.5-9.3-16.2-13.5c1.1,1.8,2.4,3.5,4,4.9c0.8,0.7,0.8,1.9,0.1,2.6c-0.5,0.6-1.3,0.8-2,0.5C98.2,310.8,90.2,309,86.3,309&#xA;&#9;&#9;z"/>
	<polygon class="st3_analyst-72" points="270,324.8 248.3,407 226.1,324.8 &#9;"/>
	<path class="st1_analyst-72" d="M248.3,408.8c-0.8,0-1.6-0.6-1.8-1.4l-22.2-82.1c-0.3-1,0.3-2,1.3-2.3c0.2,0,0.3-0.1,0.5-0.1H270&#xA;&#9;&#9;c0.6,0,1.1,0.3,1.5,0.7c0.4,0.5,0.5,1.1,0.3,1.6l-21.7,82.1C249.9,408.2,249.2,408.8,248.3,408.8L248.3,408.8z M228.5,326.7&#xA;&#9;&#9;l19.7,73.1l19.3-73.1H228.5z"/>
	<path class="st2_analyst-72" d="M240.6,318.4h17l0,0v13.1c0,2.1-1.7,3.9-3.9,3.9h-9.2c-2.1,0-3.9-1.7-3.9-3.9L240.6,318.4L240.6,318.4z"/>
	<path class="st1_analyst-72" d="M250.4,337.2h-2.6c-5,0-9.1-4.1-9.1-9.1v-9.8c0-1,0.8-1.9,1.9-1.9h17c1,0,1.9,0.8,1.9,1.9v9.8&#xA;&#9;&#9;C259.5,333.1,255.4,337.2,250.4,337.2C250.4,337.2,250.4,337.2,250.4,337.2z M242.5,320.2v7.9c0,2.9,2.4,5.3,5.3,5.3h2.6&#xA;&#9;&#9;c2.9,0,5.3-2.4,5.3-5.3v-7.9H242.5z"/>
	<path class="st4_analyst-72" d="M192.6,269.7c-4.1-5.1-4.4-16-4.7-22.2c-0.5-10.2,0-20.5,3-30.3c4.3-13.8,14.6-26.6,28.5-30.4&#xA;&#9;&#9;c1.6-0.3,3.1-0.8,4.6-1.4c1.2-0.7,2.4-1.5,3.5-2.4c19.1-14.6,49-7.7,65.3,8c11.7,11.2,18,27.1,19.5,43.1c1,10,2.5,39.8-13.6,37&#xA;&#9;&#9;c-4.4-0.8-9.9,0.3-14.4,0.5l-32.9,1C239.9,272.7,202,281.3,192.6,269.7z"/>
	<path class="st1_analyst-72" d="M214,277.6c-9.9,0-18.6-1.6-22.9-6.8l0,0c-4.2-5.3-4.7-15.4-5.1-22l-0.1-1.2c-0.6-12.3,0.4-22.1,3.1-31&#xA;&#9;&#9;c4.9-15.9,16.4-28,29.8-31.6l1-0.3c1.1-0.2,2.2-0.6,3.2-1.1c0.9-0.5,1.8-1.1,2.6-1.8l0.6-0.5c19.8-15.1,51-8,67.8,8.1&#xA;&#9;&#9;c11.2,10.8,18.3,26.5,20.1,44.2c0.8,8.5,1.9,29-6.1,36.4c-2.6,2.4-6.2,3.4-9.7,2.6c-3.1-0.3-6.2-0.3-9.3,0.1&#xA;&#9;&#9;c-1.7,0.2-3.2,0.3-4.7,0.4l-32.9,1c-2.6,0.1-6.6,0.6-11.3,1.2C232.2,276.4,222.7,277.6,214,277.6z M252.9,176.7&#xA;&#9;&#9;c-8.7,0-17.2,2.3-24.2,7.6l-0.6,0.4c-1,0.8-2.1,1.5-3.2,2.2c-1.3,0.6-2.6,1-4,1.4l-0.9,0.2c-12.2,3.3-22.7,14.5-27.2,29.1&#xA;&#9;&#9;c-2.6,8.4-3.6,17.8-3,29.7l0.1,1.2c0.3,5.8,0.7,15.6,4.2,19.9l0,0c6.6,8.2,31.1,5.1,45.8,3.2c4.8-0.6,8.9-1.1,11.6-1.2l32.9-1&#xA;&#9;&#9;c1.4,0,2.9-0.2,4.5-0.3c3.4-0.5,6.9-0.5,10.3-0.1c2.3,0.6,4.7-0.1,6.5-1.7c5.5-5.1,6.2-20.6,5-33.3c-1.7-16.9-8.4-31.8-19-41.9&#xA;&#9;&#9;C281,182.4,267.2,176.9,252.9,176.7z"/>
	<ellipse class="st2_analyst-72" cx="200.6" cy="274.3" rx="16.5" ry="14.2"/>
	<path class="st1_analyst-72" d="M200.6,290.4c-10.1,0-18.3-7.2-18.3-16.1s8.2-16.1,18.3-16.1s18.4,7.2,18.4,16.1S210.8,290.4,200.6,290.4z&#xA;&#9;&#9; M200.6,262c-8.1,0-14.6,5.5-14.6,12.3s6.6,12.3,14.6,12.3s14.6-5.5,14.6-12.3S208.7,262,200.6,262L200.6,262z"/>
	<ellipse class="st2_analyst-72" cx="296.7" cy="274.3" rx="16.5" ry="14.2"/>
	<path class="st1_analyst-72" d="M296.7,290.4c-10.1,0-18.3-7.2-18.3-16.1s8.2-16.1,18.3-16.1s18.4,7.2,18.4,16.1S306.8,290.4,296.7,290.4z&#xA;&#9;&#9; M296.7,262c-8.1,0-14.6,5.5-14.6,12.3s6.5,12.3,14.6,12.3s14.6-5.5,14.6-12.3S304.8,262,296.7,262L296.7,262z"/>
	<path class="st2_analyst-72" d="M249.1,320.6L249.1,320.6c-27.4,0-49.7-22.3-49.7-49.7l0,0v-36.1c2.9,4.8,12.6,2.9,26.7-21.4&#xA;&#9;&#9;c53,26.8,72.7,11.4,72.7,11.4v46C298.8,298.3,276.6,320.6,249.1,320.6C249.1,320.6,249.1,320.6,249.1,320.6z"/>
	<path class="st1_analyst-72" d="M249.1,322.5c-28.5,0-51.5-23.1-51.6-51.6v-36.1c0-1,0.8-1.9,1.8-1.9c0.7,0,1.3,0.3,1.7,0.9&#xA;&#9;&#9;c0.5,0.8,1.3,1.2,2.2,1.2c1.9,0,9.1-1.7,21.2-22.6c0.5-0.8,1.6-1.2,2.4-0.7c51.3,26,70.5,11.8,70.7,11.6c0.8-0.6,2-0.5,2.6,0.4&#xA;&#9;&#9;c0.2,0.3,0.4,0.7,0.4,1.1v46C300.7,299.3,277.6,322.4,249.1,322.5z M201.3,238.5v32.4c0,26.4,21.4,47.8,47.8,47.8&#xA;&#9;&#9;s47.8-21.4,47.8-47.8V228c-7.3,3.3-28.5,8.5-70.1-12.2c-8.8,14.7-17.1,22.8-23.5,22.9C202.6,238.7,201.9,238.7,201.3,238.5&#xA;&#9;&#9;L201.3,238.5z"/>
	<circle class="st1_analyst-72" cx="227.7" cy="263.6" r="4.6"/>
	<circle class="st1_analyst-72" cx="270.5" cy="263.6" r="4.6"/>
	<path class="st1_analyst-72" d="M249,284.5c-1.5,0-3.1-0.1-4.6-0.4c-1-0.2-1.7-1.1-1.5-2.2s1.1-1.7,2.2-1.5c2.1,0.4,4.2,0.4,6.3,0.1&#xA;&#9;&#9;c0-1.6-1.7-6.1-3.9-10.3c-0.4-0.9,0-2,1-2.5c0.9-0.4,1.8-0.1,2.3,0.7c1.6,3.1,5.3,10.8,3.9,13.9c-0.4,0.8-1.1,1.5-2,1.6&#xA;&#9;&#9;C251.5,284.4,250.3,284.6,249,284.5z"/>
	<path class="st5_analyst-72" d="M243.9,337h8.6c1.1,0,2,0.9,2,2v6c0,1.1-0.9,2-2,2h-8.6c-1.1,0-2-0.9-2-2v-6C242,337.8,242.9,337,243.9,337z"/>
	<path class="st1_analyst-72" d="M250.9,348.7h-5.3c-3,0-5.5-2.5-5.5-5.5l0,0v-2.6c0-3,2.5-5.5,5.5-5.5l0,0h5.3c3,0,5.5,2.5,5.5,5.5&#xA;&#9;&#9;c0,0,0,0,0,0v2.6C256.4,346.3,253.9,348.7,250.9,348.7L250.9,348.7z M245.6,338.8c-1,0-1.8,0.8-1.8,1.8v2.6c0,1,0.8,1.8,1.8,1.8&#xA;&#9;&#9;l0,0h5.3c1,0,1.8-0.8,1.8-1.8l0,0v-2.6c0-1-0.8-1.8-1.8-1.8l0,0H245.6z"/>
	<polygon class="st5_analyst-72" points="255.6,379.2 248.3,407 240.2,376.9 244.7,346.9 251.9,346.9 &#9;"/>
	<path class="st1_analyst-72" d="M248.3,408.8c-0.8,0-1.6-0.6-1.8-1.4l-8.1-30c-0.1-0.3-0.1-0.5,0-0.8l4.5-30c0.1-0.9,0.9-1.6,1.8-1.6h7.2&#xA;&#9;&#9;c0.9,0,1.7,0.7,1.9,1.6l3.7,32.3c0,0.2,0,0.5,0,0.7l-7.3,27.7C249.9,408.2,249.1,408.8,248.3,408.8L248.3,408.8z M242.1,376.8&#xA;&#9;&#9;l6.2,22.9l5.4-20.6l-3.5-30.4h-3.9L242.1,376.8z"/>
	<path class="st1_analyst-72" d="M236.2,244.7h-24c-2.1,0.1-3.8-1.5-3.9-3.5c-0.1-2.1,1.5-3.8,3.5-3.9c0.1,0,0.3,0,0.4,0h24&#xA;&#9;&#9;c2.1,0.1,3.6,1.9,3.5,3.9C239.7,243.1,238.1,244.6,236.2,244.7z"/>
	<path class="st1_analyst-72" d="M286,244.7h-24c-2.1,0.1-3.8-1.5-3.9-3.5c-0.1-2.1,1.5-3.8,3.5-3.9c0.1,0,0.3,0,0.4,0h24&#xA;&#9;&#9;c2.1-0.1,3.8,1.5,3.9,3.5c0.1,2.1-1.5,3.8-3.5,3.9C286.3,244.7,286.1,244.7,286,244.7z"/>
	<path class="st1_analyst-72" d="M250,304.4c-10.8,0-19.6-8.8-19.6-19.6c0-1,0.8-1.9,1.9-1.9s1.9,0.8,1.9,1.9c-0.2,8.8,6.7,16,15.5,16.3&#xA;&#9;&#9;c8.8,0.2,16-6.7,16.3-15.5c0-0.3,0-0.5,0-0.8c0.1-1,1-1.8,2-1.7c0.9,0.1,1.7,0.8,1.7,1.7C269.6,295.7,260.8,304.4,250,304.4z"/>
	<path class="st1_analyst-72" d="M226.1,279.4c-8.8,0-16-7.2-16-16c0-8.8,7.2-16,16-16s16,7.2,16,16C242.1,272.2,234.9,279.4,226.1,279.4z&#xA;&#9;&#9; M226.1,251.2c-6.8,0-12.2,5.5-12.2,12.2c0,6.8,5.5,12.2,12.2,12.2s12.2-5.5,12.2-12.2l0,0C238.3,256.7,232.9,251.2,226.1,251.2&#xA;&#9;&#9;L226.1,251.2z"/>
	<path class="st1_analyst-72" d="M270,279.4c-8.8,0-16-7.2-16-16c0-8.8,7.2-16,16-16s16,7.2,16,16C286,272.2,278.8,279.4,270,279.4z M270,251.2&#xA;&#9;&#9;c-6.8,0-12.2,5.5-12.2,12.2c0,6.8,5.5,12.2,12.2,12.2c6.8,0,12.2-5.5,12.2-12.2c0,0,0,0,0,0C282.2,256.7,276.8,251.2,270,251.2&#xA;&#9;&#9;L270,251.2z"/>
	<path class="st1_analyst-72" d="M256,263.5c-0.3,0-0.5-0.1-0.8-0.2c-7.8-3.5-13.8-0.2-14.1-0.1c-0.9,0.5-2,0.2-2.5-0.7c-0.5-0.9-0.2-2,0.7-2.5&#xA;&#9;&#9;c5.5-2.7,12-2.8,17.5-0.1c0.9,0.4,1.4,1.5,0.9,2.5C257.4,263.1,256.7,263.5,256,263.5L256,263.5z"/>
	<path class="st1_analyst-72" d="M212,265.3c-0.2,0-0.4,0-0.5-0.1l-11.4-3.3c-1-0.2-1.6-1.2-1.4-2.2c0.2-1,1.2-1.6,2.2-1.4c0,0,0.1,0,0.1,0&#xA;&#9;&#9;l11.4,3.3c1,0.3,1.5,1.3,1.3,2.3C213.5,264.7,212.8,265.3,212,265.3z"/>
	<path class="st1_analyst-72" d="M284.1,265.3c-1,0-1.9-0.9-1.8-1.9c0-0.9,0.6-1.6,1.4-1.8l15.6-3.6c1-0.2,2,0.4,2.2,1.4c0.2,1-0.4,2-1.4,2.2&#xA;&#9;&#9;l-15.6,3.6C284.4,265.2,284.2,265.3,284.1,265.3z"/>
	<path class="st1_analyst-72" d="M103.6,321.9c-0.7,0-1.4-0.4-1.7-1.1c-2.1-4.6,3-9.7,3.5-10.3c0.7-0.7,1.9-0.7,2.6,0.1c0.7,0.7,0.7,1.9,0,2.6&#xA;&#9;&#9;c-1.2,1.2-3.6,4.3-2.8,6c0.4,0.9,0,2-0.9,2.5c0,0,0,0,0,0C104.1,321.8,103.8,321.9,103.6,321.9z"/>
	<path class="st2_analyst-72" d="M375.4,318.8c0,0,20.8-19.3,21.3-15.8s-5.4,8.9-5.4,8.9s21.7-7.7,24.2-3.3s1.8,8.4-0.6,12.8s-28,13.7-28,13.7&#xA;&#9;&#9;L375.4,318.8z"/>
	<path class="st1_analyst-72" d="M387,337c-0.6,0-1.2-0.3-1.5-0.8l-11.6-16.3c-0.5-0.8-0.4-1.8,0.2-2.5c19.3-17.9,21.8-17,22.9-16.6&#xA;&#9;&#9;c0.8,0.3,1.4,1,1.5,1.9c0.1,1.9-0.5,3.8-1.6,5.3c8.2-2.5,17.9-4.3,20.2-0.4c3.3,5.7,1.6,10.6-0.5,14.6c-2.5,4.7-22.9,12.4-29,14.6&#xA;&#9;&#9;C387.5,337,387.2,337,387,337z M377.9,319.1l9.8,13.8c11.7-4.3,24.5-10.1,25.7-12.3c2.4-4.5,2.6-7.6,0.6-11&#xA;&#9;&#9;c-1.3-1.5-11.8,0.5-22,4.1c-1,0.3-2-0.2-2.4-1.2c-0.2-0.7,0-1.5,0.5-2c1.6-1.4,2.9-3.1,4-4.9C388.4,309.8,383,314.3,377.9,319.1z"/>
	<path class="st1_analyst-72" d="M394.5,321.9c-0.3,0-0.5-0.1-0.8-0.2c-0.9-0.4-1.3-1.5-0.9-2.5c0.8-1.7-1.6-4.9-2.8-6c-0.7-0.7-0.8-1.9,0-2.6&#xA;&#9;&#9;s1.9-0.8,2.6,0l0,0c0.6,0.6,5.7,5.7,3.5,10.3C395.9,321.5,395.2,321.9,394.5,321.9z"/>
</g>
<g id="files_analyst-72">
	<rect x="66.9" y="230.9" class="st6_analyst-72" width="49" height="53.9"/>
	<path class="st1_analyst-72" d="M115.8,286.6h-49c-1,0-1.9-0.8-1.8-1.9v-53.9c0-1,0.8-1.9,1.8-1.9c0,0,0,0,0.1,0h49c1,0,1.9,0.8,1.9,1.9l0,0&#xA;&#9;&#9;v53.9C117.8,285.7,116.9,286.6,115.8,286.6C115.9,286.6,115.9,286.6,115.8,286.6z M68.8,282.9H114v-50.1H68.8V282.9z"/>
	<rect x="56.4" y="219.7" class="st3_analyst-72" width="49" height="53.9"/>
	<path class="st1_analyst-72" d="M105.3,275.4h-49c-1,0-1.9-0.8-1.9-1.9v-53.9c0-1,0.8-1.9,1.9-1.9h49c1,0,1.9,0.8,1.9,1.9v53.8&#xA;&#9;&#9;C107.2,274.6,106.4,275.4,105.3,275.4C105.4,275.4,105.4,275.4,105.3,275.4z M58.3,271.7h45.2v-50.1H58.3V271.7z"/>
	<path class="st7_analyst-72" d="M96.6,235.9H66.8c-1-0.1-1.8-1-1.7-2c0.1-0.9,0.8-1.7,1.7-1.7h29.8c1-0.1,1.9,0.7,2,1.7c0.1,1-0.7,1.9-1.7,2&#xA;&#9;&#9;C96.8,235.9,96.7,235.9,96.6,235.9z"/>
	<path class="st7_analyst-72" d="M84.7,248.5H66.8c-1-0.1-1.8-1-1.7-2c0.1-0.9,0.8-1.7,1.7-1.7h17.8c1,0.1,1.8,1,1.7,2&#xA;&#9;&#9;C86.3,247.7,85.6,248.4,84.7,248.5z"/>
	<path class="st7_analyst-72" d="M94.9,248.5h-3.5c-1,0.1-1.9-0.7-2-1.7c-0.1-1,0.7-1.9,1.7-2c0.1,0,0.2,0,0.3,0h3.5c1,0.1,1.8,1,1.7,2&#xA;&#9;&#9;C96.5,247.7,95.8,248.4,94.9,248.5z"/>
	<path class="st7_analyst-72" d="M79,261H65.8c-1-0.1-1.8-1-1.7-2c0.1-0.9,0.8-1.7,1.7-1.7H79c1,0.1,1.8,1,1.7,2C80.7,260.2,79.9,261,79,261z"/>
</g>
<g id="graph-1_analyst-72">
	<path class="st1_analyst-72" d="M165.2,182.7H91.4c-1,0-1.9-0.8-1.9-1.9v-40.6c-0.1-1,0.7-1.9,1.7-2c1-0.1,1.9,0.7,2,1.7c0,0.1,0,0.2,0,0.3&#xA;&#9;&#9;V179h72c1,0.1,1.8,1,1.7,2C166.9,181.9,166.2,182.7,165.2,182.7L165.2,182.7z"/>
	<rect x="101.5" y="168.1" class="st5_analyst-72" width="12.7" height="12.7"/>
	<path class="st1_analyst-72" d="M114.2,182.7h-12.7c-1,0-1.9-0.8-1.9-1.9v-12.7c0-1,0.8-1.9,1.9-1.9h12.7c1,0,1.9,0.8,1.9,1.9l0,0v12.7&#xA;&#9;&#9;C116.1,181.9,115.2,182.7,114.2,182.7L114.2,182.7z M103.4,179h9v-9h-9V179z"/>
	<rect x="122.8" y="160.6" class="st8_analyst-72" width="12.7" height="20.3"/>
	<path class="st1_analyst-72" d="M135.5,182.7h-12.7c-1,0-1.9-0.8-1.9-1.9l0,0v-20.3c0-1,0.8-1.9,1.9-1.9l0,0h12.7c1,0,1.9,0.8,1.9,1.9l0,0&#xA;&#9;&#9;v20.3C137.4,181.9,136.6,182.7,135.5,182.7L135.5,182.7z M124.7,179h9v-16.6h-9V179z"/>
	<rect x="144.1" y="147.1" class="st6_analyst-72" width="12.7" height="33.7"/>
	<path class="st1_analyst-72" d="M156.9,182.7h-12.7c-1,0-1.9-0.8-1.9-1.9l0,0v-33.8c0-1,0.8-1.9,1.9-1.9l0,0h12.7c1,0,1.9,0.8,1.9,1.9v33.8&#xA;&#9;&#9;C158.7,181.9,157.9,182.7,156.9,182.7z M146,179h9v-30h-9V179z"/>
</g>
<g id="graph-2_analyst-72">
	<rect x="352.2" y="140" class="st3_analyst-72" width="65" height="49"/>
	<path class="st1_analyst-72" d="M417.2,190.9h-65c-1,0-1.9-0.8-1.9-1.9v-49c0-1,0.8-1.9,1.9-1.9h65c1,0,1.8,0.9,1.8,1.9v49&#xA;&#9;&#9;C419,190,418.2,190.8,417.2,190.9z M354.1,187.1h61.2v-45.2h-61.2V187.1z"/>
	<rect x="352.2" y="132.1" class="st8_analyst-72" width="65" height="7.9"/>
	<path class="st1_analyst-72" d="M417.2,141.9h-65c-1,0-1.9-0.8-1.9-1.9v-7.9c0-1,0.8-1.9,1.9-1.9h65c1,0,1.9,0.8,1.9,1.9v7.9&#xA;&#9;&#9;C419.1,141,418.2,141.9,417.2,141.9C417.2,141.9,417.2,141.9,417.2,141.9z M354.1,138.2h61.2V134h-61.2V138.2z"/>
	<path class="st7_analyst-72" d="M403.1,179.3h-39.1c-1,0-1.9-0.8-1.9-1.9v-27.3c-0.1-1,0.7-1.9,1.7-2c1-0.1,1.9,0.7,2,1.7c0,0.1,0,0.2,0,0.3&#xA;&#9;&#9;v25.4h37.2c1,0.1,1.8,1,1.7,2C404.8,178.5,404,179.3,403.1,179.3L403.1,179.3z"/>
	<path class="st7_analyst-72" d="M364.1,179.3c-1,0-1.9-0.9-1.9-1.9c0-0.2,0-0.4,0.1-0.6c0.5-1.2,4.7-12.2,10.4-14.6c1.5-0.7,3.2-0.7,4.7,0&#xA;&#9;&#9;c2.3,1,4.2,2.7,5.5,4.9c0.5,0.7,1.1,1.5,1.4,1.6s1.1,0,3.7-2c2.8-2.3,5.1-5.2,6.8-8.5c1.9-3.3,3.6-6.4,7.9-7.6c1-0.3,2,0.3,2.3,1.3&#xA;&#9;&#9;c0.3,1-0.3,2-1.3,2.3l0,0c-2.6,0.7-3.7,2.5-5.6,5.8c-1.9,3.7-4.5,7-7.7,9.6c-2.8,2.2-4.8,3-6.5,2.8c-1.9-0.3-2.9-1.7-3.9-3.1&#xA;&#9;&#9;c-0.9-1.6-2.3-2.8-3.9-3.6c-0.6-0.2-1.2-0.2-1.7,0.1c-3.2,1.4-6.9,8.4-8.4,12.5C365.5,178.9,364.8,179.3,364.1,179.3z"/>
</g>
<g id="chart_analyst-72">
	<circle class="st8_analyst-72" cx="259.5" cy="118.1" r="32.1"/>
	<path class="st1_analyst-72" d="M259.5,152c-18.7,0-33.9-15.2-33.9-33.9s15.2-33.9,33.9-33.9s33.9,15.2,33.9,33.9c0,0,0,0,0,0&#xA;&#9;&#9;C293.4,136.8,278.2,152,259.5,152z M259.5,87.9c-16.7,0-30.2,13.5-30.2,30.2s13.5,30.2,30.2,30.2s30.2-13.5,30.2-30.2&#xA;&#9;&#9;C289.6,101.4,276.1,88,259.5,87.9L259.5,87.9z"/>
	<path class="st6_analyst-72" d="M259.5,118.1l25.7,19.1c-10.6,14.2-30.6,17.2-44.8,6.6s-17.2-30.6-6.6-44.8c5.7-7.7,14.5-12.4,24.1-12.9&#xA;&#9;&#9;L259.5,118.1z"/>
	<path class="st1_analyst-72" d="M259.5,152c-18.7-0.1-33.9-15.3-33.8-34.1c0.1-18,14.1-32.8,32.1-33.7c1-0.1,1.9,0.7,1.9,1.8c0,0,0,0,0,0&#xA;&#9;&#9;l1.6,31.1l25,18.6c0.8,0.6,1,1.8,0.4,2.6C280.3,146.9,270.2,152,259.5,152z M256.1,88.1c-16.6,1.9-28.5,16.8-26.6,33.4&#xA;&#9;&#9;s16.8,28.5,33.4,26.6c7.7-0.9,14.7-4.6,19.7-10.5l-24.2-18c-0.4-0.3-0.7-0.8-0.8-1.4L256.1,88.1z"/>
	<path class="st0_analyst-72 targetColor" d="M229.8,119.3l5.7,5.7l0,0l-32,32c-0.8,0.8-2.2,0.8-3.1,0l-2.6-2.6c-0.8-0.8-0.8-2.2,0-3.1L229.8,119.3&#xA;&#9;&#9;L229.8,119.3z" style="fill: rgb(104, 225, 253);"/>
	<path class="st1_analyst-72" d="M202,158.8c-1.6,0-3.1-0.6-4.2-1.7l0,0c-2.3-2.3-2.3-6,0-8.3c0,0,0,0,0,0l30.6-30.7c0.7-0.7,1.9-0.7,2.6,0&#xA;&#9;&#9;c0,0,0,0,0,0l5.7,5.7c0.7,0.7,0.7,1.9,0,2.6c0,0,0,0,0,0L206.1,157C205.1,158.1,203.6,158.8,202,158.8z M229.8,122l-29.3,29.3&#xA;&#9;&#9;c-0.9,0.8-0.9,2.2,0,3.1c0,0,0,0,0,0l0,0c0.9,0.8,2.2,0.8,3.1,0l29.3-29.3L229.8,122z"/>
	<circle class="st0_analyst-72 targetColor" cx="232.6" cy="122.2" r="19.7" style="fill: rgb(104, 225, 253);"/>
	<path class="st1_analyst-72" d="M232.6,143.7c-11.9,0-21.5-9.7-21.5-21.5s9.7-21.5,21.5-21.5c11.9,0,21.5,9.7,21.5,21.5&#xA;&#9;&#9;c0,5.7-2.3,11.2-6.3,15.2l0,0C243.8,141.5,238.3,143.7,232.6,143.7z M232.6,104.4c-9.8,0-17.8,8-17.8,17.8c0,9.8,8,17.8,17.8,17.8&#xA;&#9;&#9;c9.8,0,17.8-8,17.8-17.8c0-4.7-1.9-9.2-5.2-12.6C241.9,106.3,237.4,104.4,232.6,104.4z M246.5,136.1L246.5,136.1z"/>
	<circle class="st3_analyst-72" cx="232.6" cy="122.2" r="12.5"/>
	<path class="st1_analyst-72" d="M232.6,136.6c-7.9,0-14.4-6.4-14.4-14.4c0-7.9,6.4-14.4,14.4-14.4c7.9,0,14.4,6.4,14.4,14.4&#xA;&#9;&#9;c0,3.8-1.5,7.5-4.2,10.1l0,0C240.1,135.1,236.4,136.6,232.6,136.6z M232.6,111.6c-5.9,0-10.6,4.7-10.7,10.6&#xA;&#9;&#9;c0,5.9,4.7,10.6,10.6,10.7c2.8,0,5.6-1.1,7.6-3.1l0,0c4.2-4.1,4.2-10.9,0-15C238.2,112.7,235.5,111.6,232.6,111.6z"/>
</g>
<g id="gear_analyst-72">
	<g id="gear-2_analyst-72">
		<path class="st5_analyst-72" d="M445.5,247c-0.1-1.8-1.4-3.4-3.2-3.8c-1.5-0.3-3.1-0.6-4.6-0.8c-0.4,0-0.8-0.4-0.9-0.8&#xA;&#9;&#9;&#9;c-0.5-1.2-1-2.4-1.5-3.7c-0.2-0.3-0.1-0.7,0.1-0.9c0.9-1.3,1.9-2.6,2.7-3.9c1-1.6,0.9-3.6-0.4-5c-1.4-1.6-2.9-3-4.4-4.5&#xA;&#9;&#9;&#9;c-1.5-1.7-4.1-2-5.9-0.5c-1.2,0.8-2.3,1.6-3.5,2.5c-0.2,0.2-0.6,0.3-0.9,0.1c-1.3-0.6-2.6-1.1-4-1.6c-0.3-0.1-0.6-0.4-0.6-0.7&#xA;&#9;&#9;&#9;c-0.2-1.4-0.5-2.8-0.7-4.2c-0.3-2.1-2-3.6-4.1-3.7c-2.2-0.1-4.4-0.1-6.5,0c-1.9,0-3.6,1.3-4,3.2c-0.4,1.6-0.6,3.2-0.9,4.8&#xA;&#9;&#9;&#9;c0,0.3-0.3,0.6-0.6,0.7c-1.3,0.5-2.5,1-3.8,1.6c-0.3,0.2-0.7,0.1-0.9-0.1c-1.3-0.9-2.5-1.9-3.8-2.7c-1.5-1.1-3.6-0.9-5,0.3&#xA;&#9;&#9;&#9;c-1.7,1.5-3.3,3.1-4.8,4.8c-1.5,1.5-1.6,3.9-0.3,5.6c0.9,1.2,1.7,2.4,2.6,3.7c0.1,0.2,0.1,0.4,0.1,0.6c-0.5,1.4-1.1,2.7-1.7,4.1&#xA;&#9;&#9;&#9;c-0.1,0.2-0.3,0.4-0.5,0.4c-1.4,0.3-2.8,0.5-4.2,0.7c-2.1,0.2-3.7,1.9-3.8,4c-0.1,2.3-0.1,4.6,0,6.8c0.1,1.8,1.4,3.3,3.1,3.8&#xA;&#9;&#9;&#9;c1.6,0.4,3.3,0.6,4.9,0.9c0.3,0,0.6,0.3,0.7,0.6c0.5,1.3,1.1,2.6,1.6,3.9c0.2,0.3,0.1,0.6-0.1,0.8c-0.9,1.2-1.7,2.4-2.5,3.5&#xA;&#9;&#9;&#9;c-1.3,1.8-1.1,4.3,0.5,5.8c1.4,1.4,2.7,2.8,4.1,4.1c1.5,1.7,4.1,1.9,5.9,0.5c1.2-0.8,2.4-1.7,3.5-2.5c0.2-0.2,0.5-0.2,0.8-0.1&#xA;&#9;&#9;&#9;c1.2,0.5,2.4,1,3.7,1.5c0.4,0.1,0.7,0.5,0.7,0.9c0.2,1.4,0.5,2.8,0.7,4.2c0.3,2,1.9,3.5,3.9,3.7c2.3,0.1,4.6,0.1,6.9,0&#xA;&#9;&#9;&#9;c1.8-0.1,3.4-1.4,3.8-3.2c0.3-1.5,0.6-3.1,0.8-4.7c0-0.4,0.3-0.7,0.6-0.8c1.3-0.5,2.5-1,3.8-1.6c0.3-0.2,0.6-0.1,0.8,0.1&#xA;&#9;&#9;&#9;c1.2,0.9,2.4,1.7,3.5,2.5c0.8,0.6,1.9,0.9,2.9,0.9c0.9,0,1.8-0.4,2.5-1c1.5-1.4,3-2.9,4.4-4.4c1.8-1.5,2-4.2,0.5-6&#xA;&#9;&#9;&#9;c-0.8-1.2-1.6-2.3-2.5-3.5c-0.2-0.2-0.2-0.5-0.1-0.8c0.6-1.3,1.1-2.6,1.6-3.9c0.1-0.3,0.4-0.6,0.7-0.6c1.4-0.2,2.8-0.5,4.2-0.7&#xA;&#9;&#9;&#9;c2.1-0.3,3.6-2,3.7-4.1C445.5,251.6,445.7,249.3,445.5,247z M410.5,265.5c-8.4,0-15.1-6.8-15.1-15.2s6.8-15.1,15.2-15.1&#xA;&#9;&#9;&#9;c8.3,0,15.1,6.8,15.1,15.1c0,8.3-6.7,15.2-15,15.2C410.6,265.5,410.6,265.5,410.5,265.5z"/>
		<path class="st1_analyst-72" d="M410.4,287.7c-1.2,0-2.4,0-3.5-0.1h-0.1c-2.9-0.3-5.2-2.5-5.7-5.4c-0.1-0.7-0.2-1.4-0.3-2s-0.2-1.1-0.3-1.7&#xA;&#9;&#9;&#9;l-2.6-1.1l-0.2,0.1c-0.9,0.7-1.8,1.3-2.8,2c-2.6,2-6.3,1.7-8.5-0.7c-0.9-0.9-1.8-1.8-2.7-2.7c-0.5-0.5-0.9-0.9-1.4-1.4&#xA;&#9;&#9;&#9;c-2.3-2.2-2.6-5.8-0.7-8.4c0.3-0.4,0.6-0.9,1-1.4s0.8-1.1,1.1-1.6c-0.2-0.4-0.4-0.9-0.5-1.3s-0.4-1-0.6-1.5l-1.1-0.2&#xA;&#9;&#9;&#9;c-1.1-0.2-2.2-0.4-3.4-0.6c-2.6-0.7-4.5-3-4.6-5.6c-0.1-2.3-0.1-4.6,0-7c0.1-3.1,2.5-5.6,5.6-5.9c1.1-0.2,2.2-0.3,3.3-0.5l0.1-0.4&#xA;&#9;&#9;&#9;c0.4-0.8,0.7-1.6,1-2.4l-0.2-0.4c-0.6-0.9-1.3-1.8-1.9-2.7c-1.9-2.5-1.7-5.9,0.4-8.2c1.5-1.7,3.2-3.4,4.9-4.9&#xA;&#9;&#9;&#9;c2.1-1.8,5.1-2,7.4-0.5c0.9,0.5,1.6,1.1,2.4,1.7l1,0.7c0.9-0.4,1.8-0.8,2.8-1.2c0.1-0.3,0.1-0.6,0.2-1c0.2-1.1,0.4-2.2,0.7-3.4&#xA;&#9;&#9;&#9;c0.6-2.8,3.1-4.7,5.9-4.7c2.1-0.1,4.3-0.1,6.6,0c3.1,0.1,5.6,2.4,6,5.4c0.1,0.7,0.2,1.4,0.3,2c0.1,0.5,0.2,1,0.3,1.5&#xA;&#9;&#9;&#9;c1.1,0.4,2.1,0.8,2.9,1.2c0.9-0.6,1.9-1.4,3-2.1c2.6-2.1,6.3-1.7,8.5,0.7l1.1,1.1c1.1,1.1,2.3,2.2,3.4,3.5&#xA;&#9;&#9;&#9;c1.9,2.1,2.1,5.1,0.6,7.4c-0.5,0.9-1.2,1.8-1.8,2.7l-0.6,0.8c0.4,1,0.8,1.9,1.1,2.8c1.5,0.2,3,0.5,4.2,0.7&#xA;&#9;&#9;&#9;c2.7,0.6,4.7,2.9,4.8,5.6l0,0c0.2,2.4,0,4.8-0.4,7.1c-0.2,3-2.5,5.4-5.4,5.8c-0.7,0.1-1.4,0.2-2,0.3l-1.5,0.3&#xA;&#9;&#9;&#9;c-0.4,0.9-0.7,1.9-1.1,2.8c0.6,0.9,1.4,1.9,2.1,3c1,1.3,1.5,2.9,1.4,4.5c-0.1,1.6-0.9,3.1-2.1,4.2c-1.4,1.5-2.9,3-4.4,4.4&#xA;&#9;&#9;&#9;c-1,1-2.4,1.5-3.9,1.5c-1.5,0-2.9-0.4-4.1-1.3l-1.3-1c-0.5-0.4-1.1-0.7-1.6-1.1c-0.9,0.4-1.7,0.8-2.7,1.1c-0.2,1.5-0.5,3-0.8,4.2&#xA;&#9;&#9;&#9;c-0.6,2.7-3,4.7-5.8,4.8C412.8,287.6,411.6,287.7,410.4,287.7z M407.1,283.6c2.2,0.1,4.5,0.1,6.7,0c0.9-0.1,1.7-0.7,1.9-1.6&#xA;&#9;&#9;&#9;c0.3-1.3,0.6-2.9,0.8-4.4c0.1-1.2,0.9-2.2,2-2.5c1.2-0.5,2.3-0.9,3.5-1.5c1-0.5,2.2-0.4,3,0.3c0.7,0.5,1.3,1,2,1.4l1.4,1&#xA;&#9;&#9;&#9;c0.5,0.4,1.1,0.5,1.7,0.5c0.4,0,0.8-0.2,1.1-0.4c1.5-1.4,3-2.9,4.4-4.4c0.1-0.1,0.1-0.1,0.2-0.2c0.4-0.4,0.7-0.9,0.8-1.5&#xA;&#9;&#9;&#9;c0-0.6-0.1-1.2-0.5-1.7c0-0.1-0.1-0.1-0.1-0.2c-0.8-1.2-1.7-2.4-2.4-3.3c-0.7-0.8-0.8-2-0.3-3c0.5-1.2,1-2.5,1.5-3.7&#xA;&#9;&#9;&#9;c0.4-1,1.3-1.8,2.4-1.9c0.6-0.1,1.3-0.2,2-0.3s1.4-0.2,2.2-0.4c1.1-0.1,2-1.1,2-2.2c0-0.1,0-0.2,0-0.3c0.4-2.1,0.5-4.2,0.4-6.3&#xA;&#9;&#9;&#9;c-0.1-0.9-0.7-1.7-1.6-1.9c-1.2-0.2-2.8-0.6-4.3-0.8c-1.2-0.1-2.3-1-2.6-2.2c-0.5-1.1-1-2.3-1.4-3.5c-0.5-1-0.4-2.2,0.3-3&#xA;&#9;&#9;&#9;c0.3-0.4,0.6-0.8,0.9-1.2c0.6-0.9,1.2-1.7,1.7-2.5c0.6-0.8,0.5-1.9-0.2-2.6c-1-1.2-2.1-2.2-3.2-3.3l-1.2-1.1l-0.1-0.1&#xA;&#9;&#9;&#9;c-0.8-0.9-2.2-1.1-3.1-0.3l-0.2,0.1c-1,0.7-2,1.4-3.4,2.4l-0.1,0.1c-0.9,0.6-2,0.7-2.9,0.2c-1.1-0.5-2.2-0.9-3.7-1.5&#xA;&#9;&#9;&#9;c-1.1-0.3-1.8-1.3-1.9-2.4c-0.1-0.7-0.2-1.3-0.3-1.9c-0.1-0.7-0.3-1.4-0.4-2.2c-0.1-1.1-1.1-2-2.2-2c-2.1-0.1-4.3-0.1-6.3,0&#xA;&#9;&#9;&#9;c-1,0-1.9,0.7-2.1,1.6c-0.3,1-0.4,2-0.6,3.1c-0.1,0.5-0.2,1-0.3,1.5c-0.2,1.1-0.9,2-2,2.3c-1.2,0.5-2.3,0.9-3.5,1.5&#xA;&#9;&#9;&#9;c-0.9,0.5-2.1,0.4-2.9-0.2l-1.6-1.1c-0.8-0.6-1.5-1.1-2.2-1.5l-0.1-0.1c-0.8-0.5-1.8-0.4-2.5,0.2c-1.6,1.4-3.2,3-4.6,4.6l-0.1,0.1&#xA;&#9;&#9;&#9;c-0.8,0.8-0.8,2.1-0.1,3c0.7,1,1.4,1.9,2,2.9l0.6,0.9c0.1,0.1,0.1,0.2,0.1,0.2c0.2,0.5,0.3,1,0.3,1.5c0,0.2,0,0.5-0.1,0.7&#xA;&#9;&#9;&#9;c-0.4,1.1-0.9,2.2-1.3,3.2l-0.4,1c0,0,0,0.1,0,0.1c-0.4,0.8-1.1,1.4-2,1.5c-1.4,0.3-2.8,0.5-4.2,0.7h-0.1c-1.1,0.1-2,1-2,2.1&#xA;&#9;&#9;&#9;c-0.1,2.2-0.1,4.5,0,6.6c0,0.9,0.7,1.7,1.6,2c1,0.2,2,0.4,3,0.6l1.6,0.3c1.1,0.1,2,0.9,2.3,2c0.2,0.5,0.5,1.2,0.7,1.8&#xA;&#9;&#9;&#9;s0.5,1.2,0.8,1.9c0.5,1,0.4,2.1-0.4,2.9c-0.5,0.7-1,1.3-1.4,2l-1,1.4c-0.7,1-0.6,2.4,0.3,3.2c0.5,0.5,0.9,1,1.4,1.4&#xA;&#9;&#9;&#9;c0.9,0.9,1.8,1.8,2.6,2.6l0.1,0.1c0.8,0.9,2.2,1,3.2,0.2l0.1-0.1c0.9-0.6,1.8-1.3,2.7-1.9l0.7-0.5c0.8-0.6,1.8-0.8,2.7-0.4h0.1&#xA;&#9;&#9;&#9;c1.2,0.5,2.3,1,3.6,1.5c1.1,0.4,2,1.4,2,2.6c0.1,0.6,0.2,1.3,0.3,1.9s0.3,1.5,0.4,2.2C405.2,282.7,406.1,283.5,407.1,283.6z&#xA;&#9;&#9;&#9; M419.9,278.7L419.9,278.7L419.9,278.7z M436.8,263.8C436.8,263.8,436.8,263.9,436.8,263.8C436.8,263.9,436.8,263.9,436.8,263.8&#xA;&#9;&#9;&#9;L436.8,263.8z M436.4,262.5L436.4,262.5z M382.3,260L382.3,260L382.3,260z M438.4,259.8L438.4,259.8&#xA;&#9;&#9;&#9;C438.4,259.9,438.4,259.9,438.4,259.8L438.4,259.8z M436.8,238.4L436.8,238.4z M400.9,222.3L400.9,222.3L400.9,222.3z&#xA;&#9;&#9;&#9; M419.6,222.2L419.6,222.2z M410.5,267.5c-9.5,0-17.1-7.7-17.1-17.2c0-9.5,7.7-17.1,17.2-17.1c9.4,0,17.1,7.7,17.1,17.1&#xA;&#9;&#9;&#9;C427.7,259.8,420,267.5,410.5,267.5C410.5,267.5,410.5,267.5,410.5,267.5z M410.6,237.2c-7.3,0-13.2,5.8-13.2,13.1&#xA;&#9;&#9;&#9;c0,7.3,5.8,13.2,13.1,13.2c7.3,0,13.2-5.8,13.2-13.1c0,0,0-0.1,0-0.1C423.7,243.1,417.8,237.2,410.6,237.2z"/>
	</g>
</g>
</svg>